<?xml version="1.0" encoding="UTF-8" standalone="no"?><svg xmlns="http://www.w3.org/2000/svg" xmlns:xlink="http://www.w3.org/1999/xlink" contentScriptType="application/ecmascript" contentStyleType="text/css" height="500px" preserveAspectRatio="none" style="width:1460px;height:500px;" version="1.1" viewBox="0 0 1460 500" width="1460px" zoomAndPan="magnify"><defs/><g><rect fill="#FEFECE" height="122.9297" rx="5" ry="5" style="stroke:#FEFECE;stroke-width:1.5;" width="283" x="10" y="326.5"/><text fill="#000000" font-family="sans-serif" font-size="14" lengthAdjust="spacing" textLength="61" x="15" y="342.0352">$schema</text><text fill="#000000" font-family="sans-serif" font-size="14" lengthAdjust="spacing" textLength="168" x="120" y="342.0352">./schema-metadata.json</text><line style="stroke:#A80036;stroke-width:1.0;" x1="115" x2="115" y1="326.5" y2="346.9883"/><line style="stroke:#A80036;stroke-width:1.0;" x1="10" x2="293" y1="346.9883" y2="346.9883"/><text fill="#000000" font-family="sans-serif" font-size="14" lengthAdjust="spacing" textLength="48" x="15" y="362.5234">project</text><text fill="#000000" font-family="sans-serif" font-size="14" lengthAdjust="spacing" textLength="0" x="132" y="362.5234"/><line style="stroke:#A80036;stroke-width:1.0;" x1="115" x2="115" y1="346.9883" y2="367.4766"/><line style="stroke:#A80036;stroke-width:1.0;" x1="10" x2="293" y1="367.4766" y2="367.4766"/><text fill="#000000" font-family="sans-serif" font-size="14" lengthAdjust="spacing" textLength="57" x="15" y="383.0117">datasets</text><text fill="#000000" font-family="sans-serif" font-size="14" lengthAdjust="spacing" textLength="0" x="132" y="383.0117"/><line style="stroke:#A80036;stroke-width:1.0;" x1="115" x2="115" y1="367.4766" y2="387.9648"/><line style="stroke:#A80036;stroke-width:1.0;" x1="10" x2="293" y1="387.9648" y2="387.9648"/><text fill="#000000" font-family="sans-serif" font-size="14" lengthAdjust="spacing" textLength="55" x="15" y="403.5">persons</text><text fill="#000000" font-family="sans-serif" font-size="14" lengthAdjust="spacing" textLength="0" x="132" y="403.5"/><line style="stroke:#A80036;stroke-width:1.0;" x1="115" x2="115" y1="387.9648" y2="408.4531"/><line style="stroke:#A80036;stroke-width:1.0;" x1="10" x2="293" y1="408.4531" y2="408.4531"/><text fill="#000000" font-family="sans-serif" font-size="14" lengthAdjust="spacing" textLength="95" x="15" y="423.9883">organizations</text><text fill="#000000" font-family="sans-serif" font-size="14" lengthAdjust="spacing" textLength="0" x="132" y="423.9883"/><line style="stroke:#A80036;stroke-width:1.0;" x1="115" x2="115" y1="408.4531" y2="428.9414"/><line style="stroke:#A80036;stroke-width:1.0;" x1="10" x2="293" y1="428.9414" y2="428.9414"/><text fill="#000000" font-family="sans-serif" font-size="14" lengthAdjust="spacing" textLength="44" x="15" y="444.4766">grants</text><text fill="#000000" font-family="sans-serif" font-size="14" lengthAdjust="spacing" textLength="0" x="132" y="444.4766"/><line style="stroke:#A80036;stroke-width:1.0;" x1="115" x2="115" y1="428.9414" y2="449.4297"/><rect fill="none" height="122.9297" rx="5" ry="5" style="stroke:#A80036;stroke-width:1.5;" width="283" x="10" y="326.5"/><rect fill="#FEFECE" height="327.8125" rx="5" ry="5" style="stroke:#FEFECE;stroke-width:1.5;" width="291" x="330" y="10"/><text fill="#000000" font-family="sans-serif" font-size="14" lengthAdjust="spacing" textLength="25" x="335" y="25.5352">@id</text><text fill="#000000" font-family="sans-serif" font-size="14" lengthAdjust="spacing" textLength="92" x="493" y="25.5352">0000-project</text><line style="stroke:#A80036;stroke-width:1.0;" x1="488" x2="488" y1="10" y2="30.4883"/><line style="stroke:#A80036;stroke-width:1.0;" x1="330" x2="621" y1="30.4883" y2="30.4883"/><text fill="#000000" font-family="sans-serif" font-size="14" lengthAdjust="spacing" textLength="41" x="335" y="46.0234">@type</text><text fill="#000000" font-family="sans-serif" font-size="14" lengthAdjust="spacing" textLength="47" x="493" y="46.0234">Project</text><line style="stroke:#A80036;stroke-width:1.0;" x1="488" x2="488" y1="30.4883" y2="50.9766"/><line style="stroke:#A80036;stroke-width:1.0;" x1="330" x2="621" y1="50.9766" y2="50.9766"/><text fill="#000000" font-family="sans-serif" font-size="14" lengthAdjust="spacing" textLength="38" x="335" y="66.5117">name</text><text fill="#000000" font-family="sans-serif" font-size="14" lengthAdjust="spacing" textLength="123" x="493" y="66.5117">Test Project Name</text><line style="stroke:#A80036;stroke-width:1.0;" x1="488" x2="488" y1="50.9766" y2="71.4648"/><line style="stroke:#A80036;stroke-width:1.0;" x1="330" x2="621" y1="71.4648" y2="71.4648"/><text fill="#000000" font-family="sans-serif" font-size="14" lengthAdjust="spacing" textLength="69" x="335" y="87">shortcode</text><text fill="#000000" font-family="sans-serif" font-size="14" lengthAdjust="spacing" textLength="36" x="493" y="87">0000</text><line style="stroke:#A80036;stroke-width:1.0;" x1="488" x2="488" y1="71.4648" y2="91.9531"/><line style="stroke:#A80036;stroke-width:1.0;" x1="330" x2="621" y1="91.9531" y2="91.9531"/><text fill="#000000" font-family="sans-serif" font-size="14" lengthAdjust="spacing" textLength="77" x="335" y="107.4883">description</text><text fill="#000000" font-family="sans-serif" font-size="14" lengthAdjust="spacing" textLength="0" x="505" y="107.4883"/><line style="stroke:#A80036;stroke-width:1.0;" x1="488" x2="488" y1="91.9531" y2="112.4414"/><line style="stroke:#A80036;stroke-width:1.0;" x1="330" x2="621" y1="112.4414" y2="112.4414"/><text fill="#000000" font-family="sans-serif" font-size="14" lengthAdjust="spacing" textLength="62" x="335" y="127.9766">startDate</text><text fill="#000000" font-family="sans-serif" font-size="14" lengthAdjust="spacing" textLength="88" x="493" y="127.9766">2021-01-01</text><line style="stroke:#A80036;stroke-width:1.0;" x1="488" x2="488" y1="112.4414" y2="132.9297"/><line style="stroke:#A80036;stroke-width:1.0;" x1="330" x2="621" y1="132.9297" y2="132.9297"/><text fill="#000000" font-family="sans-serif" font-size="14" lengthAdjust="spacing" textLength="65" x="335" y="148.4648">keywords</text><text fill="#000000" font-family="sans-serif" font-size="14" lengthAdjust="spacing" textLength="0" x="505" y="148.4648"/><line style="stroke:#A80036;stroke-width:1.0;" x1="488" x2="488" y1="132.9297" y2="153.418"/><line style="stroke:#A80036;stroke-width:1.0;" x1="330" x2="621" y1="153.418" y2="153.418"/><text fill="#000000" font-family="sans-serif" font-size="14" lengthAdjust="spacing" textLength="72" x="335" y="168.9531">disciplines</text><text fill="#000000" font-family="sans-serif" font-size="14" lengthAdjust="spacing" textLength="0" x="505" y="168.9531"/><line style="stroke:#A80036;stroke-width:1.0;" x1="488" x2="488" y1="153.418" y2="173.9063"/><line style="stroke:#A80036;stroke-width:1.0;" x1="330" x2="621" y1="173.9063" y2="173.9063"/><text fill="#000000" font-family="sans-serif" font-size="14" lengthAdjust="spacing" textLength="127" x="335" y="189.4414">temporalCoverage</text><text fill="#000000" font-family="sans-serif" font-size="14" lengthAdjust="spacing" textLength="0" x="505" y="189.4414"/><line style="stroke:#A80036;stroke-width:1.0;" x1="488" x2="488" y1="173.9063" y2="194.3945"/><line style="stroke:#A80036;stroke-width:1.0;" x1="330" x2="621" y1="194.3945" y2="194.3945"/><text fill="#000000" font-family="sans-serif" font-size="14" lengthAdjust="spacing" textLength="110" x="335" y="209.9297">spatialCoverage</text><text fill="#000000" font-family="sans-serif" font-size="14" lengthAdjust="spacing" textLength="0" x="505" y="209.9297"/><line style="stroke:#A80036;stroke-width:1.0;" x1="488" x2="488" y1="194.3945" y2="214.8828"/><line style="stroke:#A80036;stroke-width:1.0;" x1="330" x2="621" y1="214.8828" y2="214.8828"/><text fill="#000000" font-family="sans-serif" font-size="14" lengthAdjust="spacing" textLength="26" x="335" y="230.418">urls</text><text fill="#000000" font-family="sans-serif" font-size="14" lengthAdjust="spacing" textLength="0" x="505" y="230.418"/><line style="stroke:#A80036;stroke-width:1.0;" x1="488" x2="488" y1="214.8828" y2="235.3711"/><line style="stroke:#A80036;stroke-width:1.0;" x1="330" x2="621" y1="235.3711" y2="235.3711"/><text fill="#000000" font-family="sans-serif" font-size="14" lengthAdjust="spacing" textLength="148" x="335" y="250.9063">dataManagementPlan</text><text fill="#000000" font-family="sans-serif" font-size="14" lengthAdjust="spacing" textLength="0" x="505" y="250.9063"/><line style="stroke:#A80036;stroke-width:1.0;" x1="488" x2="488" y1="235.3711" y2="255.8594"/><line style="stroke:#A80036;stroke-width:1.0;" x1="330" x2="621" y1="255.8594" y2="255.8594"/><text fill="#000000" font-family="sans-serif" font-size="14" lengthAdjust="spacing" textLength="57" x="335" y="271.3945">endDate</text><text fill="#000000" font-family="sans-serif" font-size="14" lengthAdjust="spacing" textLength="88" x="493" y="271.3945">2022-01-01</text><line style="stroke:#A80036;stroke-width:1.0;" x1="488" x2="488" y1="255.8594" y2="276.3477"/><line style="stroke:#A80036;stroke-width:1.0;" x1="330" x2="621" y1="276.3477" y2="276.3477"/><text fill="#000000" font-family="sans-serif" font-size="14" lengthAdjust="spacing" textLength="84" x="335" y="291.8828">publications</text><text fill="#000000" font-family="sans-serif" font-size="14" lengthAdjust="spacing" textLength="0" x="505" y="291.8828"/><line style="stroke:#A80036;stroke-width:1.0;" x1="488" x2="488" y1="276.3477" y2="296.8359"/><line style="stroke:#A80036;stroke-width:1.0;" x1="330" x2="621" y1="296.8359" y2="296.8359"/><text fill="#000000" font-family="sans-serif" font-size="14" lengthAdjust="spacing" textLength="44" x="335" y="312.3711">grants</text><text fill="#000000" font-family="sans-serif" font-size="14" lengthAdjust="spacing" textLength="0" x="505" y="312.3711"/><line style="stroke:#A80036;stroke-width:1.0;" x1="488" x2="488" y1="296.8359" y2="317.3242"/><line style="stroke:#A80036;stroke-width:1.0;" x1="330" x2="621" y1="317.3242" y2="317.3242"/><text fill="#000000" font-family="sans-serif" font-size="14" lengthAdjust="spacing" textLength="107" x="335" y="332.8594">alternateNames</text><text fill="#000000" font-family="sans-serif" font-size="14" lengthAdjust="spacing" textLength="0" x="505" y="332.8594"/><line style="stroke:#A80036;stroke-width:1.0;" x1="488" x2="488" y1="317.3242" y2="337.8125"/><rect fill="none" height="327.8125" rx="5" ry="5" style="stroke:#A80036;stroke-width:1.5;" width="291" x="330" y="10"/><rect fill="#FEFECE" height="40.9766" rx="5" ry="5" style="stroke:#FEFECE;stroke-width:1.5;" width="486" x="722.5" y="12.5"/><text fill="#000000" font-family="sans-serif" font-size="14" lengthAdjust="spacing" textLength="17" x="727.5" y="28.0352">de</text><text fill="#000000" font-family="sans-serif" font-size="14" lengthAdjust="spacing" textLength="449" x="754.5" y="28.0352">Dies ist ein einfaches Beipiel-Projekt zu Dokumentationszwecken.</text><line style="stroke:#A80036;stroke-width:1.0;" x1="749.5" x2="749.5" y1="12.5" y2="32.9883"/><line style="stroke:#A80036;stroke-width:1.0;" x1="722.5" x2="1208.5" y1="32.9883" y2="32.9883"/><text fill="#000000" font-family="sans-serif" font-size="14" lengthAdjust="spacing" textLength="17" x="727.5" y="48.5234">en</text><text fill="#000000" font-family="sans-serif" font-size="14" lengthAdjust="spacing" textLength="424" x="754.5" y="48.5234">This is a simple example project for documentation purposes.</text><line style="stroke:#A80036;stroke-width:1.0;" x1="749.5" x2="749.5" y1="32.9883" y2="53.4766"/><rect fill="none" height="40.9766" rx="5" ry="5" style="stroke:#A80036;stroke-width:1.5;" width="486" x="722.5" y="12.5"/><rect fill="#FEFECE" height="20.4883" rx="5" ry="5" style="stroke:#FEFECE;stroke-width:1.5;" width="22" x="953.5" y="72"/><text fill="#000000" font-family="sans-serif" font-size="14" lengthAdjust="spacing" textLength="0" x="970.5" y="87.5352"/><rect fill="none" height="20.4883" rx="5" ry="5" style="stroke:#A80036;stroke-width:1.5;" width="22" x="953.5" y="72"/><rect fill="#FEFECE" height="40.9766" rx="5" ry="5" style="stroke:#FEFECE;stroke-width:1.5;" width="111" x="1323.5" y="61.5"/><text fill="#000000" font-family="sans-serif" font-size="14" lengthAdjust="spacing" textLength="17" x="1328.5" y="77.0352">en</text><text fill="#000000" font-family="sans-serif" font-size="14" lengthAdjust="spacing" textLength="47" x="1355.5" y="77.0352">history</text><line style="stroke:#A80036;stroke-width:1.0;" x1="1350.5" x2="1350.5" y1="61.5" y2="81.9883"/><line style="stroke:#A80036;stroke-width:1.0;" x1="1323.5" x2="1434.5" y1="81.9883" y2="81.9883"/><text fill="#000000" font-family="sans-serif" font-size="14" lengthAdjust="spacing" textLength="17" x="1328.5" y="97.5234">de</text><text fill="#000000" font-family="sans-serif" font-size="14" lengthAdjust="spacing" textLength="74" x="1355.5" y="97.5234">Geschichte</text><line style="stroke:#A80036;stroke-width:1.0;" x1="1350.5" x2="1350.5" y1="81.9883" y2="102.4766"/><rect fill="none" height="40.9766" rx="5" ry="5" style="stroke:#A80036;stroke-width:1.5;" width="111" x="1323.5" y="61.5"/><rect fill="#FEFECE" height="20.4883" rx="5" ry="5" style="stroke:#FEFECE;stroke-width:1.5;" width="222" x="854.5" y="110"/><text fill="#000000" font-family="sans-serif" font-size="14" lengthAdjust="spacing" textLength="212" x="859.5" y="125.5352">http://skos.um.es/unesco6/11</text><rect fill="none" height="20.4883" rx="5" ry="5" style="stroke:#A80036;stroke-width:1.5;" width="222" x="854.5" y="110"/><rect fill="#FEFECE" height="20.4883" rx="5" ry="5" style="stroke:#FEFECE;stroke-width:1.5;" width="377" x="777" y="148"/><text fill="#000000" font-family="sans-serif" font-size="14" lengthAdjust="spacing" textLength="367" x="782" y="163.5352">http://chronontology.dainst.org/period/Ef9SyESSafJ1</text><rect fill="none" height="20.4883" rx="5" ry="5" style="stroke:#A80036;stroke-width:1.5;" width="377" x="777" y="148"/><rect fill="#FEFECE" height="20.4883" rx="5" ry="5" style="stroke:#FEFECE;stroke-width:1.5;" width="360" x="785.5" y="186"/><text fill="#000000" font-family="sans-serif" font-size="14" lengthAdjust="spacing" textLength="350" x="790.5" y="201.5352">https://www.geonames.org/6255148/europe.html</text><rect fill="none" height="20.4883" rx="5" ry="5" style="stroke:#A80036;stroke-width:1.5;" width="360" x="785.5" y="186"/><rect fill="#FEFECE" height="20.4883" rx="5" ry="5" style="stroke:#FEFECE;stroke-width:1.5;" width="235" x="848" y="224"/><text fill="#000000" font-family="sans-serif" font-size="14" lengthAdjust="spacing" textLength="225" x="853" y="239.5352">https://dasch.swiss/someproject</text><rect fill="none" height="20.4883" rx="5" ry="5" style="stroke:#A80036;stroke-width:1.5;" width="235" x="848" y="224"/><rect fill="#FEFECE" height="40.9766" rx="5" ry="5" style="stroke:#FEFECE;stroke-width:1.5;" width="343" x="794" y="262.5"/><text fill="#000000" font-family="sans-serif" font-size="14" lengthAdjust="spacing" textLength="60" x="799" y="278.0352">available</text><text fill="#000000" font-family="sans-serif" font-size="14" lengthAdjust="spacing" textLength="44" x="869" y="278.0352">☑ true</text><line style="stroke:#A80036;stroke-width:1.0;" x1="864" x2="864" y1="262.5" y2="282.9883"/><line style="stroke:#A80036;stroke-width:1.0;" x1="794" x2="1137" y1="282.9883" y2="282.9883"/><text fill="#000000" font-family="sans-serif" font-size="14" lengthAdjust="spacing" textLength="19" x="799" y="298.5234">url</text><text fill="#000000" font-family="sans-serif" font-size="14" lengthAdjust="spacing" textLength="263" x="869" y="298.5234">https://dasch.swiss/someproject/dmp</text><line style="stroke:#A80036;stroke-width:1.0;" x1="864" x2="864" y1="282.9883" y2="303.4766"/><rect fill="none" height="40.9766" rx="5" ry="5" style="stroke:#A80036;stroke-width:1.5;" width="343" x="794" y="262.5"/><rect fill="#FEFECE" height="20.4883" rx="5" ry="5" style="stroke:#FEFECE;stroke-width:1.5;" width="615" x="658" y="322"/><text fill="#000000" font-family="sans-serif" font-size="14" lengthAdjust="spacing" textLength="605" x="663" y="337.5352">Doe, J. (2020): Some publication. In: Journal for sample publications. Vol. 100.1, p. 1-32.</text><rect fill="none" height="20.4883" rx="5" ry="5" style="stroke:#A80036;stroke-width:1.5;" width="615" x="658" y="322"/><rect fill="#FEFECE" height="20.4883" rx="5" ry="5" style="stroke:#FEFECE;stroke-width:1.5;" width="82" x="924.5" y="360"/><text fill="#000000" font-family="sans-serif" font-size="14" lengthAdjust="spacing" textLength="72" x="929.5" y="375.5352">grant-001</text><rect fill="none" height="20.4883" rx="5" ry="5" style="stroke:#A80036;stroke-width:1.5;" width="82" x="924.5" y="360"/><rect fill="#FEFECE" height="20.4883" rx="5" ry="5" style="stroke:#FEFECE;stroke-width:1.5;" width="22" x="953.5" y="398"/><text fill="#000000" font-family="sans-serif" font-size="14" lengthAdjust="spacing" textLength="0" x="970.5" y="413.5352"/><rect fill="none" height="20.4883" rx="5" ry="5" style="stroke:#A80036;stroke-width:1.5;" width="22" x="953.5" y="398"/><rect fill="#FEFECE" height="40.9766" rx="5" ry="5" style="stroke:#FEFECE;stroke-width:1.5;" width="138" x="1310" y="387.5"/><text fill="#000000" font-family="sans-serif" font-size="14" lengthAdjust="spacing" textLength="17" x="1315" y="403.0352">de</text><text fill="#000000" font-family="sans-serif" font-size="14" lengthAdjust="spacing" textLength="101" x="1342" y="403.0352">Beispielprojekt</text><line style="stroke:#A80036;stroke-width:1.0;" x1="1337" x2="1337" y1="387.5" y2="407.9883"/><line style="stroke:#A80036;stroke-width:1.0;" x1="1310" x2="1448" y1="407.9883" y2="407.9883"/><text fill="#000000" font-family="sans-serif" font-size="14" lengthAdjust="spacing" textLength="17" x="1315" y="423.5234">en</text><text fill="#000000" font-family="sans-serif" font-size="14" lengthAdjust="spacing" textLength="101" x="1342" y="423.5234">Sample Project</text><line style="stroke:#A80036;stroke-width:1.0;" x1="1337" x2="1337" y1="407.9883" y2="428.4766"/><rect fill="none" height="40.9766" rx="5" ry="5" style="stroke:#A80036;stroke-width:1.5;" width="138" x="1310" y="387.5"/><rect fill="#FEFECE" height="15" rx="5" ry="5" style="stroke:#FEFECE;stroke-width:1.5;" width="30" x="463.5" y="356"/><rect fill="none" height="15" rx="5" ry="5" style="stroke:#A80036;stroke-width:1.5;" width="30" x="463.5" y="356"/><rect fill="#FEFECE" height="15" rx="5" ry="5" style="stroke:#FEFECE;stroke-width:1.5;" width="30" x="463.5" y="390"/><rect fill="none" height="15" rx="5" ry="5" style="stroke:#A80036;stroke-width:1.5;" width="30" x="463.5" y="390"/><rect fill="#FEFECE" height="15" rx="5" ry="5" style="stroke:#FEFECE;stroke-width:1.5;" width="30" x="463.5" y="424"/><rect fill="none" height="15" rx="5" ry="5" style="stroke:#A80036;stroke-width:1.5;" width="30" x="463.5" y="424"/><rect fill="#FEFECE" height="20.4883" rx="5" ry="5" style="stroke:#FEFECE;stroke-width:1.5;" width="22" x="463.5" y="458"/><text fill="#000000" font-family="sans-serif" font-size="14" lengthAdjust="spacing" textLength="0" x="480.5" y="473.5352"/><rect fill="none" height="20.4883" rx="5" ry="5" style="stroke:#A80036;stroke-width:1.5;" width="22" x="463.5" y="458"/><rect fill="#FEFECE" height="40.9766" rx="5" ry="5" style="stroke:#FEFECE;stroke-width:1.5;" width="133" x="899" y="447.5"/><text fill="#000000" font-family="sans-serif" font-size="14" lengthAdjust="spacing" textLength="25" x="904" y="463.0352">@id</text><text fill="#000000" font-family="sans-serif" font-size="14" lengthAdjust="spacing" textLength="72" x="955" y="463.0352">grant-001</text><line style="stroke:#A80036;stroke-width:1.0;" x1="950" x2="950" y1="447.5" y2="467.9883"/><line style="stroke:#A80036;stroke-width:1.0;" x1="899" x2="1032" y1="467.9883" y2="467.9883"/><text fill="#000000" font-family="sans-serif" font-size="14" lengthAdjust="spacing" textLength="41" x="904" y="483.5234">@type</text><text fill="#000000" font-family="sans-serif" font-size="14" lengthAdjust="spacing" textLength="38" x="955" y="483.5234">Grant</text><line style="stroke:#A80036;stroke-width:1.0;" x1="950" x2="950" y1="467.9883" y2="488.4766"/><rect fill="none" height="40.9766" rx="5" ry="5" style="stroke:#A80036;stroke-width:1.5;" width="133" x="899" y="447.5"/><path d="M609,102 L622,102 C645.5891,102 636.8776,73.5018 658,63 C676.0441,54.0287 695.4165,47.0467 715.3369,41.6628 " fill="none" style="stroke:#A80036;stroke-width:1.0;stroke-dasharray:3.0,3.0;"/><path d="M716.1017,44.6078 L717.5456,41.0892 L714.5721,38.7178 L722.6993,39.7509 L716.1017,44.6078 " fill="#A80036" style="stroke:#A80036;stroke-width:1.0;"/><ellipse cx="609" cy="102" fill="#A80036" rx="3" ry="3" style="stroke:#A80036;stroke-width:1.0;stroke-dasharray:3.0,3.0;"/><path d="M965.3453,82 L978.3453,82 C1028.1879,82 1216.6664,82 1316.1413,82 " fill="none" style="stroke:#A80036;stroke-width:1.0;stroke-dasharray:3.0,3.0;"/><path d="M1316.1413,85.0357 L1318.4181,82 L1316.1413,78.9643 L1323.7307,82 L1316.1413,85.0357 " fill="#A80036" style="stroke:#A80036;stroke-width:1.0;"/><ellipse cx="965.3453" cy="82" fill="#A80036" rx="3" ry="3" style="stroke:#A80036;stroke-width:1.0;stroke-dasharray:3.0,3.0;"/><path d="M609,143 L622,143 C646.5855,143 635.9919,111.9585 658,101 C756.9403,51.7346 896.5733,69.712 946.4229,78.4037 " fill="none" style="stroke:#A80036;stroke-width:1.0;stroke-dasharray:3.0,3.0;"/><path d="M945.8821,81.3909 L948.6634,78.8093 L946.9638,75.4164 L953.8911,79.7557 L945.8821,81.3909 " fill="#A80036" style="stroke:#A80036;stroke-width:1.0;"/><ellipse cx="609" cy="143" fill="#A80036" rx="3" ry="3" style="stroke:#A80036;stroke-width:1.0;stroke-dasharray:3.0,3.0;"/><path d="M609,163 L622,163 C641.2296,163 639.7765,145.1385 658,139 C718.177,118.7298 788.6874,113.1911 846.9479,113.0718 " fill="none" style="stroke:#A80036;stroke-width:1.0;stroke-dasharray:3.0,3.0;"/><path d="M846.9416,116.1803 L849.2793,113.0766 L846.9543,109.9633 L854.7191,113.0877 L846.9416,116.1803 " fill="#A80036" style="stroke:#A80036;stroke-width:1.0;"/><ellipse cx="609" cy="163" fill="#A80036" rx="3" ry="3" style="stroke:#A80036;stroke-width:1.0;stroke-dasharray:3.0,3.0;"/><path d="M609,184 L622,184 C638.2997,184 641.8315,179.0634 658,177 C693.8537,172.4245 732.2092,168.9403 769.2373,166.2902 " fill="none" style="stroke:#A80036;stroke-width:1.0;stroke-dasharray:3.0,3.0;"/><path d="M769.4584,169.4421 L771.6012,166.1243 L769.0161,163.1382 L777.1171,165.7372 L769.4584,169.4421 " fill="#A80036" style="stroke:#A80036;stroke-width:1.0;"/><ellipse cx="609" cy="184" fill="#A80036" rx="3" ry="3" style="stroke:#A80036;stroke-width:1.0;stroke-dasharray:3.0,3.0;"/><path d="M609,205 L622,205 C672.5695,205 727.3183,204.0103 777.9137,202.6873 " fill="none" style="stroke:#A80036;stroke-width:1.0;stroke-dasharray:3.0,3.0;"/><path d="M777.9962,205.7905 L780.2411,202.6254 L777.8312,199.5841 L785.6717,202.481 L777.9962,205.7905 " fill="#A80036" style="stroke:#A80036;stroke-width:1.0;"/><ellipse cx="609" cy="205" fill="#A80036" rx="3" ry="3" style="stroke:#A80036;stroke-width:1.0;stroke-dasharray:3.0,3.0;"/><path d="M609,225 L622,225 C694.4114,225 775.392,227.0292 840.4773,229.1606 " fill="none" style="stroke:#A80036;stroke-width:1.0;stroke-dasharray:3.0,3.0;"/><path d="M840.3731,232.3033 L842.8343,229.2387 L840.5814,226.0179 L848.334,229.4209 L840.3731,232.3033 " fill="#A80036" style="stroke:#A80036;stroke-width:1.0;"/><ellipse cx="609" cy="225" fill="#A80036" rx="3" ry="3" style="stroke:#A80036;stroke-width:1.0;stroke-dasharray:3.0,3.0;"/><path d="M609,246 L622,246 C638.2997,246 641.8708,250.6492 658,253 C699.4926,259.0475 744.3227,264.2021 786.5673,268.4442 " fill="none" style="stroke:#A80036;stroke-width:1.0;stroke-dasharray:3.0,3.0;"/><path d="M786.2656,271.4762 L788.8413,268.6705 L786.869,265.4122 L794.1473,269.1985 L786.2656,271.4762 " fill="#A80036" style="stroke:#A80036;stroke-width:1.0;"/><ellipse cx="609" cy="246" fill="#A80036" rx="3" ry="3" style="stroke:#A80036;stroke-width:1.0;stroke-dasharray:3.0,3.0;"/><path d="M609,287 L622,287 C641.4797,287 639.6098,305.5769 658,312 C666.4697,314.9582 675.1497,317.6143 683.9758,319.9952 " fill="none" style="stroke:#A80036;stroke-width:1.0;stroke-dasharray:3.0,3.0;"/><path d="M683.2014,322.974 L686.2098,320.576 L684.7501,317.0165 L691.4227,321.9311 L683.2014,322.974 " fill="#A80036" style="stroke:#A80036;stroke-width:1.0;"/><ellipse cx="609" cy="287" fill="#A80036" rx="3" ry="3" style="stroke:#A80036;stroke-width:1.0;stroke-dasharray:3.0,3.0;"/><path d="M609,307 L622,307 C647.267,307 635.5123,339.4795 658,351 C741.2341,393.6408 854.2624,386.832 917.3666,378.2752 " fill="none" style="stroke:#A80036;stroke-width:1.0;stroke-dasharray:3.0,3.0;"/><path d="M917.7862,381.2523 L919.5994,377.9605 L916.947,375.2981 L924.8094,377.2262 L917.7862,381.2523 " fill="#A80036" style="stroke:#A80036;stroke-width:1.0;"/><ellipse cx="609" cy="307" fill="#A80036" rx="3" ry="3" style="stroke:#A80036;stroke-width:1.0;stroke-dasharray:3.0,3.0;"/><path d="M965.3453,408 L978.3453,408 C1026.0146,408 1200.4933,408 1302.6401,408 " fill="none" style="stroke:#A80036;stroke-width:1.0;stroke-dasharray:3.0,3.0;"/><path d="M1302.6401,411.0119 L1304.899,408 L1302.6401,404.9881 L1310.1698,408 L1302.6401,411.0119 " fill="#A80036" style="stroke:#A80036;stroke-width:1.0;"/><ellipse cx="965.3453" cy="408" fill="#A80036" rx="3" ry="3" style="stroke:#A80036;stroke-width:1.0;stroke-dasharray:3.0,3.0;"/><path d="M609,328 L622,328 C653.4803,328 631.1577,372.553 658,389 C752.4587,446.8774 895.4269,423.4291 946.2558,412.4538 " fill="none" style="stroke:#A80036;stroke-width:1.0;stroke-dasharray:3.0,3.0;"/><path d="M946.9361,415.497 L948.5382,411.9436 L945.5754,409.4106 L953.8638,410.753 L946.9361,415.497 " fill="#A80036" style="stroke:#A80036;stroke-width:1.0;"/><ellipse cx="609" cy="328" fill="#A80036" rx="3" ry="3" style="stroke:#A80036;stroke-width:1.0;stroke-dasharray:3.0,3.0;"/><path d="M281,357 L294,357 C303.7925,357 315.5372,351.6361 328.2786,342.7451 " fill="none" style="stroke:#A80036;stroke-width:1.0;stroke-dasharray:3.0,3.0;"/><path d="M330.1346,345.2774 L330.1779,341.3531 L326.4226,340.2128 L334.6094,338.105 L330.1346,345.2774 " fill="#A80036" style="stroke:#A80036;stroke-width:1.0;"/><ellipse cx="281" cy="357" fill="#A80036" rx="3" ry="3" style="stroke:#A80036;stroke-width:1.0;stroke-dasharray:3.0,3.0;"/><path d="M281,377 L294,377 C353.2483,377 423.1261,369.9844 456.0419,366.2607 " fill="none" style="stroke:#A80036;stroke-width:1.0;stroke-dasharray:3.0,3.0;"/><path d="M456.3897,369.278 L458.3049,365.9999 L455.6941,363.2435 L463.585,365.3912 L456.3897,369.278 " fill="#A80036" style="stroke:#A80036;stroke-width:1.0;"/><ellipse cx="281" cy="377" fill="#A80036" rx="3" ry="3" style="stroke:#A80036;stroke-width:1.0;stroke-dasharray:3.0,3.0;"/><path d="M281,398 L294,398 C353.1341,398 423.1354,398 456.0734,398 " fill="none" style="stroke:#A80036;stroke-width:1.0;stroke-dasharray:3.0,3.0;"/><path d="M456.0734,401.1632 L458.4458,398 L456.0734,394.8368 L463.9815,398 L456.0734,401.1632 " fill="#A80036" style="stroke:#A80036;stroke-width:1.0;"/><ellipse cx="281" cy="398" fill="#A80036" rx="3" ry="3" style="stroke:#A80036;stroke-width:1.0;stroke-dasharray:3.0,3.0;"/><path d="M281,419 L294,419 C353.2483,419 423.1261,426.0156 456.0419,429.7393 " fill="none" style="stroke:#A80036;stroke-width:1.0;stroke-dasharray:3.0,3.0;"/><path d="M455.6941,432.7565 L458.3049,430.0001 L456.3897,426.722 L463.585,430.6088 L455.6941,432.7565 " fill="#A80036" style="stroke:#A80036;stroke-width:1.0;"/><ellipse cx="281" cy="419" fill="#A80036" rx="3" ry="3" style="stroke:#A80036;stroke-width:1.0;stroke-dasharray:3.0,3.0;"/><path d="M475.0877,468 L488.0877,468 C543.063,468 771.9587,468 891.5271,468 " fill="none" style="stroke:#A80036;stroke-width:1.0;stroke-dasharray:3.0,3.0;"/><path d="M891.5271,471.0859 L893.8415,468 L891.5271,464.9141 L899.2417,468 L891.5271,471.0859 " fill="#A80036" style="stroke:#A80036;stroke-width:1.0;"/><ellipse cx="475.0877" cy="468" fill="#A80036" rx="3" ry="3" style="stroke:#A80036;stroke-width:1.0;stroke-dasharray:3.0,3.0;"/><path d="M281,439 L294,439 C310.6058,439 313.7272,445.6909 330,449 C374.8688,458.1243 428.4802,463.8223 456.2492,466.3932 " fill="none" style="stroke:#A80036;stroke-width:1.0;stroke-dasharray:3.0,3.0;"/><path d="M455.9701,469.4932 L458.5742,466.6026 L456.5283,463.2932 L463.9992,467.0911 L455.9701,469.4932 " fill="#A80036" style="stroke:#A80036;stroke-width:1.0;"/><ellipse cx="281" cy="439" fill="#A80036" rx="3" ry="3" style="stroke:#A80036;stroke-width:1.0;stroke-dasharray:3.0,3.0;"/><!--MD5=[5656e248f484eb8a5139e39e2c1e145a]
@startjson API-Example

{
  "$schema": "./schema-metadata.json",
  "project": {
    "@id": "0000-project",
    "@type": "Project",
    "name": "Test Project Name",
    "shortcode": "0000",
    "description": {
      "de": "Dies ist ein einfaches Beipiel-Projekt zu Dokumentationszwecken.",
      "en": "This is a simple example project for documentation purposes."
    },
    "startDate": "2021-01-01",
    "keywords": [
      {
        "en": "history",
        "de": "Geschichte"
      }
    ],
    "disciplines": [
      "http://skos.um.es/unesco6/11"
    ],
    "temporalCoverage": [
      "http://chronontology.dainst.org/period/Ef9SyESSafJ1"
    ],
    "spatialCoverage": [
      "https://www.geonames.org/6255148/europe.html"
    ],
    "urls": [
      "https://dasch.swiss/someproject"
    ],
    "dataManagementPlan": {
      "available": true,
      "url": "https://dasch.swiss/someproject/dmp"
    },
    "endDate": "2022-01-01",
    "publications": [
      "Doe, J. (2020): Some publication. In: Journal for sample publications. Vol. 100.1, p. 1-32."
    ],
    "grants": [
      "grant-001"
    ],
    "alternateNames": [
      {
        "de": "Beispielprojekt",
        "en": "Sample Project"
      }
    ]
  },
  "datasets": [],
  "persons": [],
  "organizations": [],
  "grants": [
    {
      "@id": "grant-001",
      "@type": "Grant"
    }
  ]
}


@endjson

PlantUML version 1.2021.2(Sun Mar 07 12:10:27 CET 2021)
(GPL source distribution)
Java Runtime: OpenJDK Runtime Environment
JVM: OpenJDK 64-Bit Server VM
Default Encoding: UTF-8
Language: en
Country: GB
--></g></svg>