<?xml version="1.0" encoding="UTF-8" standalone="no"?><svg xmlns="http://www.w3.org/2000/svg" xmlns:xlink="http://www.w3.org/1999/xlink" contentScriptType="application/ecmascript" contentStyleType="text/css" height="712px" preserveAspectRatio="none" style="width:1626px;height:712px;" version="1.1" viewBox="0 0 1626 712" width="1626px" zoomAndPan="magnify"><defs/><g><rect fill="#FEFECE" height="122.9297" rx="5" ry="5" style="stroke:#FEFECE;stroke-width:1.5;" width="283" x="10" y="390"/><text fill="#000000" font-family="sans-serif" font-size="14" lengthAdjust="spacing" textLength="61" x="15" y="405.5352">$schema</text><text fill="#000000" font-family="sans-serif" font-size="14" lengthAdjust="spacing" textLength="168" x="120" y="405.5352">./schema-metadata.json</text><line style="stroke:#A80036;stroke-width:1.0;" x1="115" x2="115" y1="390" y2="410.4883"/><line style="stroke:#A80036;stroke-width:1.0;" x1="10" x2="293" y1="410.4883" y2="410.4883"/><text fill="#000000" font-family="sans-serif" font-size="14" lengthAdjust="spacing" textLength="48" x="15" y="426.0234">project</text><text fill="#000000" font-family="sans-serif" font-size="14" lengthAdjust="spacing" textLength="0" x="132" y="426.0234"/><line style="stroke:#A80036;stroke-width:1.0;" x1="115" x2="115" y1="410.4883" y2="430.9766"/><line style="stroke:#A80036;stroke-width:1.0;" x1="10" x2="293" y1="430.9766" y2="430.9766"/><text fill="#000000" font-family="sans-serif" font-size="14" lengthAdjust="spacing" textLength="57" x="15" y="446.5117">datasets</text><text fill="#000000" font-family="sans-serif" font-size="14" lengthAdjust="spacing" textLength="0" x="132" y="446.5117"/><line style="stroke:#A80036;stroke-width:1.0;" x1="115" x2="115" y1="430.9766" y2="451.4648"/><line style="stroke:#A80036;stroke-width:1.0;" x1="10" x2="293" y1="451.4648" y2="451.4648"/><text fill="#000000" font-family="sans-serif" font-size="14" lengthAdjust="spacing" textLength="55" x="15" y="467">persons</text><text fill="#000000" font-family="sans-serif" font-size="14" lengthAdjust="spacing" textLength="0" x="132" y="467"/><line style="stroke:#A80036;stroke-width:1.0;" x1="115" x2="115" y1="451.4648" y2="471.9531"/><line style="stroke:#A80036;stroke-width:1.0;" x1="10" x2="293" y1="471.9531" y2="471.9531"/><text fill="#000000" font-family="sans-serif" font-size="14" lengthAdjust="spacing" textLength="95" x="15" y="487.4883">organizations</text><text fill="#000000" font-family="sans-serif" font-size="14" lengthAdjust="spacing" textLength="0" x="132" y="487.4883"/><line style="stroke:#A80036;stroke-width:1.0;" x1="115" x2="115" y1="471.9531" y2="492.4414"/><line style="stroke:#A80036;stroke-width:1.0;" x1="10" x2="293" y1="492.4414" y2="492.4414"/><text fill="#000000" font-family="sans-serif" font-size="14" lengthAdjust="spacing" textLength="44" x="15" y="507.9766">grants</text><text fill="#000000" font-family="sans-serif" font-size="14" lengthAdjust="spacing" textLength="0" x="132" y="507.9766"/><line style="stroke:#A80036;stroke-width:1.0;" x1="115" x2="115" y1="492.4414" y2="512.9297"/><rect fill="none" height="122.9297" rx="5" ry="5" style="stroke:#A80036;stroke-width:1.5;" width="283" x="10" y="390"/><rect fill="#FEFECE" height="327.8125" rx="5" ry="5" style="stroke:#FEFECE;stroke-width:1.5;" width="291" x="330" y="16.5"/><text fill="#000000" font-family="sans-serif" font-size="14" lengthAdjust="spacing" textLength="25" x="335" y="32.0352">@id</text><text fill="#000000" font-family="sans-serif" font-size="14" lengthAdjust="spacing" textLength="92" x="493" y="32.0352">0000-project</text><line style="stroke:#A80036;stroke-width:1.0;" x1="488" x2="488" y1="16.5" y2="36.9883"/><line style="stroke:#A80036;stroke-width:1.0;" x1="330" x2="621" y1="36.9883" y2="36.9883"/><text fill="#000000" font-family="sans-serif" font-size="14" lengthAdjust="spacing" textLength="41" x="335" y="52.5234">@type</text><text fill="#000000" font-family="sans-serif" font-size="14" lengthAdjust="spacing" textLength="47" x="493" y="52.5234">Project</text><line style="stroke:#A80036;stroke-width:1.0;" x1="488" x2="488" y1="36.9883" y2="57.4766"/><line style="stroke:#A80036;stroke-width:1.0;" x1="330" x2="621" y1="57.4766" y2="57.4766"/><text fill="#000000" font-family="sans-serif" font-size="14" lengthAdjust="spacing" textLength="38" x="335" y="73.0117">name</text><text fill="#000000" font-family="sans-serif" font-size="14" lengthAdjust="spacing" textLength="123" x="493" y="73.0117">Test Project Name</text><line style="stroke:#A80036;stroke-width:1.0;" x1="488" x2="488" y1="57.4766" y2="77.9648"/><line style="stroke:#A80036;stroke-width:1.0;" x1="330" x2="621" y1="77.9648" y2="77.9648"/><text fill="#000000" font-family="sans-serif" font-size="14" lengthAdjust="spacing" textLength="69" x="335" y="93.5">shortcode</text><text fill="#000000" font-family="sans-serif" font-size="14" lengthAdjust="spacing" textLength="36" x="493" y="93.5">0000</text><line style="stroke:#A80036;stroke-width:1.0;" x1="488" x2="488" y1="77.9648" y2="98.4531"/><line style="stroke:#A80036;stroke-width:1.0;" x1="330" x2="621" y1="98.4531" y2="98.4531"/><text fill="#000000" font-family="sans-serif" font-size="14" lengthAdjust="spacing" textLength="77" x="335" y="113.9883">description</text><text fill="#000000" font-family="sans-serif" font-size="14" lengthAdjust="spacing" textLength="0" x="505" y="113.9883"/><line style="stroke:#A80036;stroke-width:1.0;" x1="488" x2="488" y1="98.4531" y2="118.9414"/><line style="stroke:#A80036;stroke-width:1.0;" x1="330" x2="621" y1="118.9414" y2="118.9414"/><text fill="#000000" font-family="sans-serif" font-size="14" lengthAdjust="spacing" textLength="62" x="335" y="134.4766">startDate</text><text fill="#000000" font-family="sans-serif" font-size="14" lengthAdjust="spacing" textLength="88" x="493" y="134.4766">2021-01-01</text><line style="stroke:#A80036;stroke-width:1.0;" x1="488" x2="488" y1="118.9414" y2="139.4297"/><line style="stroke:#A80036;stroke-width:1.0;" x1="330" x2="621" y1="139.4297" y2="139.4297"/><text fill="#000000" font-family="sans-serif" font-size="14" lengthAdjust="spacing" textLength="65" x="335" y="154.9648">keywords</text><text fill="#000000" font-family="sans-serif" font-size="14" lengthAdjust="spacing" textLength="0" x="505" y="154.9648"/><line style="stroke:#A80036;stroke-width:1.0;" x1="488" x2="488" y1="139.4297" y2="159.918"/><line style="stroke:#A80036;stroke-width:1.0;" x1="330" x2="621" y1="159.918" y2="159.918"/><text fill="#000000" font-family="sans-serif" font-size="14" lengthAdjust="spacing" textLength="72" x="335" y="175.4531">disciplines</text><text fill="#000000" font-family="sans-serif" font-size="14" lengthAdjust="spacing" textLength="0" x="505" y="175.4531"/><line style="stroke:#A80036;stroke-width:1.0;" x1="488" x2="488" y1="159.918" y2="180.4063"/><line style="stroke:#A80036;stroke-width:1.0;" x1="330" x2="621" y1="180.4063" y2="180.4063"/><text fill="#000000" font-family="sans-serif" font-size="14" lengthAdjust="spacing" textLength="127" x="335" y="195.9414">temporalCoverage</text><text fill="#000000" font-family="sans-serif" font-size="14" lengthAdjust="spacing" textLength="0" x="505" y="195.9414"/><line style="stroke:#A80036;stroke-width:1.0;" x1="488" x2="488" y1="180.4063" y2="200.8945"/><line style="stroke:#A80036;stroke-width:1.0;" x1="330" x2="621" y1="200.8945" y2="200.8945"/><text fill="#000000" font-family="sans-serif" font-size="14" lengthAdjust="spacing" textLength="110" x="335" y="216.4297">spatialCoverage</text><text fill="#000000" font-family="sans-serif" font-size="14" lengthAdjust="spacing" textLength="0" x="505" y="216.4297"/><line style="stroke:#A80036;stroke-width:1.0;" x1="488" x2="488" y1="200.8945" y2="221.3828"/><line style="stroke:#A80036;stroke-width:1.0;" x1="330" x2="621" y1="221.3828" y2="221.3828"/><text fill="#000000" font-family="sans-serif" font-size="14" lengthAdjust="spacing" textLength="26" x="335" y="236.918">urls</text><text fill="#000000" font-family="sans-serif" font-size="14" lengthAdjust="spacing" textLength="0" x="505" y="236.918"/><line style="stroke:#A80036;stroke-width:1.0;" x1="488" x2="488" y1="221.3828" y2="241.8711"/><line style="stroke:#A80036;stroke-width:1.0;" x1="330" x2="621" y1="241.8711" y2="241.8711"/><text fill="#000000" font-family="sans-serif" font-size="14" lengthAdjust="spacing" textLength="148" x="335" y="257.4063">dataManagementPlan</text><text fill="#000000" font-family="sans-serif" font-size="14" lengthAdjust="spacing" textLength="0" x="505" y="257.4063"/><line style="stroke:#A80036;stroke-width:1.0;" x1="488" x2="488" y1="241.8711" y2="262.3594"/><line style="stroke:#A80036;stroke-width:1.0;" x1="330" x2="621" y1="262.3594" y2="262.3594"/><text fill="#000000" font-family="sans-serif" font-size="14" lengthAdjust="spacing" textLength="57" x="335" y="277.8945">endDate</text><text fill="#000000" font-family="sans-serif" font-size="14" lengthAdjust="spacing" textLength="88" x="493" y="277.8945">2022-01-01</text><line style="stroke:#A80036;stroke-width:1.0;" x1="488" x2="488" y1="262.3594" y2="282.8477"/><line style="stroke:#A80036;stroke-width:1.0;" x1="330" x2="621" y1="282.8477" y2="282.8477"/><text fill="#000000" font-family="sans-serif" font-size="14" lengthAdjust="spacing" textLength="84" x="335" y="298.3828">publications</text><text fill="#000000" font-family="sans-serif" font-size="14" lengthAdjust="spacing" textLength="0" x="505" y="298.3828"/><line style="stroke:#A80036;stroke-width:1.0;" x1="488" x2="488" y1="282.8477" y2="303.3359"/><line style="stroke:#A80036;stroke-width:1.0;" x1="330" x2="621" y1="303.3359" y2="303.3359"/><text fill="#000000" font-family="sans-serif" font-size="14" lengthAdjust="spacing" textLength="44" x="335" y="318.8711">grants</text><text fill="#000000" font-family="sans-serif" font-size="14" lengthAdjust="spacing" textLength="0" x="505" y="318.8711"/><line style="stroke:#A80036;stroke-width:1.0;" x1="488" x2="488" y1="303.3359" y2="323.8242"/><line style="stroke:#A80036;stroke-width:1.0;" x1="330" x2="621" y1="323.8242" y2="323.8242"/><text fill="#000000" font-family="sans-serif" font-size="14" lengthAdjust="spacing" textLength="107" x="335" y="339.3594">alternateNames</text><text fill="#000000" font-family="sans-serif" font-size="14" lengthAdjust="spacing" textLength="0" x="505" y="339.3594"/><line style="stroke:#A80036;stroke-width:1.0;" x1="488" x2="488" y1="323.8242" y2="344.3125"/><rect fill="none" height="327.8125" rx="5" ry="5" style="stroke:#A80036;stroke-width:1.5;" width="291" x="330" y="16.5"/><rect fill="#FEFECE" height="40.9766" rx="5" ry="5" style="stroke:#FEFECE;stroke-width:1.5;" width="486" x="722.5" y="10"/><text fill="#000000" font-family="sans-serif" font-size="14" lengthAdjust="spacing" textLength="17" x="727.5" y="25.5352">de</text><text fill="#000000" font-family="sans-serif" font-size="14" lengthAdjust="spacing" textLength="449" x="754.5" y="25.5352">Dies ist ein einfaches Beipiel-Projekt zu Dokumentationszwecken.</text><line style="stroke:#A80036;stroke-width:1.0;" x1="749.5" x2="749.5" y1="10" y2="30.4883"/><line style="stroke:#A80036;stroke-width:1.0;" x1="722.5" x2="1208.5" y1="30.4883" y2="30.4883"/><text fill="#000000" font-family="sans-serif" font-size="14" lengthAdjust="spacing" textLength="17" x="727.5" y="46.0234">en</text><text fill="#000000" font-family="sans-serif" font-size="14" lengthAdjust="spacing" textLength="424" x="754.5" y="46.0234">This is a simple example project for documentation purposes.</text><line style="stroke:#A80036;stroke-width:1.0;" x1="749.5" x2="749.5" y1="30.4883" y2="50.9766"/><rect fill="none" height="40.9766" rx="5" ry="5" style="stroke:#A80036;stroke-width:1.5;" width="486" x="722.5" y="10"/><rect fill="#FEFECE" height="20.4883" rx="5" ry="5" style="stroke:#FEFECE;stroke-width:1.5;" width="22" x="953.5" y="69.5"/><text fill="#000000" font-family="sans-serif" font-size="14" lengthAdjust="spacing" textLength="0" x="970.5" y="85.0352"/><rect fill="none" height="20.4883" rx="5" ry="5" style="stroke:#A80036;stroke-width:1.5;" width="22" x="953.5" y="69.5"/><rect fill="#FEFECE" height="40.9766" rx="5" ry="5" style="stroke:#FEFECE;stroke-width:1.5;" width="111" x="1406.5" y="59"/><text fill="#000000" font-family="sans-serif" font-size="14" lengthAdjust="spacing" textLength="17" x="1411.5" y="74.5352">en</text><text fill="#000000" font-family="sans-serif" font-size="14" lengthAdjust="spacing" textLength="47" x="1438.5" y="74.5352">history</text><line style="stroke:#A80036;stroke-width:1.0;" x1="1433.5" x2="1433.5" y1="59" y2="79.4883"/><line style="stroke:#A80036;stroke-width:1.0;" x1="1406.5" x2="1517.5" y1="79.4883" y2="79.4883"/><text fill="#000000" font-family="sans-serif" font-size="14" lengthAdjust="spacing" textLength="17" x="1411.5" y="95.0234">de</text><text fill="#000000" font-family="sans-serif" font-size="14" lengthAdjust="spacing" textLength="74" x="1438.5" y="95.0234">Geschichte</text><line style="stroke:#A80036;stroke-width:1.0;" x1="1433.5" x2="1433.5" y1="79.4883" y2="99.9766"/><rect fill="none" height="40.9766" rx="5" ry="5" style="stroke:#A80036;stroke-width:1.5;" width="111" x="1406.5" y="59"/><rect fill="#FEFECE" height="20.4883" rx="5" ry="5" style="stroke:#FEFECE;stroke-width:1.5;" width="222" x="854.5" y="107.5"/><text fill="#000000" font-family="sans-serif" font-size="14" lengthAdjust="spacing" textLength="212" x="859.5" y="123.0352">http://skos.um.es/unesco6/11</text><rect fill="none" height="20.4883" rx="5" ry="5" style="stroke:#A80036;stroke-width:1.5;" width="222" x="854.5" y="107.5"/><rect fill="#FEFECE" height="20.4883" rx="5" ry="5" style="stroke:#FEFECE;stroke-width:1.5;" width="377" x="777" y="145.5"/><text fill="#000000" font-family="sans-serif" font-size="14" lengthAdjust="spacing" textLength="367" x="782" y="161.0352">http://chronontology.dainst.org/period/Ef9SyESSafJ1</text><rect fill="none" height="20.4883" rx="5" ry="5" style="stroke:#A80036;stroke-width:1.5;" width="377" x="777" y="145.5"/><rect fill="#FEFECE" height="20.4883" rx="5" ry="5" style="stroke:#FEFECE;stroke-width:1.5;" width="360" x="785.5" y="183.5"/><text fill="#000000" font-family="sans-serif" font-size="14" lengthAdjust="spacing" textLength="350" x="790.5" y="199.0352">https://www.geonames.org/6255148/europe.html</text><rect fill="none" height="20.4883" rx="5" ry="5" style="stroke:#A80036;stroke-width:1.5;" width="360" x="785.5" y="183.5"/><rect fill="#FEFECE" height="20.4883" rx="5" ry="5" style="stroke:#FEFECE;stroke-width:1.5;" width="235" x="848" y="221.5"/><text fill="#000000" font-family="sans-serif" font-size="14" lengthAdjust="spacing" textLength="225" x="853" y="237.0352">https://dasch.swiss/someproject</text><rect fill="none" height="20.4883" rx="5" ry="5" style="stroke:#A80036;stroke-width:1.5;" width="235" x="848" y="221.5"/><rect fill="#FEFECE" height="40.9766" rx="5" ry="5" style="stroke:#FEFECE;stroke-width:1.5;" width="343" x="794" y="260"/><text fill="#000000" font-family="sans-serif" font-size="14" lengthAdjust="spacing" textLength="60" x="799" y="275.5352">available</text><text fill="#000000" font-family="sans-serif" font-size="14" lengthAdjust="spacing" textLength="44" x="869" y="275.5352">☑ true</text><line style="stroke:#A80036;stroke-width:1.0;" x1="864" x2="864" y1="260" y2="280.4883"/><line style="stroke:#A80036;stroke-width:1.0;" x1="794" x2="1137" y1="280.4883" y2="280.4883"/><text fill="#000000" font-family="sans-serif" font-size="14" lengthAdjust="spacing" textLength="19" x="799" y="296.0234">url</text><text fill="#000000" font-family="sans-serif" font-size="14" lengthAdjust="spacing" textLength="263" x="869" y="296.0234">https://dasch.swiss/someproject/dmp</text><line style="stroke:#A80036;stroke-width:1.0;" x1="864" x2="864" y1="280.4883" y2="300.9766"/><rect fill="none" height="40.9766" rx="5" ry="5" style="stroke:#A80036;stroke-width:1.5;" width="343" x="794" y="260"/><rect fill="#FEFECE" height="20.4883" rx="5" ry="5" style="stroke:#FEFECE;stroke-width:1.5;" width="615" x="658" y="319.5"/><text fill="#000000" font-family="sans-serif" font-size="14" lengthAdjust="spacing" textLength="605" x="663" y="335.0352">Doe, J. (2020): Some publication. In: Journal for sample publications. Vol. 100.1, p. 1-32.</text><rect fill="none" height="20.4883" rx="5" ry="5" style="stroke:#A80036;stroke-width:1.5;" width="615" x="658" y="319.5"/><rect fill="#FEFECE" height="20.4883" rx="5" ry="5" style="stroke:#FEFECE;stroke-width:1.5;" width="82" x="924.5" y="357.5"/><text fill="#000000" font-family="sans-serif" font-size="14" lengthAdjust="spacing" textLength="72" x="929.5" y="373.0352">grant-001</text><rect fill="none" height="20.4883" rx="5" ry="5" style="stroke:#A80036;stroke-width:1.5;" width="82" x="924.5" y="357.5"/><rect fill="#FEFECE" height="20.4883" rx="5" ry="5" style="stroke:#FEFECE;stroke-width:1.5;" width="22" x="953.5" y="395.5"/><text fill="#000000" font-family="sans-serif" font-size="14" lengthAdjust="spacing" textLength="0" x="970.5" y="411.0352"/><rect fill="none" height="20.4883" rx="5" ry="5" style="stroke:#A80036;stroke-width:1.5;" width="22" x="953.5" y="395.5"/><rect fill="#FEFECE" height="40.9766" rx="5" ry="5" style="stroke:#FEFECE;stroke-width:1.5;" width="138" x="1393" y="384"/><text fill="#000000" font-family="sans-serif" font-size="14" lengthAdjust="spacing" textLength="17" x="1398" y="399.5352">de</text><text fill="#000000" font-family="sans-serif" font-size="14" lengthAdjust="spacing" textLength="101" x="1425" y="399.5352">Beispielprojekt</text><line style="stroke:#A80036;stroke-width:1.0;" x1="1420" x2="1420" y1="384" y2="404.4883"/><line style="stroke:#A80036;stroke-width:1.0;" x1="1393" x2="1531" y1="404.4883" y2="404.4883"/><text fill="#000000" font-family="sans-serif" font-size="14" lengthAdjust="spacing" textLength="17" x="1398" y="420.0234">en</text><text fill="#000000" font-family="sans-serif" font-size="14" lengthAdjust="spacing" textLength="101" x="1425" y="420.0234">Sample Project</text><line style="stroke:#A80036;stroke-width:1.0;" x1="1420" x2="1420" y1="404.4883" y2="424.9766"/><rect fill="none" height="40.9766" rx="5" ry="5" style="stroke:#A80036;stroke-width:1.5;" width="138" x="1393" y="384"/><rect fill="#FEFECE" height="15" rx="5" ry="5" style="stroke:#FEFECE;stroke-width:1.5;" width="30" x="463.5" y="419.5"/><rect fill="none" height="15" rx="5" ry="5" style="stroke:#A80036;stroke-width:1.5;" width="30" x="463.5" y="419.5"/><rect fill="#FEFECE" height="15" rx="5" ry="5" style="stroke:#FEFECE;stroke-width:1.5;" width="30" x="463.5" y="453.5"/><rect fill="none" height="15" rx="5" ry="5" style="stroke:#A80036;stroke-width:1.5;" width="30" x="463.5" y="453.5"/><rect fill="#FEFECE" height="20.4883" rx="5" ry="5" style="stroke:#FEFECE;stroke-width:1.5;" width="22" x="463.5" y="487.5"/><text fill="#000000" font-family="sans-serif" font-size="14" lengthAdjust="spacing" textLength="0" x="480.5" y="503.0352"/><rect fill="none" height="20.4883" rx="5" ry="5" style="stroke:#A80036;stroke-width:1.5;" width="22" x="463.5" y="487.5"/><rect fill="#FEFECE" height="122.9297" rx="5" ry="5" style="stroke:#FEFECE;stroke-width:1.5;" width="207" x="862" y="436"/><text fill="#000000" font-family="sans-serif" font-size="14" lengthAdjust="spacing" textLength="25" x="867" y="451.5352">@id</text><text fill="#000000" font-family="sans-serif" font-size="14" lengthAdjust="spacing" textLength="123" x="931" y="451.5352">organization-001</text><line style="stroke:#A80036;stroke-width:1.0;" x1="926" x2="926" y1="436" y2="456.4883"/><line style="stroke:#A80036;stroke-width:1.0;" x1="862" x2="1069" y1="456.4883" y2="456.4883"/><text fill="#000000" font-family="sans-serif" font-size="14" lengthAdjust="spacing" textLength="41" x="867" y="472.0234">@type</text><text fill="#000000" font-family="sans-serif" font-size="14" lengthAdjust="spacing" textLength="90" x="931" y="472.0234">Organization</text><line style="stroke:#A80036;stroke-width:1.0;" x1="926" x2="926" y1="456.4883" y2="476.9766"/><line style="stroke:#A80036;stroke-width:1.0;" x1="862" x2="1069" y1="476.9766" y2="476.9766"/><text fill="#000000" font-family="sans-serif" font-size="14" lengthAdjust="spacing" textLength="45" x="867" y="492.5117">names</text><text fill="#000000" font-family="sans-serif" font-size="14" lengthAdjust="spacing" textLength="0" x="943" y="492.5117"/><line style="stroke:#A80036;stroke-width:1.0;" x1="926" x2="926" y1="476.9766" y2="497.4648"/><line style="stroke:#A80036;stroke-width:1.0;" x1="862" x2="1069" y1="497.4648" y2="497.4648"/><text fill="#000000" font-family="sans-serif" font-size="14" lengthAdjust="spacing" textLength="19" x="867" y="513">url</text><text fill="#000000" font-family="sans-serif" font-size="14" lengthAdjust="spacing" textLength="133" x="931" y="513">https://dasch.swiss</text><line style="stroke:#A80036;stroke-width:1.0;" x1="926" x2="926" y1="497.4648" y2="517.9531"/><line style="stroke:#A80036;stroke-width:1.0;" x1="862" x2="1069" y1="517.9531" y2="517.9531"/><text fill="#000000" font-family="sans-serif" font-size="14" lengthAdjust="spacing" textLength="37" x="867" y="533.4883">email</text><text fill="#000000" font-family="sans-serif" font-size="14" lengthAdjust="spacing" textLength="119" x="931" y="533.4883">info@dasch.swiss</text><line style="stroke:#A80036;stroke-width:1.0;" x1="926" x2="926" y1="517.9531" y2="538.4414"/><line style="stroke:#A80036;stroke-width:1.0;" x1="862" x2="1069" y1="538.4414" y2="538.4414"/><text fill="#000000" font-family="sans-serif" font-size="14" lengthAdjust="spacing" textLength="54" x="867" y="553.9766">address</text><text fill="#000000" font-family="sans-serif" font-size="14" lengthAdjust="spacing" textLength="0" x="943" y="553.9766"/><line style="stroke:#A80036;stroke-width:1.0;" x1="926" x2="926" y1="538.4414" y2="558.9297"/><rect fill="none" height="122.9297" rx="5" ry="5" style="stroke:#A80036;stroke-width:1.5;" width="207" x="862" y="436"/><rect fill="#FEFECE" height="40.9766" rx="5" ry="5" style="stroke:#FEFECE;stroke-width:1.5;" width="304" x="1310" y="443"/><text fill="#000000" font-family="sans-serif" font-size="14" lengthAdjust="spacing" textLength="46" x="1315" y="458.5352">DaSCH</text><line style="stroke:#A80036;stroke-width:1.0;" x1="1310" x2="1614" y1="463.4883" y2="463.4883"/><text fill="#000000" font-family="sans-serif" font-size="14" lengthAdjust="spacing" textLength="294" x="1315" y="479.0234">Data and Service Center for the Humanities</text><rect fill="none" height="40.9766" rx="5" ry="5" style="stroke:#A80036;stroke-width:1.5;" width="304" x="1310" y="443"/><rect fill="#FEFECE" height="102.4414" rx="5" ry="5" style="stroke:#FEFECE;stroke-width:1.5;" width="202" x="1361" y="502.5"/><text fill="#000000" font-family="sans-serif" font-size="14" lengthAdjust="spacing" textLength="39" x="1366" y="518.0352">street</text><text fill="#000000" font-family="sans-serif" font-size="14" lengthAdjust="spacing" textLength="104" x="1454" y="518.0352">Petersgraben 1</text><line style="stroke:#A80036;stroke-width:1.0;" x1="1449" x2="1449" y1="502.5" y2="522.9883"/><line style="stroke:#A80036;stroke-width:1.0;" x1="1361" x2="1563" y1="522.9883" y2="522.9883"/><text fill="#000000" font-family="sans-serif" font-size="14" lengthAdjust="spacing" textLength="69" x="1366" y="538.5234">additional</text><text fill="#000000" font-family="sans-serif" font-size="14" lengthAdjust="spacing" textLength="58" x="1454" y="538.5234">Postfach</text><line style="stroke:#A80036;stroke-width:1.0;" x1="1449" x2="1449" y1="522.9883" y2="543.4766"/><line style="stroke:#A80036;stroke-width:1.0;" x1="1361" x2="1563" y1="543.4766" y2="543.4766"/><text fill="#000000" font-family="sans-serif" font-size="14" lengthAdjust="spacing" textLength="78" x="1366" y="559.0117">postalCode</text><text fill="#000000" font-family="sans-serif" font-size="14" lengthAdjust="spacing" textLength="36" x="1454" y="559.0117">4000</text><line style="stroke:#A80036;stroke-width:1.0;" x1="1449" x2="1449" y1="543.4766" y2="563.9648"/><line style="stroke:#A80036;stroke-width:1.0;" x1="1361" x2="1563" y1="563.9648" y2="563.9648"/><text fill="#000000" font-family="sans-serif" font-size="14" lengthAdjust="spacing" textLength="48" x="1366" y="579.5">locality</text><text fill="#000000" font-family="sans-serif" font-size="14" lengthAdjust="spacing" textLength="35" x="1454" y="579.5">Basel</text><line style="stroke:#A80036;stroke-width:1.0;" x1="1449" x2="1449" y1="563.9648" y2="584.4531"/><line style="stroke:#A80036;stroke-width:1.0;" x1="1361" x2="1563" y1="584.4531" y2="584.4531"/><text fill="#000000" font-family="sans-serif" font-size="14" lengthAdjust="spacing" textLength="52" x="1366" y="599.9883">country</text><text fill="#000000" font-family="sans-serif" font-size="14" lengthAdjust="spacing" textLength="80" x="1454" y="599.9883">Switzerland</text><line style="stroke:#A80036;stroke-width:1.0;" x1="1449" x2="1449" y1="584.4531" y2="604.9414"/><rect fill="none" height="102.4414" rx="5" ry="5" style="stroke:#A80036;stroke-width:1.5;" width="202" x="1361" y="502.5"/><rect fill="#FEFECE" height="20.4883" rx="5" ry="5" style="stroke:#FEFECE;stroke-width:1.5;" width="22" x="463.5" y="577.5"/><text fill="#000000" font-family="sans-serif" font-size="14" lengthAdjust="spacing" textLength="0" x="480.5" y="593.0352"/><rect fill="none" height="20.4883" rx="5" ry="5" style="stroke:#A80036;stroke-width:1.5;" width="22" x="463.5" y="577.5"/><rect fill="#FEFECE" height="122.9297" rx="5" ry="5" style="stroke:#FEFECE;stroke-width:1.5;" width="348" x="791.5" y="578"/><text fill="#000000" font-family="sans-serif" font-size="14" lengthAdjust="spacing" textLength="25" x="796.5" y="593.5352">@id</text><text fill="#000000" font-family="sans-serif" font-size="14" lengthAdjust="spacing" textLength="72" x="860.5" y="593.5352">grant-001</text><line style="stroke:#A80036;stroke-width:1.0;" x1="855.5" x2="855.5" y1="578" y2="598.4883"/><line style="stroke:#A80036;stroke-width:1.0;" x1="791.5" x2="1139.5" y1="598.4883" y2="598.4883"/><text fill="#000000" font-family="sans-serif" font-size="14" lengthAdjust="spacing" textLength="41" x="796.5" y="614.0234">@type</text><text fill="#000000" font-family="sans-serif" font-size="14" lengthAdjust="spacing" textLength="38" x="860.5" y="614.0234">Grant</text><line style="stroke:#A80036;stroke-width:1.0;" x1="855.5" x2="855.5" y1="598.4883" y2="618.9766"/><line style="stroke:#A80036;stroke-width:1.0;" x1="791.5" x2="1139.5" y1="618.9766" y2="618.9766"/><text fill="#000000" font-family="sans-serif" font-size="14" lengthAdjust="spacing" textLength="53" x="796.5" y="634.5117">funders</text><text fill="#000000" font-family="sans-serif" font-size="14" lengthAdjust="spacing" textLength="0" x="872.5" y="634.5117"/><line style="stroke:#A80036;stroke-width:1.0;" x1="855.5" x2="855.5" y1="618.9766" y2="639.4648"/><line style="stroke:#A80036;stroke-width:1.0;" x1="791.5" x2="1139.5" y1="639.4648" y2="639.4648"/><text fill="#000000" font-family="sans-serif" font-size="14" lengthAdjust="spacing" textLength="54" x="796.5" y="655">number</text><text fill="#000000" font-family="sans-serif" font-size="14" lengthAdjust="spacing" textLength="83" x="860.5" y="655">ABCD00001</text><line style="stroke:#A80036;stroke-width:1.0;" x1="855.5" x2="855.5" y1="639.4648" y2="659.9531"/><line style="stroke:#A80036;stroke-width:1.0;" x1="791.5" x2="1139.5" y1="659.9531" y2="659.9531"/><text fill="#000000" font-family="sans-serif" font-size="14" lengthAdjust="spacing" textLength="38" x="796.5" y="675.4883">name</text><text fill="#000000" font-family="sans-serif" font-size="14" lengthAdjust="spacing" textLength="70" x="860.5" y="675.4883">Eccellenca</text><line style="stroke:#A80036;stroke-width:1.0;" x1="855.5" x2="855.5" y1="659.9531" y2="680.4414"/><line style="stroke:#A80036;stroke-width:1.0;" x1="791.5" x2="1139.5" y1="680.4414" y2="680.4414"/><text fill="#000000" font-family="sans-serif" font-size="14" lengthAdjust="spacing" textLength="19" x="796.5" y="695.9766">url</text><text fill="#000000" font-family="sans-serif" font-size="14" lengthAdjust="spacing" textLength="274" x="860.5" y="695.9766">https://www.grants.ch/grant/abcd0001</text><line style="stroke:#A80036;stroke-width:1.0;" x1="855.5" x2="855.5" y1="680.4414" y2="700.9297"/><rect fill="none" height="122.9297" rx="5" ry="5" style="stroke:#A80036;stroke-width:1.5;" width="348" x="791.5" y="578"/><rect fill="#FEFECE" height="20.4883" rx="5" ry="5" style="stroke:#FEFECE;stroke-width:1.5;" width="133" x="1395.5" y="622.5"/><text fill="#000000" font-family="sans-serif" font-size="14" lengthAdjust="spacing" textLength="123" x="1400.5" y="638.0352">organization-001</text><rect fill="none" height="20.4883" rx="5" ry="5" style="stroke:#A80036;stroke-width:1.5;" width="133" x="1395.5" y="622.5"/><path d="M609,108.5 L622,108.5 C648.6667,108.5 634.7575,73.5728 658,60.5 C675.8754,50.4459 695.2731,42.7286 715.3375,36.8739 " fill="none" style="stroke:#A80036;stroke-width:1.0;stroke-dasharray:3.0,3.0;"/><path d="M716.167,39.8421 L717.5637,36.2518 L714.5081,33.9056 L722.7582,34.8002 L716.167,39.8421 " fill="#A80036" style="stroke:#A80036;stroke-width:1.0;"/><ellipse cx="609" cy="108.5" fill="#A80036" rx="3" ry="3" style="stroke:#A80036;stroke-width:1.0;stroke-dasharray:3.0,3.0;"/><path d="M965.2484,79.5 L978.2484,79.5 C1035.9231,79.5 1282.5063,79.5 1399.468,79.5 " fill="none" style="stroke:#A80036;stroke-width:1.0;stroke-dasharray:3.0,3.0;"/><path d="M1399.468,82.5053 L1401.7219,79.5 L1399.468,76.4947 L1406.9812,79.5 L1399.468,82.5053 " fill="#A80036" style="stroke:#A80036;stroke-width:1.0;"/><ellipse cx="965.2484" cy="79.5" fill="#A80036" rx="3" ry="3" style="stroke:#A80036;stroke-width:1.0;stroke-dasharray:3.0,3.0;"/><path d="M609,149.5 L622,149.5 C649.7449,149.5 633.7719,112.0195 658,98.5 C754.5174,44.6423 895.6454,65.4532 946.1564,75.3985 " fill="none" style="stroke:#A80036;stroke-width:1.0;stroke-dasharray:3.0,3.0;"/><path d="M945.5383,78.4265 L948.4274,75.862 L946.7745,72.3705 L953.7264,76.9437 L945.5383,78.4265 " fill="#A80036" style="stroke:#A80036;stroke-width:1.0;"/><ellipse cx="609" cy="149.5" fill="#A80036" rx="3" ry="3" style="stroke:#A80036;stroke-width:1.0;stroke-dasharray:3.0,3.0;"/><path d="M609,169.5 L622,169.5 C643.7051,169.5 638.0242,144.9899 658,136.5 C722.922,108.9075 802.5881,104.7322 864.4949,107.1539 " fill="none" style="stroke:#A80036;stroke-width:1.0;stroke-dasharray:3.0,3.0;"/><path d="M864.3567,110.2912 L866.8479,107.2576 L864.6332,104.0166 L872.3382,107.4995 L864.3567,110.2912 " fill="#A80036" style="stroke:#A80036;stroke-width:1.0;"/><ellipse cx="609" cy="169.5" fill="#A80036" rx="3" ry="3" style="stroke:#A80036;stroke-width:1.0;stroke-dasharray:3.0,3.0;"/><path d="M609,190.5 L622,190.5 C639.5091,190.5 640.9928,178.6622 658,174.5 C693.4715,165.8189 731.8993,160.4199 769.1726,157.1691 " fill="none" style="stroke:#A80036;stroke-width:1.0;stroke-dasharray:3.0,3.0;"/><path d="M769.4372,160.343 L771.553,156.9706 L768.908,153.9952 L777.1073,156.5076 L769.4372,160.343 " fill="#A80036" style="stroke:#A80036;stroke-width:1.0;"/><ellipse cx="609" cy="190.5" fill="#A80036" rx="3" ry="3" style="stroke:#A80036;stroke-width:1.0;stroke-dasharray:3.0,3.0;"/><path d="M609,211.5 L622,211.5 C689.902,211.5 765.2614,207.9386 828.0092,203.9841 " fill="none" style="stroke:#A80036;stroke-width:1.0;stroke-dasharray:3.0,3.0;"/><path d="M828.2028,207.0194 L830.2857,203.8389 L827.8156,200.9488 L835.5976,203.5001 L828.2028,207.0194 " fill="#A80036" style="stroke:#A80036;stroke-width:1.0;"/><ellipse cx="609" cy="211.5" fill="#A80036" rx="3" ry="3" style="stroke:#A80036;stroke-width:1.0;stroke-dasharray:3.0,3.0;"/><path d="M609,231.5 L622,231.5 C694.3865,231.5 775.3659,231.5 840.4566,231.5 " fill="none" style="stroke:#A80036;stroke-width:1.0;stroke-dasharray:3.0,3.0;"/><path d="M840.4566,234.643 L842.8139,231.5 L840.4566,228.357 L848.3141,231.5 L840.4566,234.643 " fill="#A80036" style="stroke:#A80036;stroke-width:1.0;"/><ellipse cx="609" cy="231.5" fill="#A80036" rx="3" ry="3" style="stroke:#A80036;stroke-width:1.0;stroke-dasharray:3.0,3.0;"/><path d="M609,252.5 L622,252.5 C675.5293,252.5 733.6023,255.9295 786.4823,260.3881 " fill="none" style="stroke:#A80036;stroke-width:1.0;stroke-dasharray:3.0,3.0;"/><path d="M786.2163,263.4933 L788.8112,260.5876 L786.7483,257.2828 L794.2454,261.0531 L786.2163,263.4933 " fill="#A80036" style="stroke:#A80036;stroke-width:1.0;"/><ellipse cx="609" cy="252.5" fill="#A80036" rx="3" ry="3" style="stroke:#A80036;stroke-width:1.0;stroke-dasharray:3.0,3.0;"/><path d="M609,293.5 L622,293.5 C639.5091,293.5 640.9996,305.3102 658,309.5 C671.6902,312.874 685.8214,315.7649 700.1572,318.2363 " fill="none" style="stroke:#A80036;stroke-width:1.0;stroke-dasharray:3.0,3.0;"/><path d="M699.6554,321.2419 L702.4114,318.6126 L700.659,315.2307 L707.6712,319.4908 L699.6554,321.2419 " fill="#A80036" style="stroke:#A80036;stroke-width:1.0;"/><ellipse cx="609" cy="293.5" fill="#A80036" rx="3" ry="3" style="stroke:#A80036;stroke-width:1.0;stroke-dasharray:3.0,3.0;"/><path d="M609,313.5 L622,313.5 C644.3154,313.5 637.5929,339.4708 658,348.5 C743.1155,386.1599 854.639,381.3463 917.1563,374.4376 " fill="none" style="stroke:#A80036;stroke-width:1.0;stroke-dasharray:3.0,3.0;"/><path d="M917.5143,377.5363 L919.4804,374.1691 L916.7984,371.3389 L924.9031,373.5428 L917.5143,377.5363 " fill="#A80036" style="stroke:#A80036;stroke-width:1.0;"/><ellipse cx="609" cy="313.5" fill="#A80036" rx="3" ry="3" style="stroke:#A80036;stroke-width:1.0;stroke-dasharray:3.0,3.0;"/><path d="M965.2484,405.5015 L978.2484,405.4753 C1033.7357,405.3633 1264.0739,404.8984 1385.6181,404.6531 " fill="none" style="stroke:#A80036;stroke-width:1.0;stroke-dasharray:3.0,3.0;"/><path d="M1385.6244,407.7914 L1387.9718,404.6484 L1385.6118,401.5149 L1393.4637,404.6373 L1385.6244,407.7914 " fill="#A80036" style="stroke:#A80036;stroke-width:1.0;"/><ellipse cx="965.2484" cy="405.5015" fill="#A80036" rx="3" ry="3" style="stroke:#A80036;stroke-width:1.0;stroke-dasharray:3.0,3.0;"/><path d="M609,334.5 L622,334.5 C650.1091,334.5 633.5165,372.6912 658,386.5 C754.4912,440.9214 896.1978,419.6182 946.4751,409.5809 " fill="none" style="stroke:#A80036;stroke-width:1.0;stroke-dasharray:3.0,3.0;"/><path d="M947.0977,412.5902 L948.732,409.114 L945.8524,406.5717 L953.9983,408.0244 L947.0977,412.5902 " fill="#A80036" style="stroke:#A80036;stroke-width:1.0;"/><ellipse cx="609" cy="334.5" fill="#A80036" rx="3" ry="3" style="stroke:#A80036;stroke-width:1.0;stroke-dasharray:3.0,3.0;"/><path d="M281,420.5 L294,420.5 C317.778,420.5 347.5618,390.0907 376.063,350.9209 " fill="none" style="stroke:#A80036;stroke-width:1.0;stroke-dasharray:3.0,3.0;"/><path d="M378.6063,352.7458 L377.4316,349.0134 L373.5196,349.0961 L380.6251,344.5625 L378.6063,352.7458 " fill="#A80036" style="stroke:#A80036;stroke-width:1.0;"/><ellipse cx="281" cy="420.5" fill="#A80036" rx="3" ry="3" style="stroke:#A80036;stroke-width:1.0;stroke-dasharray:3.0,3.0;"/><path d="M281,440.5 L294,440.5 C353.2483,440.5 423.1261,433.4844 456.0419,429.7607 " fill="none" style="stroke:#A80036;stroke-width:1.0;stroke-dasharray:3.0,3.0;"/><path d="M456.3897,432.778 L458.3049,429.4999 L455.6941,426.7435 L463.585,428.8912 L456.3897,432.778 " fill="#A80036" style="stroke:#A80036;stroke-width:1.0;"/><ellipse cx="281" cy="440.5" fill="#A80036" rx="3" ry="3" style="stroke:#A80036;stroke-width:1.0;stroke-dasharray:3.0,3.0;"/><path d="M281,461.5 L294,461.5 C353.1341,461.5 423.1354,461.5 456.0734,461.5 " fill="none" style="stroke:#A80036;stroke-width:1.0;stroke-dasharray:3.0,3.0;"/><path d="M456.0734,464.6632 L458.4458,461.5 L456.0734,458.3368 L463.9815,461.5 L456.0734,464.6632 " fill="#A80036" style="stroke:#A80036;stroke-width:1.0;"/><ellipse cx="281" cy="461.5" fill="#A80036" rx="3" ry="3" style="stroke:#A80036;stroke-width:1.0;stroke-dasharray:3.0,3.0;"/><path d="M1058,486.5 L1071,486.5 C1147.3367,486.5 1231.9224,482.0658 1302.7962,477.0914 " fill="none" style="stroke:#A80036;stroke-width:1.0;stroke-dasharray:3.0,3.0;"/><path d="M1303.0145,480.168 L1305.1037,476.9276 L1302.5779,474.0147 L1310.4879,476.5456 L1303.0145,480.168 " fill="#A80036" style="stroke:#A80036;stroke-width:1.0;"/><ellipse cx="1058" cy="486.5" fill="#A80036" rx="3" ry="3" style="stroke:#A80036;stroke-width:1.0;stroke-dasharray:3.0,3.0;"/><path d="M1058,548.5 L1071,548.5 C1166.3745,548.5 1274.8412,550.0097 1353.2149,551.3699 " fill="none" style="stroke:#A80036;stroke-width:1.0;stroke-dasharray:3.0,3.0;"/><path d="M1353.1591,554.5566 L1355.6049,551.4118 L1353.2707,548.1833 L1361.1815,551.5095 L1353.1591,554.5566 " fill="#A80036" style="stroke:#A80036;stroke-width:1.0;"/><ellipse cx="1058" cy="548.5" fill="#A80036" rx="3" ry="3" style="stroke:#A80036;stroke-width:1.0;stroke-dasharray:3.0,3.0;"/><path d="M475.0877,497.5 L488.0877,497.5 C537.8237,497.5 729.9098,497.5 854.608,497.5 " fill="none" style="stroke:#A80036;stroke-width:1.0;stroke-dasharray:3.0,3.0;"/><path d="M854.608,500.5968 L856.9305,497.5 L854.608,494.4032 L862.3499,497.5 L854.608,500.5968 " fill="#A80036" style="stroke:#A80036;stroke-width:1.0;"/><ellipse cx="475.0877" cy="497.5" fill="#A80036" rx="3" ry="3" style="stroke:#A80036;stroke-width:1.0;stroke-dasharray:3.0,3.0;"/><path d="M281,482.5 L294,482.5 C353.2986,482.5 423.1529,490.595 456.0526,494.8915 " fill="none" style="stroke:#A80036;stroke-width:1.0;stroke-dasharray:3.0,3.0;"/><path d="M455.6513,497.9072 L458.3143,495.1925 L456.4539,491.8758 L463.5918,495.8947 L455.6513,497.9072 " fill="#A80036" style="stroke:#A80036;stroke-width:1.0;"/><ellipse cx="281" cy="482.5" fill="#A80036" rx="3" ry="3" style="stroke:#A80036;stroke-width:1.0;stroke-dasharray:3.0,3.0;"/><path d="M1128,628.5 L1141,628.5 C1225.7547,628.5 1323.1069,629.9159 1388.0659,631.0629 " fill="none" style="stroke:#A80036;stroke-width:1.0;stroke-dasharray:3.0,3.0;"/><path d="M1388.0105,634.1662 L1390.3933,631.1044 L1388.1212,627.9596 L1395.8241,631.2013 L1388.0105,634.1662 " fill="#A80036" style="stroke:#A80036;stroke-width:1.0;"/><ellipse cx="1128" cy="628.5" fill="#A80036" rx="3" ry="3" style="stroke:#A80036;stroke-width:1.0;stroke-dasharray:3.0,3.0;"/><path d="M475.1606,587.4107 L488.0877,588.7854 C529.1393,593.1508 667.1693,607.8288 784.2398,620.2781 " fill="none" style="stroke:#A80036;stroke-width:1.0;stroke-dasharray:3.0,3.0;"/><path d="M783.9132,623.3499 L786.5437,620.5231 L784.5665,617.2062 L791.9195,621.0947 L783.9132,623.3499 " fill="#A80036" style="stroke:#A80036;stroke-width:1.0;"/><ellipse cx="475.1606" cy="587.4107" fill="#A80036" rx="3" ry="3" style="stroke:#A80036;stroke-width:1.0;stroke-dasharray:3.0,3.0;"/><path d="M281,502.5 L294,502.5 C302.8608,502.5 412.7348,556.5751 456.8473,578.4639 " fill="none" style="stroke:#A80036;stroke-width:1.0;stroke-dasharray:3.0,3.0;"/><path d="M455.4637,581.2492 L458.9363,579.5016 L458.2309,575.6786 L463.8106,581.9229 L455.4637,581.2492 " fill="#A80036" style="stroke:#A80036;stroke-width:1.0;"/><ellipse cx="281" cy="502.5" fill="#A80036" rx="3" ry="3" style="stroke:#A80036;stroke-width:1.0;stroke-dasharray:3.0,3.0;"/><!--MD5=[a59055969662a38dcc6102e172673152]
@startjson API-Example

{
  "$schema": "./schema-metadata.json",
  "project": {
    "@id": "0000-project",
    "@type": "Project",
    "name": "Test Project Name",
    "shortcode": "0000",
    "description": {
      "de": "Dies ist ein einfaches Beipiel-Projekt zu Dokumentationszwecken.",
      "en": "This is a simple example project for documentation purposes."
    },
    "startDate": "2021-01-01",
    "keywords": [
      {
        "en": "history",
        "de": "Geschichte"
      }
    ],
    "disciplines": [
      "http://skos.um.es/unesco6/11"
    ],
    "temporalCoverage": [
      "http://chronontology.dainst.org/period/Ef9SyESSafJ1"
    ],
    "spatialCoverage": [
      "https://www.geonames.org/6255148/europe.html"
    ],
    "urls": [
      "https://dasch.swiss/someproject"
    ],
    "dataManagementPlan": {
      "available": true,
      "url": "https://dasch.swiss/someproject/dmp"
    },
    "endDate": "2022-01-01",
    "publications": [
      "Doe, J. (2020): Some publication. In: Journal for sample publications. Vol. 100.1, p. 1-32."
    ],
    "grants": [
      "grant-001"
    ],
    "alternateNames": [
      {
        "de": "Beispielprojekt",
        "en": "Sample Project"
      }
    ]
  },
  "datasets": [],
  "persons": [],
  "organizations": [
    {
      "@id": "organization-001",
      "@type": "Organization",
      "names": [
        "DaSCH",
        "Data and Service Center for the Humanities"
      ],
      "url": "https://dasch.swiss",
      "email": "info@dasch.swiss",
      "address": {
        "street": "Petersgraben 1",
        "additional": "Postfach",
        "postalCode": "4000",
        "locality": "Basel",
        "country": "Switzerland"
      }
    }
  ],
  "grants": [
    {
      "@id": "grant-001",
      "@type": "Grant",
      "funders": [
        "organization-001"
      ],
      "number": "ABCD00001",
      "name": "Eccellenca",
      "url": "https://www.grants.ch/grant/abcd0001"
    }
  ]
}


@endjson

PlantUML version 1.2021.2(Sun Mar 07 12:10:27 CET 2021)
(GPL source distribution)
Java Runtime: OpenJDK Runtime Environment
JVM: OpenJDK 64-Bit Server VM
Default Encoding: UTF-8
Language: en
Country: GB
--></g></svg>