<?xml version="1.0" encoding="UTF-8" standalone="no"?><svg xmlns="http://www.w3.org/2000/svg" xmlns:xlink="http://www.w3.org/1999/xlink" contentScriptType="application/ecmascript" contentStyleType="text/css" height="709px" preserveAspectRatio="none" style="width:1626px;height:709px;" version="1.1" viewBox="0 0 1626 709" width="1626px" zoomAndPan="magnify"><defs/><g><rect fill="#FEFECE" height="122.9297" rx="5" ry="5" style="stroke:#FEFECE;stroke-width:1.5;" width="283" x="10" y="388"/><text fill="#000000" font-family="sans-serif" font-size="14" lengthAdjust="spacing" textLength="61" x="15" y="403.5352">$schema</text><text fill="#000000" font-family="sans-serif" font-size="14" lengthAdjust="spacing" textLength="168" x="120" y="403.5352">./schema-metadata.json</text><line style="stroke:#A80036;stroke-width:1.0;" x1="115" x2="115" y1="388" y2="408.4883"/><line style="stroke:#A80036;stroke-width:1.0;" x1="10" x2="293" y1="408.4883" y2="408.4883"/><text fill="#000000" font-family="sans-serif" font-size="14" lengthAdjust="spacing" textLength="48" x="15" y="424.0234">project</text><text fill="#000000" font-family="sans-serif" font-size="14" lengthAdjust="spacing" textLength="0" x="132" y="424.0234"/><line style="stroke:#A80036;stroke-width:1.0;" x1="115" x2="115" y1="408.4883" y2="428.9766"/><line style="stroke:#A80036;stroke-width:1.0;" x1="10" x2="293" y1="428.9766" y2="428.9766"/><text fill="#000000" font-family="sans-serif" font-size="14" lengthAdjust="spacing" textLength="57" x="15" y="444.5117">datasets</text><text fill="#000000" font-family="sans-serif" font-size="14" lengthAdjust="spacing" textLength="0" x="132" y="444.5117"/><line style="stroke:#A80036;stroke-width:1.0;" x1="115" x2="115" y1="428.9766" y2="449.4648"/><line style="stroke:#A80036;stroke-width:1.0;" x1="10" x2="293" y1="449.4648" y2="449.4648"/><text fill="#000000" font-family="sans-serif" font-size="14" lengthAdjust="spacing" textLength="55" x="15" y="465">persons</text><text fill="#000000" font-family="sans-serif" font-size="14" lengthAdjust="spacing" textLength="0" x="132" y="465"/><line style="stroke:#A80036;stroke-width:1.0;" x1="115" x2="115" y1="449.4648" y2="469.9531"/><line style="stroke:#A80036;stroke-width:1.0;" x1="10" x2="293" y1="469.9531" y2="469.9531"/><text fill="#000000" font-family="sans-serif" font-size="14" lengthAdjust="spacing" textLength="95" x="15" y="485.4883">organizations</text><text fill="#000000" font-family="sans-serif" font-size="14" lengthAdjust="spacing" textLength="0" x="132" y="485.4883"/><line style="stroke:#A80036;stroke-width:1.0;" x1="115" x2="115" y1="469.9531" y2="490.4414"/><line style="stroke:#A80036;stroke-width:1.0;" x1="10" x2="293" y1="490.4414" y2="490.4414"/><text fill="#000000" font-family="sans-serif" font-size="14" lengthAdjust="spacing" textLength="44" x="15" y="505.9766">grants</text><text fill="#000000" font-family="sans-serif" font-size="14" lengthAdjust="spacing" textLength="0" x="132" y="505.9766"/><line style="stroke:#A80036;stroke-width:1.0;" x1="115" x2="115" y1="490.4414" y2="510.9297"/><rect fill="none" height="122.9297" rx="5" ry="5" style="stroke:#A80036;stroke-width:1.5;" width="283" x="10" y="388"/><rect fill="#FEFECE" height="327.8125" rx="5" ry="5" style="stroke:#FEFECE;stroke-width:1.5;" width="291" x="330" y="16.5"/><text fill="#000000" font-family="sans-serif" font-size="14" lengthAdjust="spacing" textLength="25" x="335" y="32.0352">@id</text><text fill="#000000" font-family="sans-serif" font-size="14" lengthAdjust="spacing" textLength="92" x="493" y="32.0352">0000-project</text><line style="stroke:#A80036;stroke-width:1.0;" x1="488" x2="488" y1="16.5" y2="36.9883"/><line style="stroke:#A80036;stroke-width:1.0;" x1="330" x2="621" y1="36.9883" y2="36.9883"/><text fill="#000000" font-family="sans-serif" font-size="14" lengthAdjust="spacing" textLength="41" x="335" y="52.5234">@type</text><text fill="#000000" font-family="sans-serif" font-size="14" lengthAdjust="spacing" textLength="47" x="493" y="52.5234">Project</text><line style="stroke:#A80036;stroke-width:1.0;" x1="488" x2="488" y1="36.9883" y2="57.4766"/><line style="stroke:#A80036;stroke-width:1.0;" x1="330" x2="621" y1="57.4766" y2="57.4766"/><text fill="#000000" font-family="sans-serif" font-size="14" lengthAdjust="spacing" textLength="38" x="335" y="73.0117">name</text><text fill="#000000" font-family="sans-serif" font-size="14" lengthAdjust="spacing" textLength="123" x="493" y="73.0117">Test Project Name</text><line style="stroke:#A80036;stroke-width:1.0;" x1="488" x2="488" y1="57.4766" y2="77.9648"/><line style="stroke:#A80036;stroke-width:1.0;" x1="330" x2="621" y1="77.9648" y2="77.9648"/><text fill="#000000" font-family="sans-serif" font-size="14" lengthAdjust="spacing" textLength="69" x="335" y="93.5">shortcode</text><text fill="#000000" font-family="sans-serif" font-size="14" lengthAdjust="spacing" textLength="36" x="493" y="93.5">0000</text><line style="stroke:#A80036;stroke-width:1.0;" x1="488" x2="488" y1="77.9648" y2="98.4531"/><line style="stroke:#A80036;stroke-width:1.0;" x1="330" x2="621" y1="98.4531" y2="98.4531"/><text fill="#000000" font-family="sans-serif" font-size="14" lengthAdjust="spacing" textLength="77" x="335" y="113.9883">description</text><text fill="#000000" font-family="sans-serif" font-size="14" lengthAdjust="spacing" textLength="0" x="505" y="113.9883"/><line style="stroke:#A80036;stroke-width:1.0;" x1="488" x2="488" y1="98.4531" y2="118.9414"/><line style="stroke:#A80036;stroke-width:1.0;" x1="330" x2="621" y1="118.9414" y2="118.9414"/><text fill="#000000" font-family="sans-serif" font-size="14" lengthAdjust="spacing" textLength="62" x="335" y="134.4766">startDate</text><text fill="#000000" font-family="sans-serif" font-size="14" lengthAdjust="spacing" textLength="88" x="493" y="134.4766">2021-01-01</text><line style="stroke:#A80036;stroke-width:1.0;" x1="488" x2="488" y1="118.9414" y2="139.4297"/><line style="stroke:#A80036;stroke-width:1.0;" x1="330" x2="621" y1="139.4297" y2="139.4297"/><text fill="#000000" font-family="sans-serif" font-size="14" lengthAdjust="spacing" textLength="65" x="335" y="154.9648">keywords</text><text fill="#000000" font-family="sans-serif" font-size="14" lengthAdjust="spacing" textLength="0" x="505" y="154.9648"/><line style="stroke:#A80036;stroke-width:1.0;" x1="488" x2="488" y1="139.4297" y2="159.918"/><line style="stroke:#A80036;stroke-width:1.0;" x1="330" x2="621" y1="159.918" y2="159.918"/><text fill="#000000" font-family="sans-serif" font-size="14" lengthAdjust="spacing" textLength="72" x="335" y="175.4531">disciplines</text><text fill="#000000" font-family="sans-serif" font-size="14" lengthAdjust="spacing" textLength="0" x="505" y="175.4531"/><line style="stroke:#A80036;stroke-width:1.0;" x1="488" x2="488" y1="159.918" y2="180.4063"/><line style="stroke:#A80036;stroke-width:1.0;" x1="330" x2="621" y1="180.4063" y2="180.4063"/><text fill="#000000" font-family="sans-serif" font-size="14" lengthAdjust="spacing" textLength="127" x="335" y="195.9414">temporalCoverage</text><text fill="#000000" font-family="sans-serif" font-size="14" lengthAdjust="spacing" textLength="0" x="505" y="195.9414"/><line style="stroke:#A80036;stroke-width:1.0;" x1="488" x2="488" y1="180.4063" y2="200.8945"/><line style="stroke:#A80036;stroke-width:1.0;" x1="330" x2="621" y1="200.8945" y2="200.8945"/><text fill="#000000" font-family="sans-serif" font-size="14" lengthAdjust="spacing" textLength="110" x="335" y="216.4297">spatialCoverage</text><text fill="#000000" font-family="sans-serif" font-size="14" lengthAdjust="spacing" textLength="0" x="505" y="216.4297"/><line style="stroke:#A80036;stroke-width:1.0;" x1="488" x2="488" y1="200.8945" y2="221.3828"/><line style="stroke:#A80036;stroke-width:1.0;" x1="330" x2="621" y1="221.3828" y2="221.3828"/><text fill="#000000" font-family="sans-serif" font-size="14" lengthAdjust="spacing" textLength="26" x="335" y="236.918">urls</text><text fill="#000000" font-family="sans-serif" font-size="14" lengthAdjust="spacing" textLength="0" x="505" y="236.918"/><line style="stroke:#A80036;stroke-width:1.0;" x1="488" x2="488" y1="221.3828" y2="241.8711"/><line style="stroke:#A80036;stroke-width:1.0;" x1="330" x2="621" y1="241.8711" y2="241.8711"/><text fill="#000000" font-family="sans-serif" font-size="14" lengthAdjust="spacing" textLength="148" x="335" y="257.4063">dataManagementPlan</text><text fill="#000000" font-family="sans-serif" font-size="14" lengthAdjust="spacing" textLength="0" x="505" y="257.4063"/><line style="stroke:#A80036;stroke-width:1.0;" x1="488" x2="488" y1="241.8711" y2="262.3594"/><line style="stroke:#A80036;stroke-width:1.0;" x1="330" x2="621" y1="262.3594" y2="262.3594"/><text fill="#000000" font-family="sans-serif" font-size="14" lengthAdjust="spacing" textLength="57" x="335" y="277.8945">endDate</text><text fill="#000000" font-family="sans-serif" font-size="14" lengthAdjust="spacing" textLength="88" x="493" y="277.8945">2022-01-01</text><line style="stroke:#A80036;stroke-width:1.0;" x1="488" x2="488" y1="262.3594" y2="282.8477"/><line style="stroke:#A80036;stroke-width:1.0;" x1="330" x2="621" y1="282.8477" y2="282.8477"/><text fill="#000000" font-family="sans-serif" font-size="14" lengthAdjust="spacing" textLength="84" x="335" y="298.3828">publications</text><text fill="#000000" font-family="sans-serif" font-size="14" lengthAdjust="spacing" textLength="0" x="505" y="298.3828"/><line style="stroke:#A80036;stroke-width:1.0;" x1="488" x2="488" y1="282.8477" y2="303.3359"/><line style="stroke:#A80036;stroke-width:1.0;" x1="330" x2="621" y1="303.3359" y2="303.3359"/><text fill="#000000" font-family="sans-serif" font-size="14" lengthAdjust="spacing" textLength="44" x="335" y="318.8711">grants</text><text fill="#000000" font-family="sans-serif" font-size="14" lengthAdjust="spacing" textLength="0" x="505" y="318.8711"/><line style="stroke:#A80036;stroke-width:1.0;" x1="488" x2="488" y1="303.3359" y2="323.8242"/><line style="stroke:#A80036;stroke-width:1.0;" x1="330" x2="621" y1="323.8242" y2="323.8242"/><text fill="#000000" font-family="sans-serif" font-size="14" lengthAdjust="spacing" textLength="107" x="335" y="339.3594">alternateNames</text><text fill="#000000" font-family="sans-serif" font-size="14" lengthAdjust="spacing" textLength="0" x="505" y="339.3594"/><line style="stroke:#A80036;stroke-width:1.0;" x1="488" x2="488" y1="323.8242" y2="344.3125"/><rect fill="none" height="327.8125" rx="5" ry="5" style="stroke:#A80036;stroke-width:1.5;" width="291" x="330" y="16.5"/><rect fill="#FEFECE" height="40.9766" rx="5" ry="5" style="stroke:#FEFECE;stroke-width:1.5;" width="486" x="722.5" y="10"/><text fill="#000000" font-family="sans-serif" font-size="14" lengthAdjust="spacing" textLength="17" x="727.5" y="25.5352">de</text><text fill="#000000" font-family="sans-serif" font-size="14" lengthAdjust="spacing" textLength="449" x="754.5" y="25.5352">Dies ist ein einfaches Beipiel-Projekt zu Dokumentationszwecken.</text><line style="stroke:#A80036;stroke-width:1.0;" x1="749.5" x2="749.5" y1="10" y2="30.4883"/><line style="stroke:#A80036;stroke-width:1.0;" x1="722.5" x2="1208.5" y1="30.4883" y2="30.4883"/><text fill="#000000" font-family="sans-serif" font-size="14" lengthAdjust="spacing" textLength="17" x="727.5" y="46.0234">en</text><text fill="#000000" font-family="sans-serif" font-size="14" lengthAdjust="spacing" textLength="424" x="754.5" y="46.0234">This is a simple example project for documentation purposes.</text><line style="stroke:#A80036;stroke-width:1.0;" x1="749.5" x2="749.5" y1="30.4883" y2="50.9766"/><rect fill="none" height="40.9766" rx="5" ry="5" style="stroke:#A80036;stroke-width:1.5;" width="486" x="722.5" y="10"/><rect fill="#FEFECE" height="20.4883" rx="5" ry="5" style="stroke:#FEFECE;stroke-width:1.5;" width="22" x="953.5" y="69.5"/><text fill="#000000" font-family="sans-serif" font-size="14" lengthAdjust="spacing" textLength="0" x="970.5" y="85.0352"/><rect fill="none" height="20.4883" rx="5" ry="5" style="stroke:#A80036;stroke-width:1.5;" width="22" x="953.5" y="69.5"/><rect fill="#FEFECE" height="40.9766" rx="5" ry="5" style="stroke:#FEFECE;stroke-width:1.5;" width="111" x="1406.5" y="59"/><text fill="#000000" font-family="sans-serif" font-size="14" lengthAdjust="spacing" textLength="17" x="1411.5" y="74.5352">en</text><text fill="#000000" font-family="sans-serif" font-size="14" lengthAdjust="spacing" textLength="47" x="1438.5" y="74.5352">history</text><line style="stroke:#A80036;stroke-width:1.0;" x1="1433.5" x2="1433.5" y1="59" y2="79.4883"/><line style="stroke:#A80036;stroke-width:1.0;" x1="1406.5" x2="1517.5" y1="79.4883" y2="79.4883"/><text fill="#000000" font-family="sans-serif" font-size="14" lengthAdjust="spacing" textLength="17" x="1411.5" y="95.0234">de</text><text fill="#000000" font-family="sans-serif" font-size="14" lengthAdjust="spacing" textLength="74" x="1438.5" y="95.0234">Geschichte</text><line style="stroke:#A80036;stroke-width:1.0;" x1="1433.5" x2="1433.5" y1="79.4883" y2="99.9766"/><rect fill="none" height="40.9766" rx="5" ry="5" style="stroke:#A80036;stroke-width:1.5;" width="111" x="1406.5" y="59"/><rect fill="#FEFECE" height="20.4883" rx="5" ry="5" style="stroke:#FEFECE;stroke-width:1.5;" width="222" x="854.5" y="107.5"/><text fill="#000000" font-family="sans-serif" font-size="14" lengthAdjust="spacing" textLength="212" x="859.5" y="123.0352">http://skos.um.es/unesco6/11</text><rect fill="none" height="20.4883" rx="5" ry="5" style="stroke:#A80036;stroke-width:1.5;" width="222" x="854.5" y="107.5"/><rect fill="#FEFECE" height="20.4883" rx="5" ry="5" style="stroke:#FEFECE;stroke-width:1.5;" width="377" x="777" y="145.5"/><text fill="#000000" font-family="sans-serif" font-size="14" lengthAdjust="spacing" textLength="367" x="782" y="161.0352">http://chronontology.dainst.org/period/Ef9SyESSafJ1</text><rect fill="none" height="20.4883" rx="5" ry="5" style="stroke:#A80036;stroke-width:1.5;" width="377" x="777" y="145.5"/><rect fill="#FEFECE" height="20.4883" rx="5" ry="5" style="stroke:#FEFECE;stroke-width:1.5;" width="360" x="785.5" y="183.5"/><text fill="#000000" font-family="sans-serif" font-size="14" lengthAdjust="spacing" textLength="350" x="790.5" y="199.0352">https://www.geonames.org/6255148/europe.html</text><rect fill="none" height="20.4883" rx="5" ry="5" style="stroke:#A80036;stroke-width:1.5;" width="360" x="785.5" y="183.5"/><rect fill="#FEFECE" height="20.4883" rx="5" ry="5" style="stroke:#FEFECE;stroke-width:1.5;" width="235" x="848" y="221.5"/><text fill="#000000" font-family="sans-serif" font-size="14" lengthAdjust="spacing" textLength="225" x="853" y="237.0352">https://dasch.swiss/someproject</text><rect fill="none" height="20.4883" rx="5" ry="5" style="stroke:#A80036;stroke-width:1.5;" width="235" x="848" y="221.5"/><rect fill="#FEFECE" height="40.9766" rx="5" ry="5" style="stroke:#FEFECE;stroke-width:1.5;" width="343" x="794" y="260"/><text fill="#000000" font-family="sans-serif" font-size="14" lengthAdjust="spacing" textLength="60" x="799" y="275.5352">available</text><text fill="#000000" font-family="sans-serif" font-size="14" lengthAdjust="spacing" textLength="44" x="869" y="275.5352">☑ true</text><line style="stroke:#A80036;stroke-width:1.0;" x1="864" x2="864" y1="260" y2="280.4883"/><line style="stroke:#A80036;stroke-width:1.0;" x1="794" x2="1137" y1="280.4883" y2="280.4883"/><text fill="#000000" font-family="sans-serif" font-size="14" lengthAdjust="spacing" textLength="19" x="799" y="296.0234">url</text><text fill="#000000" font-family="sans-serif" font-size="14" lengthAdjust="spacing" textLength="263" x="869" y="296.0234">https://dasch.swiss/someproject/dmp</text><line style="stroke:#A80036;stroke-width:1.0;" x1="864" x2="864" y1="280.4883" y2="300.9766"/><rect fill="none" height="40.9766" rx="5" ry="5" style="stroke:#A80036;stroke-width:1.5;" width="343" x="794" y="260"/><rect fill="#FEFECE" height="20.4883" rx="5" ry="5" style="stroke:#FEFECE;stroke-width:1.5;" width="615" x="658" y="319.5"/><text fill="#000000" font-family="sans-serif" font-size="14" lengthAdjust="spacing" textLength="605" x="663" y="335.0352">Doe, J. (2020): Some publication. In: Journal for sample publications. Vol. 100.1, p. 1-32.</text><rect fill="none" height="20.4883" rx="5" ry="5" style="stroke:#A80036;stroke-width:1.5;" width="615" x="658" y="319.5"/><rect fill="#FEFECE" height="20.4883" rx="5" ry="5" style="stroke:#FEFECE;stroke-width:1.5;" width="82" x="924.5" y="357.5"/><text fill="#000000" font-family="sans-serif" font-size="14" lengthAdjust="spacing" textLength="72" x="929.5" y="373.0352">grant-001</text><rect fill="none" height="20.4883" rx="5" ry="5" style="stroke:#A80036;stroke-width:1.5;" width="82" x="924.5" y="357.5"/><rect fill="#FEFECE" height="20.4883" rx="5" ry="5" style="stroke:#FEFECE;stroke-width:1.5;" width="22" x="953.5" y="395.5"/><text fill="#000000" font-family="sans-serif" font-size="14" lengthAdjust="spacing" textLength="0" x="970.5" y="411.0352"/><rect fill="none" height="20.4883" rx="5" ry="5" style="stroke:#A80036;stroke-width:1.5;" width="22" x="953.5" y="395.5"/><rect fill="#FEFECE" height="40.9766" rx="5" ry="5" style="stroke:#FEFECE;stroke-width:1.5;" width="138" x="1393" y="385"/><text fill="#000000" font-family="sans-serif" font-size="14" lengthAdjust="spacing" textLength="17" x="1398" y="400.5352">de</text><text fill="#000000" font-family="sans-serif" font-size="14" lengthAdjust="spacing" textLength="101" x="1425" y="400.5352">Beispielprojekt</text><line style="stroke:#A80036;stroke-width:1.0;" x1="1420" x2="1420" y1="385" y2="405.4883"/><line style="stroke:#A80036;stroke-width:1.0;" x1="1393" x2="1531" y1="405.4883" y2="405.4883"/><text fill="#000000" font-family="sans-serif" font-size="14" lengthAdjust="spacing" textLength="17" x="1398" y="421.0234">en</text><text fill="#000000" font-family="sans-serif" font-size="14" lengthAdjust="spacing" textLength="101" x="1425" y="421.0234">Sample Project</text><line style="stroke:#A80036;stroke-width:1.0;" x1="1420" x2="1420" y1="405.4883" y2="425.9766"/><rect fill="none" height="40.9766" rx="5" ry="5" style="stroke:#A80036;stroke-width:1.5;" width="138" x="1393" y="385"/><rect fill="#FEFECE" height="15" rx="5" ry="5" style="stroke:#FEFECE;stroke-width:1.5;" width="30" x="463.5" y="417.5"/><rect fill="none" height="15" rx="5" ry="5" style="stroke:#A80036;stroke-width:1.5;" width="30" x="463.5" y="417.5"/><rect fill="#FEFECE" height="15" rx="5" ry="5" style="stroke:#FEFECE;stroke-width:1.5;" width="30" x="463.5" y="451.5"/><rect fill="none" height="15" rx="5" ry="5" style="stroke:#A80036;stroke-width:1.5;" width="30" x="463.5" y="451.5"/><rect fill="#FEFECE" height="20.4883" rx="5" ry="5" style="stroke:#FEFECE;stroke-width:1.5;" width="22" x="463.5" y="485.5"/><text fill="#000000" font-family="sans-serif" font-size="14" lengthAdjust="spacing" textLength="0" x="480.5" y="501.0352"/><rect fill="none" height="20.4883" rx="5" ry="5" style="stroke:#A80036;stroke-width:1.5;" width="22" x="463.5" y="485.5"/><rect fill="#FEFECE" height="122.9297" rx="5" ry="5" style="stroke:#FEFECE;stroke-width:1.5;" width="207" x="862" y="434"/><text fill="#000000" font-family="sans-serif" font-size="14" lengthAdjust="spacing" textLength="25" x="867" y="449.5352">@id</text><text fill="#000000" font-family="sans-serif" font-size="14" lengthAdjust="spacing" textLength="123" x="931" y="449.5352">organization-001</text><line style="stroke:#A80036;stroke-width:1.0;" x1="926" x2="926" y1="434" y2="454.4883"/><line style="stroke:#A80036;stroke-width:1.0;" x1="862" x2="1069" y1="454.4883" y2="454.4883"/><text fill="#000000" font-family="sans-serif" font-size="14" lengthAdjust="spacing" textLength="41" x="867" y="470.0234">@type</text><text fill="#000000" font-family="sans-serif" font-size="14" lengthAdjust="spacing" textLength="90" x="931" y="470.0234">Organization</text><line style="stroke:#A80036;stroke-width:1.0;" x1="926" x2="926" y1="454.4883" y2="474.9766"/><line style="stroke:#A80036;stroke-width:1.0;" x1="862" x2="1069" y1="474.9766" y2="474.9766"/><text fill="#000000" font-family="sans-serif" font-size="14" lengthAdjust="spacing" textLength="45" x="867" y="490.5117">names</text><text fill="#000000" font-family="sans-serif" font-size="14" lengthAdjust="spacing" textLength="0" x="943" y="490.5117"/><line style="stroke:#A80036;stroke-width:1.0;" x1="926" x2="926" y1="474.9766" y2="495.4648"/><line style="stroke:#A80036;stroke-width:1.0;" x1="862" x2="1069" y1="495.4648" y2="495.4648"/><text fill="#000000" font-family="sans-serif" font-size="14" lengthAdjust="spacing" textLength="19" x="867" y="511">url</text><text fill="#000000" font-family="sans-serif" font-size="14" lengthAdjust="spacing" textLength="133" x="931" y="511">https://dasch.swiss</text><line style="stroke:#A80036;stroke-width:1.0;" x1="926" x2="926" y1="495.4648" y2="515.9531"/><line style="stroke:#A80036;stroke-width:1.0;" x1="862" x2="1069" y1="515.9531" y2="515.9531"/><text fill="#000000" font-family="sans-serif" font-size="14" lengthAdjust="spacing" textLength="37" x="867" y="531.4883">email</text><text fill="#000000" font-family="sans-serif" font-size="14" lengthAdjust="spacing" textLength="119" x="931" y="531.4883">info@dasch.swiss</text><line style="stroke:#A80036;stroke-width:1.0;" x1="926" x2="926" y1="515.9531" y2="536.4414"/><line style="stroke:#A80036;stroke-width:1.0;" x1="862" x2="1069" y1="536.4414" y2="536.4414"/><text fill="#000000" font-family="sans-serif" font-size="14" lengthAdjust="spacing" textLength="54" x="867" y="551.9766">address</text><text fill="#000000" font-family="sans-serif" font-size="14" lengthAdjust="spacing" textLength="0" x="943" y="551.9766"/><line style="stroke:#A80036;stroke-width:1.0;" x1="926" x2="926" y1="536.4414" y2="556.9297"/><rect fill="none" height="122.9297" rx="5" ry="5" style="stroke:#A80036;stroke-width:1.5;" width="207" x="862" y="434"/><rect fill="#FEFECE" height="40.9766" rx="5" ry="5" style="stroke:#FEFECE;stroke-width:1.5;" width="304" x="1310" y="464"/><text fill="#000000" font-family="sans-serif" font-size="14" lengthAdjust="spacing" textLength="46" x="1315" y="479.5352">DaSCH</text><line style="stroke:#A80036;stroke-width:1.0;" x1="1310" x2="1614" y1="484.4883" y2="484.4883"/><text fill="#000000" font-family="sans-serif" font-size="14" lengthAdjust="spacing" textLength="294" x="1315" y="500.0234">Data and Service Center for the Humanities</text><rect fill="none" height="40.9766" rx="5" ry="5" style="stroke:#A80036;stroke-width:1.5;" width="304" x="1310" y="464"/><rect fill="#FEFECE" height="15" rx="5" ry="5" style="stroke:#FEFECE;stroke-width:1.5;" width="30" x="1450" y="538.5"/><rect fill="none" height="15" rx="5" ry="5" style="stroke:#A80036;stroke-width:1.5;" width="30" x="1450" y="538.5"/><rect fill="#FEFECE" height="20.4883" rx="5" ry="5" style="stroke:#FEFECE;stroke-width:1.5;" width="22" x="463.5" y="574.5"/><text fill="#000000" font-family="sans-serif" font-size="14" lengthAdjust="spacing" textLength="0" x="480.5" y="590.0352"/><rect fill="none" height="20.4883" rx="5" ry="5" style="stroke:#A80036;stroke-width:1.5;" width="22" x="463.5" y="574.5"/><rect fill="#FEFECE" height="122.9297" rx="5" ry="5" style="stroke:#FEFECE;stroke-width:1.5;" width="348" x="791.5" y="575"/><text fill="#000000" font-family="sans-serif" font-size="14" lengthAdjust="spacing" textLength="25" x="796.5" y="590.5352">@id</text><text fill="#000000" font-family="sans-serif" font-size="14" lengthAdjust="spacing" textLength="72" x="860.5" y="590.5352">grant-001</text><line style="stroke:#A80036;stroke-width:1.0;" x1="855.5" x2="855.5" y1="575" y2="595.4883"/><line style="stroke:#A80036;stroke-width:1.0;" x1="791.5" x2="1139.5" y1="595.4883" y2="595.4883"/><text fill="#000000" font-family="sans-serif" font-size="14" lengthAdjust="spacing" textLength="41" x="796.5" y="611.0234">@type</text><text fill="#000000" font-family="sans-serif" font-size="14" lengthAdjust="spacing" textLength="38" x="860.5" y="611.0234">Grant</text><line style="stroke:#A80036;stroke-width:1.0;" x1="855.5" x2="855.5" y1="595.4883" y2="615.9766"/><line style="stroke:#A80036;stroke-width:1.0;" x1="791.5" x2="1139.5" y1="615.9766" y2="615.9766"/><text fill="#000000" font-family="sans-serif" font-size="14" lengthAdjust="spacing" textLength="53" x="796.5" y="631.5117">funders</text><text fill="#000000" font-family="sans-serif" font-size="14" lengthAdjust="spacing" textLength="0" x="872.5" y="631.5117"/><line style="stroke:#A80036;stroke-width:1.0;" x1="855.5" x2="855.5" y1="615.9766" y2="636.4648"/><line style="stroke:#A80036;stroke-width:1.0;" x1="791.5" x2="1139.5" y1="636.4648" y2="636.4648"/><text fill="#000000" font-family="sans-serif" font-size="14" lengthAdjust="spacing" textLength="54" x="796.5" y="652">number</text><text fill="#000000" font-family="sans-serif" font-size="14" lengthAdjust="spacing" textLength="83" x="860.5" y="652">ABCD00001</text><line style="stroke:#A80036;stroke-width:1.0;" x1="855.5" x2="855.5" y1="636.4648" y2="656.9531"/><line style="stroke:#A80036;stroke-width:1.0;" x1="791.5" x2="1139.5" y1="656.9531" y2="656.9531"/><text fill="#000000" font-family="sans-serif" font-size="14" lengthAdjust="spacing" textLength="38" x="796.5" y="672.4883">name</text><text fill="#000000" font-family="sans-serif" font-size="14" lengthAdjust="spacing" textLength="70" x="860.5" y="672.4883">Eccellenca</text><line style="stroke:#A80036;stroke-width:1.0;" x1="855.5" x2="855.5" y1="656.9531" y2="677.4414"/><line style="stroke:#A80036;stroke-width:1.0;" x1="791.5" x2="1139.5" y1="677.4414" y2="677.4414"/><text fill="#000000" font-family="sans-serif" font-size="14" lengthAdjust="spacing" textLength="19" x="796.5" y="692.9766">url</text><text fill="#000000" font-family="sans-serif" font-size="14" lengthAdjust="spacing" textLength="274" x="860.5" y="692.9766">https://www.grants.ch/grant/abcd0001</text><line style="stroke:#A80036;stroke-width:1.0;" x1="855.5" x2="855.5" y1="677.4414" y2="697.9297"/><rect fill="none" height="122.9297" rx="5" ry="5" style="stroke:#A80036;stroke-width:1.5;" width="348" x="791.5" y="575"/><rect fill="#FEFECE" height="20.4883" rx="5" ry="5" style="stroke:#FEFECE;stroke-width:1.5;" width="133" x="1395.5" y="615.5"/><text fill="#000000" font-family="sans-serif" font-size="14" lengthAdjust="spacing" textLength="123" x="1400.5" y="631.0352">organization-001</text><rect fill="none" height="20.4883" rx="5" ry="5" style="stroke:#A80036;stroke-width:1.5;" width="133" x="1395.5" y="615.5"/><path d="M609,108.5 L622,108.5 C648.6667,108.5 634.7575,73.5728 658,60.5 C675.8754,50.4459 695.2731,42.7286 715.3375,36.8739 " fill="none" style="stroke:#A80036;stroke-width:1.0;stroke-dasharray:3.0,3.0;"/><path d="M716.167,39.8421 L717.5637,36.2518 L714.5081,33.9056 L722.7582,34.8002 L716.167,39.8421 " fill="#A80036" style="stroke:#A80036;stroke-width:1.0;"/><ellipse cx="609" cy="108.5" fill="#A80036" rx="3" ry="3" style="stroke:#A80036;stroke-width:1.0;stroke-dasharray:3.0,3.0;"/><path d="M965.2484,79.5 L978.2484,79.5 C1035.9231,79.5 1282.5063,79.5 1399.468,79.5 " fill="none" style="stroke:#A80036;stroke-width:1.0;stroke-dasharray:3.0,3.0;"/><path d="M1399.468,82.5053 L1401.7219,79.5 L1399.468,76.4947 L1406.9812,79.5 L1399.468,82.5053 " fill="#A80036" style="stroke:#A80036;stroke-width:1.0;"/><ellipse cx="965.2484" cy="79.5" fill="#A80036" rx="3" ry="3" style="stroke:#A80036;stroke-width:1.0;stroke-dasharray:3.0,3.0;"/><path d="M609,149.5 L622,149.5 C649.7449,149.5 633.7719,112.0195 658,98.5 C754.5174,44.6423 895.6454,65.4532 946.1564,75.3985 " fill="none" style="stroke:#A80036;stroke-width:1.0;stroke-dasharray:3.0,3.0;"/><path d="M945.5383,78.4265 L948.4274,75.862 L946.7745,72.3705 L953.7264,76.9437 L945.5383,78.4265 " fill="#A80036" style="stroke:#A80036;stroke-width:1.0;"/><ellipse cx="609" cy="149.5" fill="#A80036" rx="3" ry="3" style="stroke:#A80036;stroke-width:1.0;stroke-dasharray:3.0,3.0;"/><path d="M609,169.5 L622,169.5 C643.7051,169.5 638.0242,144.9899 658,136.5 C722.922,108.9075 802.5881,104.7322 864.4949,107.1539 " fill="none" style="stroke:#A80036;stroke-width:1.0;stroke-dasharray:3.0,3.0;"/><path d="M864.3567,110.2912 L866.8479,107.2576 L864.6332,104.0166 L872.3382,107.4995 L864.3567,110.2912 " fill="#A80036" style="stroke:#A80036;stroke-width:1.0;"/><ellipse cx="609" cy="169.5" fill="#A80036" rx="3" ry="3" style="stroke:#A80036;stroke-width:1.0;stroke-dasharray:3.0,3.0;"/><path d="M609,190.5 L622,190.5 C639.5091,190.5 640.9928,178.6622 658,174.5 C693.4715,165.8189 731.8993,160.4199 769.1726,157.1691 " fill="none" style="stroke:#A80036;stroke-width:1.0;stroke-dasharray:3.0,3.0;"/><path d="M769.4372,160.343 L771.553,156.9706 L768.908,153.9952 L777.1073,156.5076 L769.4372,160.343 " fill="#A80036" style="stroke:#A80036;stroke-width:1.0;"/><ellipse cx="609" cy="190.5" fill="#A80036" rx="3" ry="3" style="stroke:#A80036;stroke-width:1.0;stroke-dasharray:3.0,3.0;"/><path d="M609,211.5 L622,211.5 C689.902,211.5 765.2614,207.9386 828.0092,203.9841 " fill="none" style="stroke:#A80036;stroke-width:1.0;stroke-dasharray:3.0,3.0;"/><path d="M828.2028,207.0194 L830.2857,203.8389 L827.8156,200.9488 L835.5976,203.5001 L828.2028,207.0194 " fill="#A80036" style="stroke:#A80036;stroke-width:1.0;"/><ellipse cx="609" cy="211.5" fill="#A80036" rx="3" ry="3" style="stroke:#A80036;stroke-width:1.0;stroke-dasharray:3.0,3.0;"/><path d="M609,231.5 L622,231.5 C694.3865,231.5 775.3659,231.5 840.4566,231.5 " fill="none" style="stroke:#A80036;stroke-width:1.0;stroke-dasharray:3.0,3.0;"/><path d="M840.4566,234.643 L842.8139,231.5 L840.4566,228.357 L848.3141,231.5 L840.4566,234.643 " fill="#A80036" style="stroke:#A80036;stroke-width:1.0;"/><ellipse cx="609" cy="231.5" fill="#A80036" rx="3" ry="3" style="stroke:#A80036;stroke-width:1.0;stroke-dasharray:3.0,3.0;"/><path d="M609,252.5 L622,252.5 C675.5293,252.5 733.6023,255.9295 786.4823,260.3881 " fill="none" style="stroke:#A80036;stroke-width:1.0;stroke-dasharray:3.0,3.0;"/><path d="M786.2163,263.4933 L788.8112,260.5876 L786.7483,257.2828 L794.2454,261.0531 L786.2163,263.4933 " fill="#A80036" style="stroke:#A80036;stroke-width:1.0;"/><ellipse cx="609" cy="252.5" fill="#A80036" rx="3" ry="3" style="stroke:#A80036;stroke-width:1.0;stroke-dasharray:3.0,3.0;"/><path d="M609,293.5 L622,293.5 C639.5091,293.5 640.9996,305.3102 658,309.5 C671.6902,312.874 685.8214,315.7649 700.1572,318.2363 " fill="none" style="stroke:#A80036;stroke-width:1.0;stroke-dasharray:3.0,3.0;"/><path d="M699.6554,321.2419 L702.4114,318.6126 L700.659,315.2307 L707.6712,319.4908 L699.6554,321.2419 " fill="#A80036" style="stroke:#A80036;stroke-width:1.0;"/><ellipse cx="609" cy="293.5" fill="#A80036" rx="3" ry="3" style="stroke:#A80036;stroke-width:1.0;stroke-dasharray:3.0,3.0;"/><path d="M609,313.5 L622,313.5 C644.3154,313.5 637.5929,339.4708 658,348.5 C743.1155,386.1599 854.639,381.3463 917.1563,374.4376 " fill="none" style="stroke:#A80036;stroke-width:1.0;stroke-dasharray:3.0,3.0;"/><path d="M917.5143,377.5363 L919.4804,374.1691 L916.7984,371.3389 L924.9031,373.5428 L917.5143,377.5363 " fill="#A80036" style="stroke:#A80036;stroke-width:1.0;"/><ellipse cx="609" cy="313.5" fill="#A80036" rx="3" ry="3" style="stroke:#A80036;stroke-width:1.0;stroke-dasharray:3.0,3.0;"/><path d="M965.2484,405.5 L978.2484,405.5 C1033.7357,405.5 1264.0739,405.5 1385.6181,405.5 " fill="none" style="stroke:#A80036;stroke-width:1.0;stroke-dasharray:3.0,3.0;"/><path d="M1385.6181,408.6382 L1387.9718,405.5 L1385.6181,402.3618 L1393.4637,405.5 L1385.6181,408.6382 " fill="#A80036" style="stroke:#A80036;stroke-width:1.0;"/><ellipse cx="965.2484" cy="405.5" fill="#A80036" rx="3" ry="3" style="stroke:#A80036;stroke-width:1.0;stroke-dasharray:3.0,3.0;"/><path d="M609,334.5 L622,334.5 C650.1091,334.5 633.5165,372.6912 658,386.5 C754.4912,440.9214 896.1978,419.6182 946.4751,409.5809 " fill="none" style="stroke:#A80036;stroke-width:1.0;stroke-dasharray:3.0,3.0;"/><path d="M947.0977,412.5902 L948.732,409.114 L945.8524,406.5717 L953.9983,408.0244 L947.0977,412.5902 " fill="#A80036" style="stroke:#A80036;stroke-width:1.0;"/><ellipse cx="609" cy="334.5" fill="#A80036" rx="3" ry="3" style="stroke:#A80036;stroke-width:1.0;stroke-dasharray:3.0,3.0;"/><path d="M281,418.5 L294,418.5 C317.3439,418.5 346.6257,389.1243 374.7919,351.0136 " fill="none" style="stroke:#A80036;stroke-width:1.0;stroke-dasharray:3.0,3.0;"/><path d="M377.2672,352.8175 L376.1448,349.1571 L372.3165,349.2097 L379.3017,344.8252 L377.2672,352.8175 " fill="#A80036" style="stroke:#A80036;stroke-width:1.0;"/><ellipse cx="281" cy="418.5" fill="#A80036" rx="3" ry="3" style="stroke:#A80036;stroke-width:1.0;stroke-dasharray:3.0,3.0;"/><path d="M281,438.5 L294,438.5 C353.2483,438.5 423.1261,431.4844 456.0419,427.7607 " fill="none" style="stroke:#A80036;stroke-width:1.0;stroke-dasharray:3.0,3.0;"/><path d="M456.3897,430.778 L458.3049,427.4999 L455.6941,424.7435 L463.585,426.8912 L456.3897,430.778 " fill="#A80036" style="stroke:#A80036;stroke-width:1.0;"/><ellipse cx="281" cy="438.5" fill="#A80036" rx="3" ry="3" style="stroke:#A80036;stroke-width:1.0;stroke-dasharray:3.0,3.0;"/><path d="M281,459.5 L294,459.5 C353.1341,459.5 423.1354,459.5 456.0734,459.5 " fill="none" style="stroke:#A80036;stroke-width:1.0;stroke-dasharray:3.0,3.0;"/><path d="M456.0734,462.6632 L458.4458,459.5 L456.0734,456.3368 L463.9815,459.5 L456.0734,462.6632 " fill="#A80036" style="stroke:#A80036;stroke-width:1.0;"/><ellipse cx="281" cy="459.5" fill="#A80036" rx="3" ry="3" style="stroke:#A80036;stroke-width:1.0;stroke-dasharray:3.0,3.0;"/><path d="M1058,484.5 L1071,484.5 C1147.2046,484.5 1231.7743,484.5 1302.6715,484.5 " fill="none" style="stroke:#A80036;stroke-width:1.0;stroke-dasharray:3.0,3.0;"/><path d="M1302.6715,487.5778 L1304.9799,484.5 L1302.6715,481.4222 L1310.3659,484.5 L1302.6715,487.5778 " fill="#A80036" style="stroke:#A80036;stroke-width:1.0;"/><ellipse cx="1058" cy="484.5" fill="#A80036" rx="3" ry="3" style="stroke:#A80036;stroke-width:1.0;stroke-dasharray:3.0,3.0;"/><path d="M1058,546.5 L1071,546.5 C1213.8339,546.5 1386.0554,546.5 1442.5509,546.5 " fill="none" style="stroke:#A80036;stroke-width:1.0;stroke-dasharray:3.0,3.0;"/><path d="M1442.5509,549.6064 L1444.8807,546.5 L1442.5509,543.3936 L1450.3169,546.5 L1442.5509,549.6064 " fill="#A80036" style="stroke:#A80036;stroke-width:1.0;"/><ellipse cx="1058" cy="546.5" fill="#A80036" rx="3" ry="3" style="stroke:#A80036;stroke-width:1.0;stroke-dasharray:3.0,3.0;"/><path d="M475.0877,495.5 L488.0877,495.5 C537.8237,495.5 729.9098,495.5 854.608,495.5 " fill="none" style="stroke:#A80036;stroke-width:1.0;stroke-dasharray:3.0,3.0;"/><path d="M854.608,498.5968 L856.9305,495.5 L854.608,492.4032 L862.3499,495.5 L854.608,498.5968 " fill="#A80036" style="stroke:#A80036;stroke-width:1.0;"/><ellipse cx="475.0877" cy="495.5" fill="#A80036" rx="3" ry="3" style="stroke:#A80036;stroke-width:1.0;stroke-dasharray:3.0,3.0;"/><path d="M281,480.5 L294,480.5 C353.2986,480.5 423.1529,488.595 456.0526,492.8915 " fill="none" style="stroke:#A80036;stroke-width:1.0;stroke-dasharray:3.0,3.0;"/><path d="M455.6513,495.9072 L458.3143,493.1925 L456.4539,489.8758 L463.5918,493.8947 L455.6513,495.9072 " fill="#A80036" style="stroke:#A80036;stroke-width:1.0;"/><ellipse cx="281" cy="480.5" fill="#A80036" rx="3" ry="3" style="stroke:#A80036;stroke-width:1.0;stroke-dasharray:3.0,3.0;"/><path d="M1128,625.5 L1141,625.5 C1225.7481,625.5 1323.1015,625.5 1388.0626,625.5 " fill="none" style="stroke:#A80036;stroke-width:1.0;stroke-dasharray:3.0,3.0;"/><path d="M1388.0626,628.6034 L1390.3902,625.5 L1388.0626,622.3966 L1395.8211,625.5 L1388.0626,628.6034 " fill="#A80036" style="stroke:#A80036;stroke-width:1.0;"/><ellipse cx="1128" cy="625.5" fill="#A80036" rx="3" ry="3" style="stroke:#A80036;stroke-width:1.0;stroke-dasharray:3.0,3.0;"/><path d="M475.1606,584.4107 L488.0877,585.7854 C529.1393,590.1508 667.1693,604.8288 784.2398,617.2781 " fill="none" style="stroke:#A80036;stroke-width:1.0;stroke-dasharray:3.0,3.0;"/><path d="M783.9132,620.3499 L786.5437,617.5231 L784.5665,614.2062 L791.9195,618.0947 L783.9132,620.3499 " fill="#A80036" style="stroke:#A80036;stroke-width:1.0;"/><ellipse cx="475.1606" cy="584.4107" fill="#A80036" rx="3" ry="3" style="stroke:#A80036;stroke-width:1.0;stroke-dasharray:3.0,3.0;"/><path d="M281,500.5 L294,500.5 C302.842,500.5 412.7273,553.9389 456.845,575.5702 " fill="none" style="stroke:#A80036;stroke-width:1.0;stroke-dasharray:3.0,3.0;"/><path d="M455.4777,578.3559 L458.9342,576.5957 L458.2123,572.7845 L463.8092,578.9885 L455.4777,578.3559 " fill="#A80036" style="stroke:#A80036;stroke-width:1.0;"/><ellipse cx="281" cy="500.5" fill="#A80036" rx="3" ry="3" style="stroke:#A80036;stroke-width:1.0;stroke-dasharray:3.0,3.0;"/><!--MD5=[4af5639c27c6f72746ab5e9bf93b0fbe]
@startjson API-Example

{
  "$schema": "./schema-metadata.json",
  "project": {
    "@id": "0000-project",
    "@type": "Project",
    "name": "Test Project Name",
    "shortcode": "0000",
    "description": {
      "de": "Dies ist ein einfaches Beipiel-Projekt zu Dokumentationszwecken.",
      "en": "This is a simple example project for documentation purposes."
    },
    "startDate": "2021-01-01",
    "keywords": [
      {
        "en": "history",
        "de": "Geschichte"
      }
    ],
    "disciplines": [
      "http://skos.um.es/unesco6/11"
    ],
    "temporalCoverage": [
      "http://chronontology.dainst.org/period/Ef9SyESSafJ1"
    ],
    "spatialCoverage": [
      "https://www.geonames.org/6255148/europe.html"
    ],
    "urls": [
      "https://dasch.swiss/someproject"
    ],
    "dataManagementPlan": {
      "available": true,
      "url": "https://dasch.swiss/someproject/dmp"
    },
    "endDate": "2022-01-01",
    "publications": [
      "Doe, J. (2020): Some publication. In: Journal for sample publications. Vol. 100.1, p. 1-32."
    ],
    "grants": [
      "grant-001"
    ],
    "alternateNames": [
      {
        "de": "Beispielprojekt",
        "en": "Sample Project"
      }
    ]
  },
  "datasets": [],
  "persons": [],
  "organizations": [
    {
      "@id": "organization-001",
      "@type": "Organization",
      "names": [
        "DaSCH",
        "Data and Service Center for the Humanities"
      ],
      "url": "https://dasch.swiss",
      "email": "info@dasch.swiss",
      "address": {
        
      }
    }
  ],
  "grants": [
    {
      "@id": "grant-001",
      "@type": "Grant",
      "funders": [
        "organization-001"
      ],
      "number": "ABCD00001",
      "name": "Eccellenca",
      "url": "https://www.grants.ch/grant/abcd0001"
    }
  ]
}


@endjson

PlantUML version 1.2021.2(Sun Mar 07 12:10:27 CET 2021)
(GPL source distribution)
Java Runtime: OpenJDK Runtime Environment
JVM: OpenJDK 64-Bit Server VM
Default Encoding: UTF-8
Language: en
Country: GB
--></g></svg>