<?xml version="1.0" encoding="UTF-8" standalone="no"?><svg xmlns="http://www.w3.org/2000/svg" xmlns:xlink="http://www.w3.org/1999/xlink" contentScriptType="application/ecmascript" contentStyleType="text/css" height="747px" preserveAspectRatio="none" style="width:1626px;height:747px;" version="1.1" viewBox="0 0 1626 747" width="1626px" zoomAndPan="magnify"><defs/><g><rect fill="#FEFECE" height="122.9297" rx="5" ry="5" style="stroke:#FEFECE;stroke-width:1.5;" width="283" x="10" y="426"/><text fill="#000000" font-family="sans-serif" font-size="14" lengthAdjust="spacing" textLength="61" x="15" y="441.5352">$schema</text><text fill="#000000" font-family="sans-serif" font-size="14" lengthAdjust="spacing" textLength="168" x="120" y="441.5352">./schema-metadata.json</text><line style="stroke:#A80036;stroke-width:1.0;" x1="115" x2="115" y1="426" y2="446.4883"/><line style="stroke:#A80036;stroke-width:1.0;" x1="10" x2="293" y1="446.4883" y2="446.4883"/><text fill="#000000" font-family="sans-serif" font-size="14" lengthAdjust="spacing" textLength="48" x="15" y="462.0234">project</text><text fill="#000000" font-family="sans-serif" font-size="14" lengthAdjust="spacing" textLength="0" x="132" y="462.0234"/><line style="stroke:#A80036;stroke-width:1.0;" x1="115" x2="115" y1="446.4883" y2="466.9766"/><line style="stroke:#A80036;stroke-width:1.0;" x1="10" x2="293" y1="466.9766" y2="466.9766"/><text fill="#000000" font-family="sans-serif" font-size="14" lengthAdjust="spacing" textLength="57" x="15" y="482.5117">datasets</text><text fill="#000000" font-family="sans-serif" font-size="14" lengthAdjust="spacing" textLength="0" x="132" y="482.5117"/><line style="stroke:#A80036;stroke-width:1.0;" x1="115" x2="115" y1="466.9766" y2="487.4648"/><line style="stroke:#A80036;stroke-width:1.0;" x1="10" x2="293" y1="487.4648" y2="487.4648"/><text fill="#000000" font-family="sans-serif" font-size="14" lengthAdjust="spacing" textLength="55" x="15" y="503">persons</text><text fill="#000000" font-family="sans-serif" font-size="14" lengthAdjust="spacing" textLength="0" x="132" y="503"/><line style="stroke:#A80036;stroke-width:1.0;" x1="115" x2="115" y1="487.4648" y2="507.9531"/><line style="stroke:#A80036;stroke-width:1.0;" x1="10" x2="293" y1="507.9531" y2="507.9531"/><text fill="#000000" font-family="sans-serif" font-size="14" lengthAdjust="spacing" textLength="95" x="15" y="523.4883">organizations</text><text fill="#000000" font-family="sans-serif" font-size="14" lengthAdjust="spacing" textLength="0" x="132" y="523.4883"/><line style="stroke:#A80036;stroke-width:1.0;" x1="115" x2="115" y1="507.9531" y2="528.4414"/><line style="stroke:#A80036;stroke-width:1.0;" x1="10" x2="293" y1="528.4414" y2="528.4414"/><text fill="#000000" font-family="sans-serif" font-size="14" lengthAdjust="spacing" textLength="44" x="15" y="543.9766">grants</text><text fill="#000000" font-family="sans-serif" font-size="14" lengthAdjust="spacing" textLength="0" x="132" y="543.9766"/><line style="stroke:#A80036;stroke-width:1.0;" x1="115" x2="115" y1="528.4414" y2="548.9297"/><rect fill="none" height="122.9297" rx="5" ry="5" style="stroke:#A80036;stroke-width:1.5;" width="283" x="10" y="426"/><rect fill="#FEFECE" height="368.7891" rx="5" ry="5" style="stroke:#FEFECE;stroke-width:1.5;" width="291" x="330" y="30"/><text fill="#000000" font-family="sans-serif" font-size="14" lengthAdjust="spacing" textLength="25" x="335" y="45.5352">@id</text><text fill="#000000" font-family="sans-serif" font-size="14" lengthAdjust="spacing" textLength="92" x="493" y="45.5352">0000-project</text><line style="stroke:#A80036;stroke-width:1.0;" x1="488" x2="488" y1="30" y2="50.4883"/><line style="stroke:#A80036;stroke-width:1.0;" x1="330" x2="621" y1="50.4883" y2="50.4883"/><text fill="#000000" font-family="sans-serif" font-size="14" lengthAdjust="spacing" textLength="41" x="335" y="66.0234">@type</text><text fill="#000000" font-family="sans-serif" font-size="14" lengthAdjust="spacing" textLength="47" x="493" y="66.0234">Project</text><line style="stroke:#A80036;stroke-width:1.0;" x1="488" x2="488" y1="50.4883" y2="70.9766"/><line style="stroke:#A80036;stroke-width:1.0;" x1="330" x2="621" y1="70.9766" y2="70.9766"/><text fill="#000000" font-family="sans-serif" font-size="14" lengthAdjust="spacing" textLength="38" x="335" y="86.5117">name</text><text fill="#000000" font-family="sans-serif" font-size="14" lengthAdjust="spacing" textLength="123" x="493" y="86.5117">Test Project Name</text><line style="stroke:#A80036;stroke-width:1.0;" x1="488" x2="488" y1="70.9766" y2="91.4648"/><line style="stroke:#A80036;stroke-width:1.0;" x1="330" x2="621" y1="91.4648" y2="91.4648"/><text fill="#000000" font-family="sans-serif" font-size="14" lengthAdjust="spacing" textLength="69" x="335" y="107">shortcode</text><text fill="#000000" font-family="sans-serif" font-size="14" lengthAdjust="spacing" textLength="36" x="493" y="107">0000</text><line style="stroke:#A80036;stroke-width:1.0;" x1="488" x2="488" y1="91.4648" y2="111.9531"/><line style="stroke:#A80036;stroke-width:1.0;" x1="330" x2="621" y1="111.9531" y2="111.9531"/><text fill="#000000" font-family="sans-serif" font-size="14" lengthAdjust="spacing" textLength="77" x="335" y="127.4883">description</text><text fill="#000000" font-family="sans-serif" font-size="14" lengthAdjust="spacing" textLength="0" x="505" y="127.4883"/><line style="stroke:#A80036;stroke-width:1.0;" x1="488" x2="488" y1="111.9531" y2="132.4414"/><line style="stroke:#A80036;stroke-width:1.0;" x1="330" x2="621" y1="132.4414" y2="132.4414"/><text fill="#000000" font-family="sans-serif" font-size="14" lengthAdjust="spacing" textLength="62" x="335" y="147.9766">startDate</text><text fill="#000000" font-family="sans-serif" font-size="14" lengthAdjust="spacing" textLength="88" x="493" y="147.9766">2021-01-01</text><line style="stroke:#A80036;stroke-width:1.0;" x1="488" x2="488" y1="132.4414" y2="152.9297"/><line style="stroke:#A80036;stroke-width:1.0;" x1="330" x2="621" y1="152.9297" y2="152.9297"/><text fill="#000000" font-family="sans-serif" font-size="14" lengthAdjust="spacing" textLength="65" x="335" y="168.4648">keywords</text><text fill="#000000" font-family="sans-serif" font-size="14" lengthAdjust="spacing" textLength="0" x="505" y="168.4648"/><line style="stroke:#A80036;stroke-width:1.0;" x1="488" x2="488" y1="152.9297" y2="173.418"/><line style="stroke:#A80036;stroke-width:1.0;" x1="330" x2="621" y1="173.418" y2="173.418"/><text fill="#000000" font-family="sans-serif" font-size="14" lengthAdjust="spacing" textLength="72" x="335" y="188.9531">disciplines</text><text fill="#000000" font-family="sans-serif" font-size="14" lengthAdjust="spacing" textLength="0" x="505" y="188.9531"/><line style="stroke:#A80036;stroke-width:1.0;" x1="488" x2="488" y1="173.418" y2="193.9063"/><line style="stroke:#A80036;stroke-width:1.0;" x1="330" x2="621" y1="193.9063" y2="193.9063"/><text fill="#000000" font-family="sans-serif" font-size="14" lengthAdjust="spacing" textLength="127" x="335" y="209.4414">temporalCoverage</text><text fill="#000000" font-family="sans-serif" font-size="14" lengthAdjust="spacing" textLength="0" x="505" y="209.4414"/><line style="stroke:#A80036;stroke-width:1.0;" x1="488" x2="488" y1="193.9063" y2="214.3945"/><line style="stroke:#A80036;stroke-width:1.0;" x1="330" x2="621" y1="214.3945" y2="214.3945"/><text fill="#000000" font-family="sans-serif" font-size="14" lengthAdjust="spacing" textLength="110" x="335" y="229.9297">spatialCoverage</text><text fill="#000000" font-family="sans-serif" font-size="14" lengthAdjust="spacing" textLength="0" x="505" y="229.9297"/><line style="stroke:#A80036;stroke-width:1.0;" x1="488" x2="488" y1="214.3945" y2="234.8828"/><line style="stroke:#A80036;stroke-width:1.0;" x1="330" x2="621" y1="234.8828" y2="234.8828"/><text fill="#000000" font-family="sans-serif" font-size="14" lengthAdjust="spacing" textLength="26" x="335" y="250.418">urls</text><text fill="#000000" font-family="sans-serif" font-size="14" lengthAdjust="spacing" textLength="0" x="505" y="250.418"/><line style="stroke:#A80036;stroke-width:1.0;" x1="488" x2="488" y1="234.8828" y2="255.3711"/><line style="stroke:#A80036;stroke-width:1.0;" x1="330" x2="621" y1="255.3711" y2="255.3711"/><text fill="#000000" font-family="sans-serif" font-size="14" lengthAdjust="spacing" textLength="148" x="335" y="270.9063">dataManagementPlan</text><text fill="#000000" font-family="sans-serif" font-size="14" lengthAdjust="spacing" textLength="0" x="505" y="270.9063"/><line style="stroke:#A80036;stroke-width:1.0;" x1="488" x2="488" y1="255.3711" y2="275.8594"/><line style="stroke:#A80036;stroke-width:1.0;" x1="330" x2="621" y1="275.8594" y2="275.8594"/><text fill="#000000" font-family="sans-serif" font-size="14" lengthAdjust="spacing" textLength="57" x="335" y="291.3945">endDate</text><text fill="#000000" font-family="sans-serif" font-size="14" lengthAdjust="spacing" textLength="88" x="493" y="291.3945">2022-01-01</text><line style="stroke:#A80036;stroke-width:1.0;" x1="488" x2="488" y1="275.8594" y2="296.3477"/><line style="stroke:#A80036;stroke-width:1.0;" x1="330" x2="621" y1="296.3477" y2="296.3477"/><text fill="#000000" font-family="sans-serif" font-size="14" lengthAdjust="spacing" textLength="84" x="335" y="311.8828">publications</text><text fill="#000000" font-family="sans-serif" font-size="14" lengthAdjust="spacing" textLength="0" x="505" y="311.8828"/><line style="stroke:#A80036;stroke-width:1.0;" x1="488" x2="488" y1="296.3477" y2="316.8359"/><line style="stroke:#A80036;stroke-width:1.0;" x1="330" x2="621" y1="316.8359" y2="316.8359"/><text fill="#000000" font-family="sans-serif" font-size="14" lengthAdjust="spacing" textLength="44" x="335" y="332.3711">grants</text><text fill="#000000" font-family="sans-serif" font-size="14" lengthAdjust="spacing" textLength="0" x="505" y="332.3711"/><line style="stroke:#A80036;stroke-width:1.0;" x1="488" x2="488" y1="316.8359" y2="337.3242"/><line style="stroke:#A80036;stroke-width:1.0;" x1="330" x2="621" y1="337.3242" y2="337.3242"/><text fill="#000000" font-family="sans-serif" font-size="14" lengthAdjust="spacing" textLength="107" x="335" y="352.8594">alternateNames</text><text fill="#000000" font-family="sans-serif" font-size="14" lengthAdjust="spacing" textLength="0" x="505" y="352.8594"/><line style="stroke:#A80036;stroke-width:1.0;" x1="488" x2="488" y1="337.3242" y2="357.8125"/><line style="stroke:#A80036;stroke-width:1.0;" x1="330" x2="621" y1="357.8125" y2="357.8125"/><text fill="#000000" font-family="sans-serif" font-size="14" lengthAdjust="spacing" textLength="53" x="335" y="373.3477">funders</text><text fill="#000000" font-family="sans-serif" font-size="14" lengthAdjust="spacing" textLength="0" x="505" y="373.3477"/><line style="stroke:#A80036;stroke-width:1.0;" x1="488" x2="488" y1="357.8125" y2="378.3008"/><line style="stroke:#A80036;stroke-width:1.0;" x1="330" x2="621" y1="378.3008" y2="378.3008"/><text fill="#000000" font-family="sans-serif" font-size="14" lengthAdjust="spacing" textLength="85" x="335" y="393.8359">contactPoint</text><text fill="#000000" font-family="sans-serif" font-size="14" lengthAdjust="spacing" textLength="123" x="493" y="393.8359">organization-001</text><line style="stroke:#A80036;stroke-width:1.0;" x1="488" x2="488" y1="378.3008" y2="398.7891"/><rect fill="none" height="368.7891" rx="5" ry="5" style="stroke:#A80036;stroke-width:1.5;" width="291" x="330" y="30"/><rect fill="#FEFECE" height="40.9766" rx="5" ry="5" style="stroke:#FEFECE;stroke-width:1.5;" width="486" x="722.5" y="10"/><text fill="#000000" font-family="sans-serif" font-size="14" lengthAdjust="spacing" textLength="17" x="727.5" y="25.5352">de</text><text fill="#000000" font-family="sans-serif" font-size="14" lengthAdjust="spacing" textLength="449" x="754.5" y="25.5352">Dies ist ein einfaches Beipiel-Projekt zu Dokumentationszwecken.</text><line style="stroke:#A80036;stroke-width:1.0;" x1="749.5" x2="749.5" y1="10" y2="30.4883"/><line style="stroke:#A80036;stroke-width:1.0;" x1="722.5" x2="1208.5" y1="30.4883" y2="30.4883"/><text fill="#000000" font-family="sans-serif" font-size="14" lengthAdjust="spacing" textLength="17" x="727.5" y="46.0234">en</text><text fill="#000000" font-family="sans-serif" font-size="14" lengthAdjust="spacing" textLength="424" x="754.5" y="46.0234">This is a simple example project for documentation purposes.</text><line style="stroke:#A80036;stroke-width:1.0;" x1="749.5" x2="749.5" y1="30.4883" y2="50.9766"/><rect fill="none" height="40.9766" rx="5" ry="5" style="stroke:#A80036;stroke-width:1.5;" width="486" x="722.5" y="10"/><rect fill="#FEFECE" height="20.4883" rx="5" ry="5" style="stroke:#FEFECE;stroke-width:1.5;" width="22" x="953.5" y="69.5"/><text fill="#000000" font-family="sans-serif" font-size="14" lengthAdjust="spacing" textLength="0" x="970.5" y="85.0352"/><rect fill="none" height="20.4883" rx="5" ry="5" style="stroke:#A80036;stroke-width:1.5;" width="22" x="953.5" y="69.5"/><rect fill="#FEFECE" height="40.9766" rx="5" ry="5" style="stroke:#FEFECE;stroke-width:1.5;" width="111" x="1406.5" y="59"/><text fill="#000000" font-family="sans-serif" font-size="14" lengthAdjust="spacing" textLength="17" x="1411.5" y="74.5352">en</text><text fill="#000000" font-family="sans-serif" font-size="14" lengthAdjust="spacing" textLength="47" x="1438.5" y="74.5352">history</text><line style="stroke:#A80036;stroke-width:1.0;" x1="1433.5" x2="1433.5" y1="59" y2="79.4883"/><line style="stroke:#A80036;stroke-width:1.0;" x1="1406.5" x2="1517.5" y1="79.4883" y2="79.4883"/><text fill="#000000" font-family="sans-serif" font-size="14" lengthAdjust="spacing" textLength="17" x="1411.5" y="95.0234">de</text><text fill="#000000" font-family="sans-serif" font-size="14" lengthAdjust="spacing" textLength="74" x="1438.5" y="95.0234">Geschichte</text><line style="stroke:#A80036;stroke-width:1.0;" x1="1433.5" x2="1433.5" y1="79.4883" y2="99.9766"/><rect fill="none" height="40.9766" rx="5" ry="5" style="stroke:#A80036;stroke-width:1.5;" width="111" x="1406.5" y="59"/><rect fill="#FEFECE" height="20.4883" rx="5" ry="5" style="stroke:#FEFECE;stroke-width:1.5;" width="222" x="854.5" y="107.5"/><text fill="#000000" font-family="sans-serif" font-size="14" lengthAdjust="spacing" textLength="212" x="859.5" y="123.0352">http://skos.um.es/unesco6/11</text><rect fill="none" height="20.4883" rx="5" ry="5" style="stroke:#A80036;stroke-width:1.5;" width="222" x="854.5" y="107.5"/><rect fill="#FEFECE" height="20.4883" rx="5" ry="5" style="stroke:#FEFECE;stroke-width:1.5;" width="377" x="777" y="145.5"/><text fill="#000000" font-family="sans-serif" font-size="14" lengthAdjust="spacing" textLength="367" x="782" y="161.0352">http://chronontology.dainst.org/period/Ef9SyESSafJ1</text><rect fill="none" height="20.4883" rx="5" ry="5" style="stroke:#A80036;stroke-width:1.5;" width="377" x="777" y="145.5"/><rect fill="#FEFECE" height="20.4883" rx="5" ry="5" style="stroke:#FEFECE;stroke-width:1.5;" width="360" x="785.5" y="183.5"/><text fill="#000000" font-family="sans-serif" font-size="14" lengthAdjust="spacing" textLength="350" x="790.5" y="199.0352">https://www.geonames.org/6255148/europe.html</text><rect fill="none" height="20.4883" rx="5" ry="5" style="stroke:#A80036;stroke-width:1.5;" width="360" x="785.5" y="183.5"/><rect fill="#FEFECE" height="20.4883" rx="5" ry="5" style="stroke:#FEFECE;stroke-width:1.5;" width="235" x="848" y="221.5"/><text fill="#000000" font-family="sans-serif" font-size="14" lengthAdjust="spacing" textLength="225" x="853" y="237.0352">https://dasch.swiss/someproject</text><rect fill="none" height="20.4883" rx="5" ry="5" style="stroke:#A80036;stroke-width:1.5;" width="235" x="848" y="221.5"/><rect fill="#FEFECE" height="40.9766" rx="5" ry="5" style="stroke:#FEFECE;stroke-width:1.5;" width="343" x="794" y="260"/><text fill="#000000" font-family="sans-serif" font-size="14" lengthAdjust="spacing" textLength="60" x="799" y="275.5352">available</text><text fill="#000000" font-family="sans-serif" font-size="14" lengthAdjust="spacing" textLength="44" x="869" y="275.5352">☑ true</text><line style="stroke:#A80036;stroke-width:1.0;" x1="864" x2="864" y1="260" y2="280.4883"/><line style="stroke:#A80036;stroke-width:1.0;" x1="794" x2="1137" y1="280.4883" y2="280.4883"/><text fill="#000000" font-family="sans-serif" font-size="14" lengthAdjust="spacing" textLength="19" x="799" y="296.0234">url</text><text fill="#000000" font-family="sans-serif" font-size="14" lengthAdjust="spacing" textLength="263" x="869" y="296.0234">https://dasch.swiss/someproject/dmp</text><line style="stroke:#A80036;stroke-width:1.0;" x1="864" x2="864" y1="280.4883" y2="300.9766"/><rect fill="none" height="40.9766" rx="5" ry="5" style="stroke:#A80036;stroke-width:1.5;" width="343" x="794" y="260"/><rect fill="#FEFECE" height="20.4883" rx="5" ry="5" style="stroke:#FEFECE;stroke-width:1.5;" width="615" x="658" y="319.5"/><text fill="#000000" font-family="sans-serif" font-size="14" lengthAdjust="spacing" textLength="605" x="663" y="335.0352">Doe, J. (2020): Some publication. In: Journal for sample publications. Vol. 100.1, p. 1-32.</text><rect fill="none" height="20.4883" rx="5" ry="5" style="stroke:#A80036;stroke-width:1.5;" width="615" x="658" y="319.5"/><rect fill="#FEFECE" height="20.4883" rx="5" ry="5" style="stroke:#FEFECE;stroke-width:1.5;" width="82" x="924.5" y="357.5"/><text fill="#000000" font-family="sans-serif" font-size="14" lengthAdjust="spacing" textLength="72" x="929.5" y="373.0352">grant-001</text><rect fill="none" height="20.4883" rx="5" ry="5" style="stroke:#A80036;stroke-width:1.5;" width="82" x="924.5" y="357.5"/><rect fill="#FEFECE" height="20.4883" rx="5" ry="5" style="stroke:#FEFECE;stroke-width:1.5;" width="22" x="953.5" y="395.5"/><text fill="#000000" font-family="sans-serif" font-size="14" lengthAdjust="spacing" textLength="0" x="970.5" y="411.0352"/><rect fill="none" height="20.4883" rx="5" ry="5" style="stroke:#A80036;stroke-width:1.5;" width="22" x="953.5" y="395.5"/><rect fill="#FEFECE" height="40.9766" rx="5" ry="5" style="stroke:#FEFECE;stroke-width:1.5;" width="138" x="1393" y="385"/><text fill="#000000" font-family="sans-serif" font-size="14" lengthAdjust="spacing" textLength="17" x="1398" y="400.5352">de</text><text fill="#000000" font-family="sans-serif" font-size="14" lengthAdjust="spacing" textLength="101" x="1425" y="400.5352">Beispielprojekt</text><line style="stroke:#A80036;stroke-width:1.0;" x1="1420" x2="1420" y1="385" y2="405.4883"/><line style="stroke:#A80036;stroke-width:1.0;" x1="1393" x2="1531" y1="405.4883" y2="405.4883"/><text fill="#000000" font-family="sans-serif" font-size="14" lengthAdjust="spacing" textLength="17" x="1398" y="421.0234">en</text><text fill="#000000" font-family="sans-serif" font-size="14" lengthAdjust="spacing" textLength="101" x="1425" y="421.0234">Sample Project</text><line style="stroke:#A80036;stroke-width:1.0;" x1="1420" x2="1420" y1="405.4883" y2="425.9766"/><rect fill="none" height="40.9766" rx="5" ry="5" style="stroke:#A80036;stroke-width:1.5;" width="138" x="1393" y="385"/><rect fill="#FEFECE" height="20.4883" rx="5" ry="5" style="stroke:#FEFECE;stroke-width:1.5;" width="133" x="899" y="433.5"/><text fill="#000000" font-family="sans-serif" font-size="14" lengthAdjust="spacing" textLength="123" x="904" y="449.0352">organization-001</text><rect fill="none" height="20.4883" rx="5" ry="5" style="stroke:#A80036;stroke-width:1.5;" width="133" x="899" y="433.5"/><rect fill="#FEFECE" height="15" rx="5" ry="5" style="stroke:#FEFECE;stroke-width:1.5;" width="30" x="463.5" y="455.5"/><rect fill="none" height="15" rx="5" ry="5" style="stroke:#A80036;stroke-width:1.5;" width="30" x="463.5" y="455.5"/><rect fill="#FEFECE" height="15" rx="5" ry="5" style="stroke:#FEFECE;stroke-width:1.5;" width="30" x="463.5" y="489.5"/><rect fill="none" height="15" rx="5" ry="5" style="stroke:#A80036;stroke-width:1.5;" width="30" x="463.5" y="489.5"/><rect fill="#FEFECE" height="20.4883" rx="5" ry="5" style="stroke:#FEFECE;stroke-width:1.5;" width="22" x="463.5" y="523.5"/><text fill="#000000" font-family="sans-serif" font-size="14" lengthAdjust="spacing" textLength="0" x="480.5" y="539.0352"/><rect fill="none" height="20.4883" rx="5" ry="5" style="stroke:#A80036;stroke-width:1.5;" width="22" x="463.5" y="523.5"/><rect fill="#FEFECE" height="122.9297" rx="5" ry="5" style="stroke:#FEFECE;stroke-width:1.5;" width="207" x="862" y="472"/><text fill="#000000" font-family="sans-serif" font-size="14" lengthAdjust="spacing" textLength="25" x="867" y="487.5352">@id</text><text fill="#000000" font-family="sans-serif" font-size="14" lengthAdjust="spacing" textLength="123" x="931" y="487.5352">organization-001</text><line style="stroke:#A80036;stroke-width:1.0;" x1="926" x2="926" y1="472" y2="492.4883"/><line style="stroke:#A80036;stroke-width:1.0;" x1="862" x2="1069" y1="492.4883" y2="492.4883"/><text fill="#000000" font-family="sans-serif" font-size="14" lengthAdjust="spacing" textLength="41" x="867" y="508.0234">@type</text><text fill="#000000" font-family="sans-serif" font-size="14" lengthAdjust="spacing" textLength="90" x="931" y="508.0234">Organization</text><line style="stroke:#A80036;stroke-width:1.0;" x1="926" x2="926" y1="492.4883" y2="512.9766"/><line style="stroke:#A80036;stroke-width:1.0;" x1="862" x2="1069" y1="512.9766" y2="512.9766"/><text fill="#000000" font-family="sans-serif" font-size="14" lengthAdjust="spacing" textLength="45" x="867" y="528.5117">names</text><text fill="#000000" font-family="sans-serif" font-size="14" lengthAdjust="spacing" textLength="0" x="943" y="528.5117"/><line style="stroke:#A80036;stroke-width:1.0;" x1="926" x2="926" y1="512.9766" y2="533.4648"/><line style="stroke:#A80036;stroke-width:1.0;" x1="862" x2="1069" y1="533.4648" y2="533.4648"/><text fill="#000000" font-family="sans-serif" font-size="14" lengthAdjust="spacing" textLength="19" x="867" y="549">url</text><text fill="#000000" font-family="sans-serif" font-size="14" lengthAdjust="spacing" textLength="133" x="931" y="549">https://dasch.swiss</text><line style="stroke:#A80036;stroke-width:1.0;" x1="926" x2="926" y1="533.4648" y2="553.9531"/><line style="stroke:#A80036;stroke-width:1.0;" x1="862" x2="1069" y1="553.9531" y2="553.9531"/><text fill="#000000" font-family="sans-serif" font-size="14" lengthAdjust="spacing" textLength="37" x="867" y="569.4883">email</text><text fill="#000000" font-family="sans-serif" font-size="14" lengthAdjust="spacing" textLength="119" x="931" y="569.4883">info@dasch.swiss</text><line style="stroke:#A80036;stroke-width:1.0;" x1="926" x2="926" y1="553.9531" y2="574.4414"/><line style="stroke:#A80036;stroke-width:1.0;" x1="862" x2="1069" y1="574.4414" y2="574.4414"/><text fill="#000000" font-family="sans-serif" font-size="14" lengthAdjust="spacing" textLength="54" x="867" y="589.9766">address</text><text fill="#000000" font-family="sans-serif" font-size="14" lengthAdjust="spacing" textLength="0" x="943" y="589.9766"/><line style="stroke:#A80036;stroke-width:1.0;" x1="926" x2="926" y1="574.4414" y2="594.9297"/><rect fill="none" height="122.9297" rx="5" ry="5" style="stroke:#A80036;stroke-width:1.5;" width="207" x="862" y="472"/><rect fill="#FEFECE" height="40.9766" rx="5" ry="5" style="stroke:#FEFECE;stroke-width:1.5;" width="304" x="1310" y="474"/><text fill="#000000" font-family="sans-serif" font-size="14" lengthAdjust="spacing" textLength="46" x="1315" y="489.5352">DaSCH</text><line style="stroke:#A80036;stroke-width:1.0;" x1="1310" x2="1614" y1="494.4883" y2="494.4883"/><text fill="#000000" font-family="sans-serif" font-size="14" lengthAdjust="spacing" textLength="294" x="1315" y="510.0234">Data and Service Center for the Humanities</text><rect fill="none" height="40.9766" rx="5" ry="5" style="stroke:#A80036;stroke-width:1.5;" width="304" x="1310" y="474"/><rect fill="#FEFECE" height="102.4414" rx="5" ry="5" style="stroke:#FEFECE;stroke-width:1.5;" width="202" x="1361" y="533.5"/><text fill="#000000" font-family="sans-serif" font-size="14" lengthAdjust="spacing" textLength="39" x="1366" y="549.0352">street</text><text fill="#000000" font-family="sans-serif" font-size="14" lengthAdjust="spacing" textLength="104" x="1454" y="549.0352">Petersgraben 1</text><line style="stroke:#A80036;stroke-width:1.0;" x1="1449" x2="1449" y1="533.5" y2="553.9883"/><line style="stroke:#A80036;stroke-width:1.0;" x1="1361" x2="1563" y1="553.9883" y2="553.9883"/><text fill="#000000" font-family="sans-serif" font-size="14" lengthAdjust="spacing" textLength="69" x="1366" y="569.5234">additional</text><text fill="#000000" font-family="sans-serif" font-size="14" lengthAdjust="spacing" textLength="58" x="1454" y="569.5234">Postfach</text><line style="stroke:#A80036;stroke-width:1.0;" x1="1449" x2="1449" y1="553.9883" y2="574.4766"/><line style="stroke:#A80036;stroke-width:1.0;" x1="1361" x2="1563" y1="574.4766" y2="574.4766"/><text fill="#000000" font-family="sans-serif" font-size="14" lengthAdjust="spacing" textLength="78" x="1366" y="590.0117">postalCode</text><text fill="#000000" font-family="sans-serif" font-size="14" lengthAdjust="spacing" textLength="36" x="1454" y="590.0117">4000</text><line style="stroke:#A80036;stroke-width:1.0;" x1="1449" x2="1449" y1="574.4766" y2="594.9648"/><line style="stroke:#A80036;stroke-width:1.0;" x1="1361" x2="1563" y1="594.9648" y2="594.9648"/><text fill="#000000" font-family="sans-serif" font-size="14" lengthAdjust="spacing" textLength="48" x="1366" y="610.5">locality</text><text fill="#000000" font-family="sans-serif" font-size="14" lengthAdjust="spacing" textLength="35" x="1454" y="610.5">Basel</text><line style="stroke:#A80036;stroke-width:1.0;" x1="1449" x2="1449" y1="594.9648" y2="615.4531"/><line style="stroke:#A80036;stroke-width:1.0;" x1="1361" x2="1563" y1="615.4531" y2="615.4531"/><text fill="#000000" font-family="sans-serif" font-size="14" lengthAdjust="spacing" textLength="52" x="1366" y="630.9883">country</text><text fill="#000000" font-family="sans-serif" font-size="14" lengthAdjust="spacing" textLength="80" x="1454" y="630.9883">Switzerland</text><line style="stroke:#A80036;stroke-width:1.0;" x1="1449" x2="1449" y1="615.4531" y2="635.9414"/><rect fill="none" height="102.4414" rx="5" ry="5" style="stroke:#A80036;stroke-width:1.5;" width="202" x="1361" y="533.5"/><rect fill="#FEFECE" height="20.4883" rx="5" ry="5" style="stroke:#FEFECE;stroke-width:1.5;" width="22" x="463.5" y="612.5"/><text fill="#000000" font-family="sans-serif" font-size="14" lengthAdjust="spacing" textLength="0" x="480.5" y="628.0352"/><rect fill="none" height="20.4883" rx="5" ry="5" style="stroke:#A80036;stroke-width:1.5;" width="22" x="463.5" y="612.5"/><rect fill="#FEFECE" height="122.9297" rx="5" ry="5" style="stroke:#FEFECE;stroke-width:1.5;" width="348" x="791.5" y="613"/><text fill="#000000" font-family="sans-serif" font-size="14" lengthAdjust="spacing" textLength="25" x="796.5" y="628.5352">@id</text><text fill="#000000" font-family="sans-serif" font-size="14" lengthAdjust="spacing" textLength="72" x="860.5" y="628.5352">grant-001</text><line style="stroke:#A80036;stroke-width:1.0;" x1="855.5" x2="855.5" y1="613" y2="633.4883"/><line style="stroke:#A80036;stroke-width:1.0;" x1="791.5" x2="1139.5" y1="633.4883" y2="633.4883"/><text fill="#000000" font-family="sans-serif" font-size="14" lengthAdjust="spacing" textLength="41" x="796.5" y="649.0234">@type</text><text fill="#000000" font-family="sans-serif" font-size="14" lengthAdjust="spacing" textLength="38" x="860.5" y="649.0234">Grant</text><line style="stroke:#A80036;stroke-width:1.0;" x1="855.5" x2="855.5" y1="633.4883" y2="653.9766"/><line style="stroke:#A80036;stroke-width:1.0;" x1="791.5" x2="1139.5" y1="653.9766" y2="653.9766"/><text fill="#000000" font-family="sans-serif" font-size="14" lengthAdjust="spacing" textLength="53" x="796.5" y="669.5117">funders</text><text fill="#000000" font-family="sans-serif" font-size="14" lengthAdjust="spacing" textLength="0" x="872.5" y="669.5117"/><line style="stroke:#A80036;stroke-width:1.0;" x1="855.5" x2="855.5" y1="653.9766" y2="674.4648"/><line style="stroke:#A80036;stroke-width:1.0;" x1="791.5" x2="1139.5" y1="674.4648" y2="674.4648"/><text fill="#000000" font-family="sans-serif" font-size="14" lengthAdjust="spacing" textLength="54" x="796.5" y="690">number</text><text fill="#000000" font-family="sans-serif" font-size="14" lengthAdjust="spacing" textLength="83" x="860.5" y="690">ABCD00001</text><line style="stroke:#A80036;stroke-width:1.0;" x1="855.5" x2="855.5" y1="674.4648" y2="694.9531"/><line style="stroke:#A80036;stroke-width:1.0;" x1="791.5" x2="1139.5" y1="694.9531" y2="694.9531"/><text fill="#000000" font-family="sans-serif" font-size="14" lengthAdjust="spacing" textLength="38" x="796.5" y="710.4883">name</text><text fill="#000000" font-family="sans-serif" font-size="14" lengthAdjust="spacing" textLength="70" x="860.5" y="710.4883">Eccellenca</text><line style="stroke:#A80036;stroke-width:1.0;" x1="855.5" x2="855.5" y1="694.9531" y2="715.4414"/><line style="stroke:#A80036;stroke-width:1.0;" x1="791.5" x2="1139.5" y1="715.4414" y2="715.4414"/><text fill="#000000" font-family="sans-serif" font-size="14" lengthAdjust="spacing" textLength="19" x="796.5" y="730.9766">url</text><text fill="#000000" font-family="sans-serif" font-size="14" lengthAdjust="spacing" textLength="274" x="860.5" y="730.9766">https://www.grants.ch/grant/abcd0001</text><line style="stroke:#A80036;stroke-width:1.0;" x1="855.5" x2="855.5" y1="715.4414" y2="735.9297"/><rect fill="none" height="122.9297" rx="5" ry="5" style="stroke:#A80036;stroke-width:1.5;" width="348" x="791.5" y="613"/><rect fill="#FEFECE" height="20.4883" rx="5" ry="5" style="stroke:#FEFECE;stroke-width:1.5;" width="133" x="1395.5" y="653.5"/><text fill="#000000" font-family="sans-serif" font-size="14" lengthAdjust="spacing" textLength="123" x="1400.5" y="669.0352">organization-001</text><rect fill="none" height="20.4883" rx="5" ry="5" style="stroke:#A80036;stroke-width:1.5;" width="133" x="1395.5" y="653.5"/><path d="M609,121.5 L622,121.5 C653.4803,121.5 631.4547,77.4222 658,60.5 C675.7736,49.1696 695.3389,40.6141 715.7248,34.2481 " fill="none" style="stroke:#A80036;stroke-width:1.0;stroke-dasharray:3.0,3.0;"/><path d="M716.5893,37.1454 L717.8978,33.5997 L714.8602,31.3507 L722.9681,32.0867 L716.5893,37.1454 " fill="#A80036" style="stroke:#A80036;stroke-width:1.0;"/><ellipse cx="609" cy="121.5" fill="#A80036" rx="3" ry="3" style="stroke:#A80036;stroke-width:1.0;stroke-dasharray:3.0,3.0;"/><path d="M965.2484,79.5 L978.2484,79.5 C1035.9231,79.5 1282.5063,79.5 1399.468,79.5 " fill="none" style="stroke:#A80036;stroke-width:1.0;stroke-dasharray:3.0,3.0;"/><path d="M1399.468,82.5053 L1401.7219,79.5 L1399.468,76.4947 L1406.9812,79.5 L1399.468,82.5053 " fill="#A80036" style="stroke:#A80036;stroke-width:1.0;"/><ellipse cx="965.2484" cy="79.5" fill="#A80036" rx="3" ry="3" style="stroke:#A80036;stroke-width:1.0;stroke-dasharray:3.0,3.0;"/><path d="M609,162.5 L622,162.5 C654.6357,162.5 630.3512,115.8386 658,98.5 C752.0462,39.5236 895.7883,63.7997 946.5046,75.01 " fill="none" style="stroke:#A80036;stroke-width:1.0;stroke-dasharray:3.0,3.0;"/><path d="M945.8357,77.9377 L948.7004,75.5117 L947.1735,72.0824 L953.8237,76.6823 L945.8357,77.9377 " fill="#A80036" style="stroke:#A80036;stroke-width:1.0;"/><ellipse cx="609" cy="162.5" fill="#A80036" rx="3" ry="3" style="stroke:#A80036;stroke-width:1.0;stroke-dasharray:3.0,3.0;"/><path d="M609,183.5 L622,183.5 C648.3125,183.5 634.7773,148.8714 658,136.5 C733.293,96.3894 834.1695,98.9413 899.3773,106.5294 " fill="none" style="stroke:#A80036;stroke-width:1.0;stroke-dasharray:3.0,3.0;"/><path d="M898.9982,109.6379 L901.7087,106.8137 L899.7565,103.4209 L907.1486,107.4772 L898.9982,109.6379 " fill="#A80036" style="stroke:#A80036;stroke-width:1.0;"/><ellipse cx="609" cy="183.5" fill="#A80036" rx="3" ry="3" style="stroke:#A80036;stroke-width:1.0;stroke-dasharray:3.0,3.0;"/><path d="M609,203.5 L622,203.5 C642.5456,203.5 638.8445,181.9289 658,174.5 C692.8902,160.9688 731.6835,153.422 769.6286,149.5971 " fill="none" style="stroke:#A80036;stroke-width:1.0;stroke-dasharray:3.0,3.0;"/><path d="M769.9151,152.6276 L771.9015,149.3823 L769.3422,146.5666 L777.205,148.8811 L769.9151,152.6276 " fill="#A80036" style="stroke:#A80036;stroke-width:1.0;"/><ellipse cx="609" cy="203.5" fill="#A80036" rx="3" ry="3" style="stroke:#A80036;stroke-width:1.0;stroke-dasharray:3.0,3.0;"/><path d="M609,224.5 L622,224.5 C638.8655,224.5 641.4437,215.7147 658,212.5 C696.4561,205.0331 738.0821,200.2854 777.9033,197.3117 " fill="none" style="stroke:#A80036;stroke-width:1.0;stroke-dasharray:3.0,3.0;"/><path d="M778.1319,200.4871 L780.2849,197.1402 L777.6748,194.1362 L785.842,196.7403 L778.1319,200.4871 " fill="#A80036" style="stroke:#A80036;stroke-width:1.0;"/><ellipse cx="609" cy="224.5" fill="#A80036" rx="3" ry="3" style="stroke:#A80036;stroke-width:1.0;stroke-dasharray:3.0,3.0;"/><path d="M609,245.5 L622,245.5 C694.4467,245.5 775.4292,242.3434 840.5065,239.028 " fill="none" style="stroke:#A80036;stroke-width:1.0;stroke-dasharray:3.0,3.0;"/><path d="M840.6685,242.1703 L842.8632,238.9065 L840.3446,235.8856 L848.3623,238.623 L840.6685,242.1703 " fill="#A80036" style="stroke:#A80036;stroke-width:1.0;"/><ellipse cx="609" cy="245.5" fill="#A80036" rx="3" ry="3" style="stroke:#A80036;stroke-width:1.0;stroke-dasharray:3.0,3.0;"/><path d="M609,265.5 L622,265.5 C675.4028,265.5 733.4379,267.3372 786.322,269.7258 " fill="none" style="stroke:#A80036;stroke-width:1.0;stroke-dasharray:3.0,3.0;"/><path d="M786.1795,272.8314 L788.6512,269.8326 L786.4645,266.6201 L794.086,270.082 L786.1795,272.8314 " fill="#A80036" style="stroke:#A80036;stroke-width:1.0;"/><ellipse cx="609" cy="265.5" fill="#A80036" rx="3" ry="3" style="stroke:#A80036;stroke-width:1.0;stroke-dasharray:3.0,3.0;"/><path d="M609,306.5 L622,306.5 C638.0555,306.5 641.9886,308.3114 658,309.5 C702.4357,312.7986 750.5121,316.0713 795.1375,318.9846 " fill="none" style="stroke:#A80036;stroke-width:1.0;stroke-dasharray:3.0,3.0;"/><path d="M794.9368,322.0681 L797.4502,319.1351 L795.3383,315.901 L802.8464,319.4865 L794.9368,322.0681 " fill="#A80036" style="stroke:#A80036;stroke-width:1.0;"/><ellipse cx="609" cy="306.5" fill="#A80036" rx="3" ry="3" style="stroke:#A80036;stroke-width:1.0;stroke-dasharray:3.0,3.0;"/><path d="M609,327.5 L622,327.5 C640.5233,327.5 640.2766,343.1156 658,348.5 C746.4432,375.3693 855.6407,374.5894 917.0906,371.2664 " fill="none" style="stroke:#A80036;stroke-width:1.0;stroke-dasharray:3.0,3.0;"/><path d="M917.266,374.3133 L919.3758,371.1349 L916.9153,368.2195 L924.7079,370.828 L917.266,374.3133 " fill="#A80036" style="stroke:#A80036;stroke-width:1.0;"/><ellipse cx="609" cy="327.5" fill="#A80036" rx="3" ry="3" style="stroke:#A80036;stroke-width:1.0;stroke-dasharray:3.0,3.0;"/><path d="M965.2484,405.5 L978.2484,405.5 C1033.7357,405.5 1264.0739,405.5 1385.6181,405.5 " fill="none" style="stroke:#A80036;stroke-width:1.0;stroke-dasharray:3.0,3.0;"/><path d="M1385.6181,408.6382 L1387.9718,405.5 L1385.6181,402.3618 L1393.4637,405.5 L1385.6181,408.6382 " fill="#A80036" style="stroke:#A80036;stroke-width:1.0;"/><ellipse cx="965.2484" cy="405.5" fill="#A80036" rx="3" ry="3" style="stroke:#A80036;stroke-width:1.0;stroke-dasharray:3.0,3.0;"/><path d="M609,347.5 L622,347.5 C645.5891,347.5 636.694,376.3759 658,386.5 C757.8299,433.937 896.914,417.0877 946.5208,408.8952 " fill="none" style="stroke:#A80036;stroke-width:1.0;stroke-dasharray:3.0,3.0;"/><path d="M947.0309,411.8675 L948.75,408.5126 L946.0107,405.9229 L953.9515,407.62 L947.0309,411.8675 " fill="#A80036" style="stroke:#A80036;stroke-width:1.0;"/><ellipse cx="609" cy="347.5" fill="#A80036" rx="3" ry="3" style="stroke:#A80036;stroke-width:1.0;stroke-dasharray:3.0,3.0;"/><path d="M609,368.5 L622,368.5 C651.5881,368.5 632.4807,409.526 658,424.5 C734.6772,469.4919 841.4607,464.0008 906.7647,454.6592 " fill="none" style="stroke:#A80036;stroke-width:1.0;stroke-dasharray:3.0,3.0;"/><path d="M907.2268,457.7606 L909.0907,454.3127 L906.3026,451.5578 L914.5182,453.504 L907.2268,457.7606 " fill="#A80036" style="stroke:#A80036;stroke-width:1.0;"/><ellipse cx="609" cy="368.5" fill="#A80036" rx="3" ry="3" style="stroke:#A80036;stroke-width:1.0;stroke-dasharray:3.0,3.0;"/><path d="M281,456.5 L294,456.5 C313.9204,456.5 337.949,435.2065 361.8957,405.252 " fill="none" style="stroke:#A80036;stroke-width:1.0;stroke-dasharray:3.0,3.0;"/><path d="M364.3368,407.1668 L363.3318,403.4212 L359.4547,403.3372 L366.6827,399.1494 L364.3368,407.1668 " fill="#A80036" style="stroke:#A80036;stroke-width:1.0;"/><ellipse cx="281" cy="456.5" fill="#A80036" rx="3" ry="3" style="stroke:#A80036;stroke-width:1.0;stroke-dasharray:3.0,3.0;"/><path d="M281,476.5 L294,476.5 C353.2483,476.5 423.1261,469.4844 456.0419,465.7607 " fill="none" style="stroke:#A80036;stroke-width:1.0;stroke-dasharray:3.0,3.0;"/><path d="M456.3897,468.778 L458.3049,465.4999 L455.6941,462.7435 L463.585,464.8912 L456.3897,468.778 " fill="#A80036" style="stroke:#A80036;stroke-width:1.0;"/><ellipse cx="281" cy="476.5" fill="#A80036" rx="3" ry="3" style="stroke:#A80036;stroke-width:1.0;stroke-dasharray:3.0,3.0;"/><path d="M281,497.5 L294,497.5 C353.1341,497.5 423.1354,497.5 456.0734,497.5 " fill="none" style="stroke:#A80036;stroke-width:1.0;stroke-dasharray:3.0,3.0;"/><path d="M456.0734,500.6632 L458.4458,497.5 L456.0734,494.3368 L463.9815,497.5 L456.0734,500.6632 " fill="#A80036" style="stroke:#A80036;stroke-width:1.0;"/><ellipse cx="281" cy="497.5" fill="#A80036" rx="3" ry="3" style="stroke:#A80036;stroke-width:1.0;stroke-dasharray:3.0,3.0;"/><path d="M1058,522.5 L1071,522.5 C1147.2363,522.5 1231.6307,517.125 1302.3998,511.085 " fill="none" style="stroke:#A80036;stroke-width:1.0;stroke-dasharray:3.0,3.0;"/><path d="M1302.6649,514.1572 L1304.704,510.8862 L1302.1348,508.0128 L1310.0804,510.4223 L1302.6649,514.1572 " fill="#A80036" style="stroke:#A80036;stroke-width:1.0;"/><ellipse cx="1058" cy="522.5" fill="#A80036" rx="3" ry="3" style="stroke:#A80036;stroke-width:1.0;stroke-dasharray:3.0,3.0;"/><path d="M1058,584.5 L1071,584.5 C1166.3667,584.5 1274.8341,584.5 1353.2101,584.5 " fill="none" style="stroke:#A80036;stroke-width:1.0;stroke-dasharray:3.0,3.0;"/><path d="M1353.2101,587.6868 L1355.6002,584.5 L1353.2101,581.3132 L1361.177,584.5 L1353.2101,587.6868 " fill="#A80036" style="stroke:#A80036;stroke-width:1.0;"/><ellipse cx="1058" cy="584.5" fill="#A80036" rx="3" ry="3" style="stroke:#A80036;stroke-width:1.0;stroke-dasharray:3.0,3.0;"/><path d="M475.0877,533.5 L488.0877,533.5 C537.8237,533.5 729.9098,533.5 854.608,533.5 " fill="none" style="stroke:#A80036;stroke-width:1.0;stroke-dasharray:3.0,3.0;"/><path d="M854.608,536.5968 L856.9305,533.5 L854.608,530.4032 L862.3499,533.5 L854.608,536.5968 " fill="#A80036" style="stroke:#A80036;stroke-width:1.0;"/><ellipse cx="475.0877" cy="533.5" fill="#A80036" rx="3" ry="3" style="stroke:#A80036;stroke-width:1.0;stroke-dasharray:3.0,3.0;"/><path d="M281,518.5 L294,518.5 C353.2986,518.5 423.1529,526.595 456.0526,530.8915 " fill="none" style="stroke:#A80036;stroke-width:1.0;stroke-dasharray:3.0,3.0;"/><path d="M455.6513,533.9072 L458.3143,531.1925 L456.4539,527.8758 L463.5918,531.8947 L455.6513,533.9072 " fill="#A80036" style="stroke:#A80036;stroke-width:1.0;"/><ellipse cx="281" cy="518.5" fill="#A80036" rx="3" ry="3" style="stroke:#A80036;stroke-width:1.0;stroke-dasharray:3.0,3.0;"/><path d="M1128,663.5 L1141,663.5 C1225.7481,663.5 1323.1015,663.5 1388.0626,663.5 " fill="none" style="stroke:#A80036;stroke-width:1.0;stroke-dasharray:3.0,3.0;"/><path d="M1388.0626,666.6034 L1390.3902,663.5 L1388.0626,660.3966 L1395.8211,663.5 L1388.0626,666.6034 " fill="#A80036" style="stroke:#A80036;stroke-width:1.0;"/><ellipse cx="1128" cy="663.5" fill="#A80036" rx="3" ry="3" style="stroke:#A80036;stroke-width:1.0;stroke-dasharray:3.0,3.0;"/><path d="M475.1606,622.4107 L488.0877,623.7854 C529.1393,628.1508 667.1693,642.8288 784.2398,655.2781 " fill="none" style="stroke:#A80036;stroke-width:1.0;stroke-dasharray:3.0,3.0;"/><path d="M783.9132,658.3499 L786.5437,655.5231 L784.5665,652.2062 L791.9195,656.0947 L783.9132,658.3499 " fill="#A80036" style="stroke:#A80036;stroke-width:1.0;"/><ellipse cx="475.1606" cy="622.4107" fill="#A80036" rx="3" ry="3" style="stroke:#A80036;stroke-width:1.0;stroke-dasharray:3.0,3.0;"/><path d="M281,538.5 L294,538.5 C302.842,538.5 412.7273,591.9389 456.845,613.5702 " fill="none" style="stroke:#A80036;stroke-width:1.0;stroke-dasharray:3.0,3.0;"/><path d="M455.4777,616.3559 L458.9342,614.5957 L458.2123,610.7845 L463.8092,616.9885 L455.4777,616.3559 " fill="#A80036" style="stroke:#A80036;stroke-width:1.0;"/><ellipse cx="281" cy="538.5" fill="#A80036" rx="3" ry="3" style="stroke:#A80036;stroke-width:1.0;stroke-dasharray:3.0,3.0;"/><!--MD5=[9121141be2f6bf44f8696554dd9031df]
@startjson API-Example

{
  "$schema": "./schema-metadata.json",
  "project": {
    "@id": "0000-project",
    "@type": "Project",
    "name": "Test Project Name",
    "shortcode": "0000",
    "description": {
      "de": "Dies ist ein einfaches Beipiel-Projekt zu Dokumentationszwecken.",
      "en": "This is a simple example project for documentation purposes."
    },
    "startDate": "2021-01-01",
    "keywords": [
      {
        "en": "history",
        "de": "Geschichte"
      }
    ],
    "disciplines": [
      "http://skos.um.es/unesco6/11"
    ],
    "temporalCoverage": [
      "http://chronontology.dainst.org/period/Ef9SyESSafJ1"
    ],
    "spatialCoverage": [
      "https://www.geonames.org/6255148/europe.html"
    ],
    "urls": [
      "https://dasch.swiss/someproject"
    ],
    "dataManagementPlan": {
      "available": true,
      "url": "https://dasch.swiss/someproject/dmp"
    },
    "endDate": "2022-01-01",
    "publications": [
      "Doe, J. (2020): Some publication. In: Journal for sample publications. Vol. 100.1, p. 1-32."
    ],
    "grants": [
      "grant-001"
    ],
    "alternateNames": [
      {
        "de": "Beispielprojekt",
        "en": "Sample Project"
      }
    ],
    "funders": [
      "organization-001"
    ],
    "contactPoint": "organization-001"
  },
  "datasets": [],
  "persons": [],
  "organizations": [
    {
      "@id": "organization-001",
      "@type": "Organization",
      "names": [
        "DaSCH",
        "Data and Service Center for the Humanities"
      ],
      "url": "https://dasch.swiss",
      "email": "info@dasch.swiss",
      "address": {
        "street": "Petersgraben 1",
        "additional": "Postfach",
        "postalCode": "4000",
        "locality": "Basel",
        "country": "Switzerland"
      }
    }
  ],
  "grants": [
    {
      "@id": "grant-001",
      "@type": "Grant",
      "funders": [
        "organization-001"
      ],
      "number": "ABCD00001",
      "name": "Eccellenca",
      "url": "https://www.grants.ch/grant/abcd0001"
    }
  ]
}


@endjson

PlantUML version 1.2021.2(Sun Mar 07 12:10:27 CET 2021)
(GPL source distribution)
Java Runtime: OpenJDK Runtime Environment
JVM: OpenJDK 64-Bit Server VM
Default Encoding: UTF-8
Language: en
Country: GB
--></g></svg>