<?xml version="1.0" encoding="UTF-8" standalone="no"?><svg xmlns="http://www.w3.org/2000/svg" xmlns:xlink="http://www.w3.org/1999/xlink" contentScriptType="application/ecmascript" contentStyleType="text/css" height="422px" preserveAspectRatio="none" style="width:1304px;height:422px;" version="1.1" viewBox="0 0 1304 422" width="1304px" zoomAndPan="magnify"><defs/><g><rect fill="#FEFECE" height="122.9297" rx="5" ry="5" style="stroke:#FEFECE;stroke-width:1.5;" width="283" x="10" y="264.5"/><text fill="#000000" font-family="sans-serif" font-size="14" lengthAdjust="spacing" textLength="61" x="15" y="280.0352">$schema</text><text fill="#000000" font-family="sans-serif" font-size="14" lengthAdjust="spacing" textLength="168" x="120" y="280.0352">./schema-metadata.json</text><line style="stroke:#A80036;stroke-width:1.0;" x1="115" x2="115" y1="264.5" y2="284.9883"/><line style="stroke:#A80036;stroke-width:1.0;" x1="10" x2="293" y1="284.9883" y2="284.9883"/><text fill="#000000" font-family="sans-serif" font-size="14" lengthAdjust="spacing" textLength="48" x="15" y="300.5234">project</text><text fill="#000000" font-family="sans-serif" font-size="14" lengthAdjust="spacing" textLength="0" x="132" y="300.5234"/><line style="stroke:#A80036;stroke-width:1.0;" x1="115" x2="115" y1="284.9883" y2="305.4766"/><line style="stroke:#A80036;stroke-width:1.0;" x1="10" x2="293" y1="305.4766" y2="305.4766"/><text fill="#000000" font-family="sans-serif" font-size="14" lengthAdjust="spacing" textLength="57" x="15" y="321.0117">datasets</text><text fill="#000000" font-family="sans-serif" font-size="14" lengthAdjust="spacing" textLength="0" x="132" y="321.0117"/><line style="stroke:#A80036;stroke-width:1.0;" x1="115" x2="115" y1="305.4766" y2="325.9648"/><line style="stroke:#A80036;stroke-width:1.0;" x1="10" x2="293" y1="325.9648" y2="325.9648"/><text fill="#000000" font-family="sans-serif" font-size="14" lengthAdjust="spacing" textLength="55" x="15" y="341.5">persons</text><text fill="#000000" font-family="sans-serif" font-size="14" lengthAdjust="spacing" textLength="0" x="132" y="341.5"/><line style="stroke:#A80036;stroke-width:1.0;" x1="115" x2="115" y1="325.9648" y2="346.4531"/><line style="stroke:#A80036;stroke-width:1.0;" x1="10" x2="293" y1="346.4531" y2="346.4531"/><text fill="#000000" font-family="sans-serif" font-size="14" lengthAdjust="spacing" textLength="95" x="15" y="361.9883">organizations</text><text fill="#000000" font-family="sans-serif" font-size="14" lengthAdjust="spacing" textLength="0" x="132" y="361.9883"/><line style="stroke:#A80036;stroke-width:1.0;" x1="115" x2="115" y1="346.4531" y2="366.9414"/><line style="stroke:#A80036;stroke-width:1.0;" x1="10" x2="293" y1="366.9414" y2="366.9414"/><text fill="#000000" font-family="sans-serif" font-size="14" lengthAdjust="spacing" textLength="44" x="15" y="382.4766">grants</text><text fill="#000000" font-family="sans-serif" font-size="14" lengthAdjust="spacing" textLength="0" x="132" y="382.4766"/><line style="stroke:#A80036;stroke-width:1.0;" x1="115" x2="115" y1="366.9414" y2="387.4297"/><rect fill="none" height="122.9297" rx="5" ry="5" style="stroke:#A80036;stroke-width:1.5;" width="283" x="10" y="264.5"/><rect fill="#FEFECE" height="266.3477" rx="5" ry="5" style="stroke:#FEFECE;stroke-width:1.5;" width="291" x="330" y="10"/><text fill="#000000" font-family="sans-serif" font-size="14" lengthAdjust="spacing" textLength="25" x="335" y="25.5352">@id</text><text fill="#000000" font-family="sans-serif" font-size="14" lengthAdjust="spacing" textLength="92" x="493" y="25.5352">0000-project</text><line style="stroke:#A80036;stroke-width:1.0;" x1="488" x2="488" y1="10" y2="30.4883"/><line style="stroke:#A80036;stroke-width:1.0;" x1="330" x2="621" y1="30.4883" y2="30.4883"/><text fill="#000000" font-family="sans-serif" font-size="14" lengthAdjust="spacing" textLength="41" x="335" y="46.0234">@type</text><text fill="#000000" font-family="sans-serif" font-size="14" lengthAdjust="spacing" textLength="47" x="493" y="46.0234">Project</text><line style="stroke:#A80036;stroke-width:1.0;" x1="488" x2="488" y1="30.4883" y2="50.9766"/><line style="stroke:#A80036;stroke-width:1.0;" x1="330" x2="621" y1="50.9766" y2="50.9766"/><text fill="#000000" font-family="sans-serif" font-size="14" lengthAdjust="spacing" textLength="38" x="335" y="66.5117">name</text><text fill="#000000" font-family="sans-serif" font-size="14" lengthAdjust="spacing" textLength="123" x="493" y="66.5117">Test Project Name</text><line style="stroke:#A80036;stroke-width:1.0;" x1="488" x2="488" y1="50.9766" y2="71.4648"/><line style="stroke:#A80036;stroke-width:1.0;" x1="330" x2="621" y1="71.4648" y2="71.4648"/><text fill="#000000" font-family="sans-serif" font-size="14" lengthAdjust="spacing" textLength="69" x="335" y="87">shortcode</text><text fill="#000000" font-family="sans-serif" font-size="14" lengthAdjust="spacing" textLength="36" x="493" y="87">0000</text><line style="stroke:#A80036;stroke-width:1.0;" x1="488" x2="488" y1="71.4648" y2="91.9531"/><line style="stroke:#A80036;stroke-width:1.0;" x1="330" x2="621" y1="91.9531" y2="91.9531"/><text fill="#000000" font-family="sans-serif" font-size="14" lengthAdjust="spacing" textLength="77" x="335" y="107.4883">description</text><text fill="#000000" font-family="sans-serif" font-size="14" lengthAdjust="spacing" textLength="0" x="505" y="107.4883"/><line style="stroke:#A80036;stroke-width:1.0;" x1="488" x2="488" y1="91.9531" y2="112.4414"/><line style="stroke:#A80036;stroke-width:1.0;" x1="330" x2="621" y1="112.4414" y2="112.4414"/><text fill="#000000" font-family="sans-serif" font-size="14" lengthAdjust="spacing" textLength="62" x="335" y="127.9766">startDate</text><text fill="#000000" font-family="sans-serif" font-size="14" lengthAdjust="spacing" textLength="88" x="493" y="127.9766">2021-01-01</text><line style="stroke:#A80036;stroke-width:1.0;" x1="488" x2="488" y1="112.4414" y2="132.9297"/><line style="stroke:#A80036;stroke-width:1.0;" x1="330" x2="621" y1="132.9297" y2="132.9297"/><text fill="#000000" font-family="sans-serif" font-size="14" lengthAdjust="spacing" textLength="65" x="335" y="148.4648">keywords</text><text fill="#000000" font-family="sans-serif" font-size="14" lengthAdjust="spacing" textLength="0" x="505" y="148.4648"/><line style="stroke:#A80036;stroke-width:1.0;" x1="488" x2="488" y1="132.9297" y2="153.418"/><line style="stroke:#A80036;stroke-width:1.0;" x1="330" x2="621" y1="153.418" y2="153.418"/><text fill="#000000" font-family="sans-serif" font-size="14" lengthAdjust="spacing" textLength="72" x="335" y="168.9531">disciplines</text><text fill="#000000" font-family="sans-serif" font-size="14" lengthAdjust="spacing" textLength="0" x="505" y="168.9531"/><line style="stroke:#A80036;stroke-width:1.0;" x1="488" x2="488" y1="153.418" y2="173.9063"/><line style="stroke:#A80036;stroke-width:1.0;" x1="330" x2="621" y1="173.9063" y2="173.9063"/><text fill="#000000" font-family="sans-serif" font-size="14" lengthAdjust="spacing" textLength="127" x="335" y="189.4414">temporalCoverage</text><text fill="#000000" font-family="sans-serif" font-size="14" lengthAdjust="spacing" textLength="0" x="505" y="189.4414"/><line style="stroke:#A80036;stroke-width:1.0;" x1="488" x2="488" y1="173.9063" y2="194.3945"/><line style="stroke:#A80036;stroke-width:1.0;" x1="330" x2="621" y1="194.3945" y2="194.3945"/><text fill="#000000" font-family="sans-serif" font-size="14" lengthAdjust="spacing" textLength="110" x="335" y="209.9297">spatialCoverage</text><text fill="#000000" font-family="sans-serif" font-size="14" lengthAdjust="spacing" textLength="0" x="505" y="209.9297"/><line style="stroke:#A80036;stroke-width:1.0;" x1="488" x2="488" y1="194.3945" y2="214.8828"/><line style="stroke:#A80036;stroke-width:1.0;" x1="330" x2="621" y1="214.8828" y2="214.8828"/><text fill="#000000" font-family="sans-serif" font-size="14" lengthAdjust="spacing" textLength="26" x="335" y="230.418">urls</text><text fill="#000000" font-family="sans-serif" font-size="14" lengthAdjust="spacing" textLength="0" x="505" y="230.418"/><line style="stroke:#A80036;stroke-width:1.0;" x1="488" x2="488" y1="214.8828" y2="235.3711"/><line style="stroke:#A80036;stroke-width:1.0;" x1="330" x2="621" y1="235.3711" y2="235.3711"/><text fill="#000000" font-family="sans-serif" font-size="14" lengthAdjust="spacing" textLength="148" x="335" y="250.9063">dataManagementPlan</text><text fill="#000000" font-family="sans-serif" font-size="14" lengthAdjust="spacing" textLength="0" x="505" y="250.9063"/><line style="stroke:#A80036;stroke-width:1.0;" x1="488" x2="488" y1="235.3711" y2="255.8594"/><line style="stroke:#A80036;stroke-width:1.0;" x1="330" x2="621" y1="255.8594" y2="255.8594"/><text fill="#000000" font-family="sans-serif" font-size="14" lengthAdjust="spacing" textLength="57" x="335" y="271.3945">endDate</text><text fill="#000000" font-family="sans-serif" font-size="14" lengthAdjust="spacing" textLength="88" x="493" y="271.3945">2022-01-01</text><line style="stroke:#A80036;stroke-width:1.0;" x1="488" x2="488" y1="255.8594" y2="276.3477"/><rect fill="none" height="266.3477" rx="5" ry="5" style="stroke:#A80036;stroke-width:1.5;" width="291" x="330" y="10"/><rect fill="#FEFECE" height="40.9766" rx="5" ry="5" style="stroke:#FEFECE;stroke-width:1.5;" width="486" x="658" y="38.5"/><text fill="#000000" font-family="sans-serif" font-size="14" lengthAdjust="spacing" textLength="17" x="663" y="54.0352">de</text><text fill="#000000" font-family="sans-serif" font-size="14" lengthAdjust="spacing" textLength="449" x="690" y="54.0352">Dies ist ein einfaches Beipiel-Projekt zu Dokumentationszwecken.</text><line style="stroke:#A80036;stroke-width:1.0;" x1="685" x2="685" y1="38.5" y2="58.9883"/><line style="stroke:#A80036;stroke-width:1.0;" x1="658" x2="1144" y1="58.9883" y2="58.9883"/><text fill="#000000" font-family="sans-serif" font-size="14" lengthAdjust="spacing" textLength="17" x="663" y="74.5234">en</text><text fill="#000000" font-family="sans-serif" font-size="14" lengthAdjust="spacing" textLength="424" x="690" y="74.5234">This is a simple example project for documentation purposes.</text><line style="stroke:#A80036;stroke-width:1.0;" x1="685" x2="685" y1="58.9883" y2="79.4766"/><rect fill="none" height="40.9766" rx="5" ry="5" style="stroke:#A80036;stroke-width:1.5;" width="486" x="658" y="38.5"/><rect fill="#FEFECE" height="20.4883" rx="5" ry="5" style="stroke:#FEFECE;stroke-width:1.5;" width="22" x="889" y="98"/><text fill="#000000" font-family="sans-serif" font-size="14" lengthAdjust="spacing" textLength="0" x="906" y="113.5352"/><rect fill="none" height="20.4883" rx="5" ry="5" style="stroke:#A80036;stroke-width:1.5;" width="22" x="889" y="98"/><rect fill="#FEFECE" height="40.9766" rx="5" ry="5" style="stroke:#FEFECE;stroke-width:1.5;" width="111" x="1181" y="87.5"/><text fill="#000000" font-family="sans-serif" font-size="14" lengthAdjust="spacing" textLength="17" x="1186" y="103.0352">en</text><text fill="#000000" font-family="sans-serif" font-size="14" lengthAdjust="spacing" textLength="47" x="1213" y="103.0352">history</text><line style="stroke:#A80036;stroke-width:1.0;" x1="1208" x2="1208" y1="87.5" y2="107.9883"/><line style="stroke:#A80036;stroke-width:1.0;" x1="1181" x2="1292" y1="107.9883" y2="107.9883"/><text fill="#000000" font-family="sans-serif" font-size="14" lengthAdjust="spacing" textLength="17" x="1186" y="123.5234">de</text><text fill="#000000" font-family="sans-serif" font-size="14" lengthAdjust="spacing" textLength="74" x="1213" y="123.5234">Geschichte</text><line style="stroke:#A80036;stroke-width:1.0;" x1="1208" x2="1208" y1="107.9883" y2="128.4766"/><rect fill="none" height="40.9766" rx="5" ry="5" style="stroke:#A80036;stroke-width:1.5;" width="111" x="1181" y="87.5"/><rect fill="#FEFECE" height="20.4883" rx="5" ry="5" style="stroke:#FEFECE;stroke-width:1.5;" width="222" x="790" y="136"/><text fill="#000000" font-family="sans-serif" font-size="14" lengthAdjust="spacing" textLength="212" x="795" y="151.5352">http://skos.um.es/unesco6/11</text><rect fill="none" height="20.4883" rx="5" ry="5" style="stroke:#A80036;stroke-width:1.5;" width="222" x="790" y="136"/><rect fill="#FEFECE" height="20.4883" rx="5" ry="5" style="stroke:#FEFECE;stroke-width:1.5;" width="377" x="712.5" y="174"/><text fill="#000000" font-family="sans-serif" font-size="14" lengthAdjust="spacing" textLength="367" x="717.5" y="189.5352">http://chronontology.dainst.org/period/Ef9SyESSafJ1</text><rect fill="none" height="20.4883" rx="5" ry="5" style="stroke:#A80036;stroke-width:1.5;" width="377" x="712.5" y="174"/><rect fill="#FEFECE" height="20.4883" rx="5" ry="5" style="stroke:#FEFECE;stroke-width:1.5;" width="360" x="721" y="212"/><text fill="#000000" font-family="sans-serif" font-size="14" lengthAdjust="spacing" textLength="350" x="726" y="227.5352">https://www.geonames.org/6255148/europe.html</text><rect fill="none" height="20.4883" rx="5" ry="5" style="stroke:#A80036;stroke-width:1.5;" width="360" x="721" y="212"/><rect fill="#FEFECE" height="20.4883" rx="5" ry="5" style="stroke:#FEFECE;stroke-width:1.5;" width="235" x="783.5" y="250"/><text fill="#000000" font-family="sans-serif" font-size="14" lengthAdjust="spacing" textLength="225" x="788.5" y="265.5352">https://dasch.swiss/someproject</text><rect fill="none" height="20.4883" rx="5" ry="5" style="stroke:#A80036;stroke-width:1.5;" width="235" x="783.5" y="250"/><rect fill="#FEFECE" height="40.9766" rx="5" ry="5" style="stroke:#FEFECE;stroke-width:1.5;" width="343" x="729.5" y="288.5"/><text fill="#000000" font-family="sans-serif" font-size="14" lengthAdjust="spacing" textLength="60" x="734.5" y="304.0352">available</text><text fill="#000000" font-family="sans-serif" font-size="14" lengthAdjust="spacing" textLength="44" x="804.5" y="304.0352">☑ true</text><line style="stroke:#A80036;stroke-width:1.0;" x1="799.5" x2="799.5" y1="288.5" y2="308.9883"/><line style="stroke:#A80036;stroke-width:1.0;" x1="729.5" x2="1072.5" y1="308.9883" y2="308.9883"/><text fill="#000000" font-family="sans-serif" font-size="14" lengthAdjust="spacing" textLength="19" x="734.5" y="324.5234">url</text><text fill="#000000" font-family="sans-serif" font-size="14" lengthAdjust="spacing" textLength="263" x="804.5" y="324.5234">https://dasch.swiss/someproject/dmp</text><line style="stroke:#A80036;stroke-width:1.0;" x1="799.5" x2="799.5" y1="308.9883" y2="329.4766"/><rect fill="none" height="40.9766" rx="5" ry="5" style="stroke:#A80036;stroke-width:1.5;" width="343" x="729.5" y="288.5"/><rect fill="#FEFECE" height="15" rx="5" ry="5" style="stroke:#FEFECE;stroke-width:1.5;" width="30" x="463.5" y="294"/><rect fill="none" height="15" rx="5" ry="5" style="stroke:#A80036;stroke-width:1.5;" width="30" x="463.5" y="294"/><rect fill="#FEFECE" height="15" rx="5" ry="5" style="stroke:#FEFECE;stroke-width:1.5;" width="30" x="463.5" y="328"/><rect fill="none" height="15" rx="5" ry="5" style="stroke:#A80036;stroke-width:1.5;" width="30" x="463.5" y="328"/><rect fill="#FEFECE" height="15" rx="5" ry="5" style="stroke:#FEFECE;stroke-width:1.5;" width="30" x="463.5" y="362"/><rect fill="none" height="15" rx="5" ry="5" style="stroke:#A80036;stroke-width:1.5;" width="30" x="463.5" y="362"/><rect fill="#FEFECE" height="15" rx="5" ry="5" style="stroke:#FEFECE;stroke-width:1.5;" width="30" x="463.5" y="396"/><rect fill="none" height="15" rx="5" ry="5" style="stroke:#A80036;stroke-width:1.5;" width="30" x="463.5" y="396"/><path d="M609,101 L622,101 C638.8655,101 641.55,92.7203 658,89 C671.1791,86.0194 684.8327,83.3161 698.6387,80.8672 " fill="none" style="stroke:#A80036;stroke-width:1.0;stroke-dasharray:3.0,3.0;"/><path d="M699.1725,83.9407 L700.9438,80.4669 L698.105,77.7938 L706.3224,79.5328 L699.1725,83.9407 " fill="#A80036" style="stroke:#A80036;stroke-width:1.0;"/><ellipse cx="609" cy="101" fill="#A80036" rx="3" ry="3" style="stroke:#A80036;stroke-width:1.0;stroke-dasharray:3.0,3.0;"/><path d="M900.8017,108 L913.8017,108 C955.3077,108 1092.1309,108 1173.524,108 " fill="none" style="stroke:#A80036;stroke-width:1.0;stroke-dasharray:3.0,3.0;"/><path d="M1173.524,111.0795 L1175.8336,108 L1173.524,104.9205 L1181.2227,108 L1173.524,111.0795 " fill="#A80036" style="stroke:#A80036;stroke-width:1.0;"/><ellipse cx="900.8017" cy="108" fill="#A80036" rx="3" ry="3" style="stroke:#A80036;stroke-width:1.0;stroke-dasharray:3.0,3.0;"/><path d="M609,142 L622,142 C639.3333,142 641.1491,131.0611 658,127 C739.4254,107.3764 840.2397,106.7551 881.5253,107.4708 " fill="none" style="stroke:#A80036;stroke-width:1.0;stroke-dasharray:3.0,3.0;"/><path d="M881.4608,110.5346 L883.8231,107.5191 L881.5897,104.407 L889.1847,107.632 L881.4608,110.5346 " fill="#A80036" style="stroke:#A80036;stroke-width:1.0;"/><ellipse cx="609" cy="142" fill="#A80036" rx="3" ry="3" style="stroke:#A80036;stroke-width:1.0;stroke-dasharray:3.0,3.0;"/><path d="M609,163 L622,163 C674.8715,163 733.2844,159.9098 782.9025,156.3644 " fill="none" style="stroke:#A80036;stroke-width:1.0;stroke-dasharray:3.0,3.0;"/><path d="M783.1222,159.3923 L785.1734,156.1996 L782.6828,153.3364 L790.4724,155.8151 L783.1222,159.3923 " fill="#A80036" style="stroke:#A80036;stroke-width:1.0;"/><ellipse cx="609" cy="163" fill="#A80036" rx="3" ry="3" style="stroke:#A80036;stroke-width:1.0;stroke-dasharray:3.0,3.0;"/><path d="M609,184 L622,184 C648.8488,184 677.1536,184 705.0194,184 " fill="none" style="stroke:#A80036;stroke-width:1.0;stroke-dasharray:3.0,3.0;"/><path d="M705.0194,187.1386 L707.3733,184 L705.0194,180.8614 L712.8658,184 L705.0194,187.1386 " fill="#A80036" style="stroke:#A80036;stroke-width:1.0;"/><ellipse cx="609" cy="184" fill="#A80036" rx="3" ry="3" style="stroke:#A80036;stroke-width:1.0;stroke-dasharray:3.0,3.0;"/><path d="M609,204 L622,204 C676.6116,204 737.1219,207.4894 787.7498,211.3955 " fill="none" style="stroke:#A80036;stroke-width:1.0;stroke-dasharray:3.0,3.0;"/><path d="M787.5081,214.4821 L790.0648,211.5768 L787.9916,208.3088 L795.4665,211.9999 L787.5081,214.4821 " fill="#A80036" style="stroke:#A80036;stroke-width:1.0;"/><ellipse cx="609" cy="204" fill="#A80036" rx="3" ry="3" style="stroke:#A80036;stroke-width:1.0;stroke-dasharray:3.0,3.0;"/><path d="M609,225 L622,225 C639.5091,225 641.0275,236.6986 658,241 C695.8014,250.5801 737.885,255.7211 776.2428,258.3788 " fill="none" style="stroke:#A80036;stroke-width:1.0;stroke-dasharray:3.0,3.0;"/><path d="M776.0432,261.4266 L778.5287,258.5285 L776.4424,255.331 L783.8623,258.8779 L776.0432,261.4266 " fill="#A80036" style="stroke:#A80036;stroke-width:1.0;"/><ellipse cx="609" cy="225" fill="#A80036" rx="3" ry="3" style="stroke:#A80036;stroke-width:1.0;stroke-dasharray:3.0,3.0;"/><path d="M609,245 L622,245 C644.0079,245 638.088,269.6268 658,279 C678.0867,288.4555 700.0952,295.2987 722.4003,300.2026 " fill="none" style="stroke:#A80036;stroke-width:1.0;stroke-dasharray:3.0,3.0;"/><path d="M721.7644,303.232 L724.6723,300.6795 L723.0362,297.1733 L729.9737,301.7923 L721.7644,303.232 " fill="#A80036" style="stroke:#A80036;stroke-width:1.0;"/><ellipse cx="609" cy="245" fill="#A80036" rx="3" ry="3" style="stroke:#A80036;stroke-width:1.0;stroke-dasharray:3.0,3.0;"/><path d="M281,295 L294,295 C304.0526,295 316.8874,289.4322 331.0711,280.4278 " fill="none" style="stroke:#A80036;stroke-width:1.0;stroke-dasharray:3.0,3.0;"/><path d="M332.8197,283.0704 L333.0531,279.1164 L329.3226,277.7851 L337.6778,276.0564 L332.8197,283.0704 " fill="#A80036" style="stroke:#A80036;stroke-width:1.0;"/><ellipse cx="281" cy="295" fill="#A80036" rx="3" ry="3" style="stroke:#A80036;stroke-width:1.0;stroke-dasharray:3.0,3.0;"/><path d="M281,315 L294,315 C353.2483,315 423.1261,307.9844 456.0419,304.2607 " fill="none" style="stroke:#A80036;stroke-width:1.0;stroke-dasharray:3.0,3.0;"/><path d="M456.3897,307.278 L458.3049,303.9999 L455.6941,301.2435 L463.585,303.3912 L456.3897,307.278 " fill="#A80036" style="stroke:#A80036;stroke-width:1.0;"/><ellipse cx="281" cy="315" fill="#A80036" rx="3" ry="3" style="stroke:#A80036;stroke-width:1.0;stroke-dasharray:3.0,3.0;"/><path d="M281,336 L294,336 C353.1341,336 423.1354,336 456.0734,336 " fill="none" style="stroke:#A80036;stroke-width:1.0;stroke-dasharray:3.0,3.0;"/><path d="M456.0734,339.1632 L458.4458,336 L456.0734,332.8368 L463.9815,336 L456.0734,339.1632 " fill="#A80036" style="stroke:#A80036;stroke-width:1.0;"/><ellipse cx="281" cy="336" fill="#A80036" rx="3" ry="3" style="stroke:#A80036;stroke-width:1.0;stroke-dasharray:3.0,3.0;"/><path d="M281,357 L294,357 C353.2483,357 423.1261,364.0156 456.0419,367.7393 " fill="none" style="stroke:#A80036;stroke-width:1.0;stroke-dasharray:3.0,3.0;"/><path d="M455.6941,370.7565 L458.3049,368.0001 L456.3897,364.722 L463.585,368.6088 L455.6941,370.7565 " fill="#A80036" style="stroke:#A80036;stroke-width:1.0;"/><ellipse cx="281" cy="357" fill="#A80036" rx="3" ry="3" style="stroke:#A80036;stroke-width:1.0;stroke-dasharray:3.0,3.0;"/><path d="M281,377 L294,377 C310.6058,377 313.7051,383.8014 330,387 C374.854,395.8045 428.4715,400.6407 456.2453,402.7302 " fill="none" style="stroke:#A80036;stroke-width:1.0;stroke-dasharray:3.0,3.0;"/><path d="M456.0207,405.8308 L458.5708,402.8987 L456.47,399.6296 L463.9968,403.2919 L456.0207,405.8308 " fill="#A80036" style="stroke:#A80036;stroke-width:1.0;"/><ellipse cx="281" cy="377" fill="#A80036" rx="3" ry="3" style="stroke:#A80036;stroke-width:1.0;stroke-dasharray:3.0,3.0;"/><!--MD5=[dabff5bb9f24d4bbbf7445003ffd0a34]
@startjson

{
  "$schema": "./schema-metadata.json",
  "project": {
    "@id": "0000-project",
    "@type": "Project",
    "name": "Test Project Name",
    "shortcode": "0000",
    "description": {
      "de": "Dies ist ein einfaches Beipiel-Projekt zu Dokumentationszwecken.",
      "en": "This is a simple example project for documentation purposes."
    },
    "startDate": "2021-01-01",
    "keywords": [
      {
        "en": "history",
        "de": "Geschichte"
      }
    ],
    "disciplines": [
      "http://skos.um.es/unesco6/11"
    ],
    "temporalCoverage": [
      "http://chronontology.dainst.org/period/Ef9SyESSafJ1"
    ],
    "spatialCoverage": [
      "https://www.geonames.org/6255148/europe.html"
    ],
    "urls": [
      "https://dasch.swiss/someproject"
    ],
    "dataManagementPlan": {
      "available": true,
      "url": "https://dasch.swiss/someproject/dmp"
    },
    "endDate": "2022-01-01"
  },
  "datasets": [],
  "persons": [],
  "organizations": [],
  "grants": []
}


@endjson

PlantUML version 1.2021.2(Sun Mar 07 12:10:27 CET 2021)
(GPL source distribution)
Java Runtime: OpenJDK Runtime Environment
JVM: OpenJDK 64-Bit Server VM
Default Encoding: UTF-8
Language: en
Country: GB
--></g></svg>