<?xml version="1.0" encoding="UTF-8" standalone="no"?><svg xmlns="http://www.w3.org/2000/svg" xmlns:xlink="http://www.w3.org/1999/xlink" contentScriptType="application/ecmascript" contentStyleType="text/css" height="550px" preserveAspectRatio="none" style="width:630px;height:550px;" version="1.1" viewBox="0 0 630 550" width="630px" zoomAndPan="magnify"><defs><filter height="300%" id="f16c8tyvrz65xe" width="300%" x="-1" y="-1"><feGaussianBlur result="blurOut" stdDeviation="2.0"/><feColorMatrix in="blurOut" result="blurOut2" type="matrix" values="0 0 0 0 0 0 0 0 0 0 0 0 0 0 0 0 0 0 .4 0"/><feOffset dx="4.0" dy="4.0" in="blurOut2" result="blurOut3"/><feBlend in="SourceGraphic" in2="blurOut3" mode="normal"/></filter></defs><g><!--class Project--><rect fill="#FEFECE" filter="url(#f16c8tyvrz65xe)" height="422.7422" id="Project" style="stroke: #A80036; stroke-width: 1.5;" width="262" x="357" y="8"/><ellipse cx="463.75" cy="24" fill="#ADD1B2" rx="11" ry="11" style="stroke: #A80036; stroke-width: 1.0;"/><path d="M466.2231,30.1431 Q465.6421,30.4419 465.0029,30.5913 Q464.3638,30.7407 463.6582,30.7407 Q461.1514,30.7407 459.8315,29.0889 Q458.5117,27.437 458.5117,24.3159 Q458.5117,21.1865 459.8315,19.5347 Q461.1514,17.8828 463.6582,17.8828 Q464.3638,17.8828 465.0112,18.0322 Q465.6587,18.1816 466.2231,18.4805 L466.2231,21.2031 Q465.5923,20.6221 464.9988,20.3523 Q464.4053,20.0825 463.7744,20.0825 Q462.4297,20.0825 461.7449,21.1492 Q461.0601,22.2158 461.0601,24.3159 Q461.0601,26.4077 461.7449,27.4744 Q462.4297,28.541 463.7744,28.541 Q464.4053,28.541 464.9988,28.2712 Q465.5923,28.0015 466.2231,27.4204 Z "/><text fill="#000000" font-family="sans-serif" font-size="12" lengthAdjust="spacingAndGlyphs" textLength="40" x="484.25" y="28.5352">Project</text><line style="stroke: #A80036; stroke-width: 1.5;" x1="358" x2="618" y1="40" y2="40"/><text fill="#000000" font-family="sans-serif" font-size="11" lengthAdjust="spacingAndGlyphs" textLength="63" x="363" y="54.6348">The Project.</text><line style="stroke: #A80036; stroke-width: 1.0;" x1="358" x2="447" y1="67.4326" y2="67.4326"/><text fill="#000000" font-family="sans-serif" font-size="11" lengthAdjust="spacingAndGlyphs" textLength="82" x="447" y="71.0898">Required Fields</text><line style="stroke: #A80036; stroke-width: 1.0;" x1="529" x2="618" y1="67.4326" y2="67.4326"/><ellipse cx="368" cy="101.3203" fill="none" rx="3" ry="3" style="stroke: #038048; stroke-width: 1.0;"/><text fill="#000000" font-family="sans-serif" font-size="11" lengthAdjust="spacingAndGlyphs" textLength="90" x="377" y="103.9775">string shortcode</text><ellipse cx="368" cy="114.2754" fill="none" rx="3" ry="3" style="stroke: #038048; stroke-width: 1.0;"/><text fill="#000000" font-family="sans-serif" font-size="11" lengthAdjust="spacingAndGlyphs" textLength="64" x="377" y="116.9326">string name</text><ellipse cx="368" cy="127.2305" fill="none" rx="3" ry="3" style="stroke: #038048; stroke-width: 1.0;"/><text fill="#000000" font-family="sans-serif" font-size="11" lengthAdjust="spacingAndGlyphs" textLength="88" x="377" y="129.8877">Text description</text><ellipse cx="368" cy="140.1855" fill="none" rx="3" ry="3" style="stroke: #038048; stroke-width: 1.0;"/><text fill="#000000" font-family="sans-serif" font-size="11" lengthAdjust="spacingAndGlyphs" textLength="76" x="377" y="142.8428">Date startDate</text><text fill="#000000" font-family="sans-serif" font-size="11" lengthAdjust="spacingAndGlyphs" textLength="0" x="380" y="155.7979"/><line style="stroke: #A80036; stroke-width: 1.0; stroke-dasharray: 1.0,2.0;" x1="358" x2="480.5" y1="86.8652" y2="86.8652"/><text fill="#000000" font-family="sans-serif" font-size="11" lengthAdjust="spacingAndGlyphs" textLength="15" x="480.5" y="90.5225">(1)</text><line style="stroke: #A80036; stroke-width: 1.0; stroke-dasharray: 1.0,2.0;" x1="495.5" x2="618" y1="86.8652" y2="86.8652"/><ellipse cx="368" cy="183.0508" fill="none" rx="3" ry="3" style="stroke: #038048; stroke-width: 1.0;"/><text fill="#000000" font-family="sans-serif" font-size="11" lengthAdjust="spacingAndGlyphs" textLength="96" x="377" y="185.708">Dataset[] datasets</text><ellipse cx="368" cy="196.0059" fill="none" rx="3" ry="3" style="stroke: #038048; stroke-width: 1.0;"/><text fill="#000000" font-family="sans-serif" font-size="11" lengthAdjust="spacingAndGlyphs" textLength="86" x="377" y="198.6631">Text[] keywords</text><ellipse cx="368" cy="208.9609" fill="none" rx="3" ry="3" style="stroke: #038048; stroke-width: 1.0;"/><text fill="#000000" font-family="sans-serif" font-size="11" lengthAdjust="spacingAndGlyphs" textLength="111" x="377" y="211.6182">Text[]|URL discipline</text><ellipse cx="368" cy="221.916" fill="none" rx="3" ry="3" style="stroke: #038048; stroke-width: 1.0;"/><text fill="#000000" font-family="sans-serif" font-size="11" lengthAdjust="spacingAndGlyphs" textLength="159" x="377" y="224.5732">Text[]|URL temporalCoverage</text><ellipse cx="368" cy="234.8711" fill="none" rx="3" ry="3" style="stroke: #038048; stroke-width: 1.0;"/><text fill="#000000" font-family="sans-serif" font-size="11" lengthAdjust="spacingAndGlyphs" textLength="116" x="377" y="237.5283">Place spatialCoverage</text><text fill="#000000" font-family="sans-serif" font-size="11" lengthAdjust="spacingAndGlyphs" textLength="0" x="380" y="250.4834"/><line style="stroke: #A80036; stroke-width: 1.0; stroke-dasharray: 1.0,2.0;" x1="358" x2="471" y1="168.5957" y2="168.5957"/><text fill="#000000" font-family="sans-serif" font-size="11" lengthAdjust="spacingAndGlyphs" textLength="34" x="471" y="172.2529">(1 - n)</text><line style="stroke: #A80036; stroke-width: 1.0; stroke-dasharray: 1.0,2.0;" x1="505" x2="618" y1="168.5957" y2="168.5957"/><ellipse cx="368" cy="277.7363" fill="none" rx="3" ry="3" style="stroke: #038048; stroke-width: 1.0;"/><text fill="#000000" font-family="sans-serif" font-size="11" lengthAdjust="spacingAndGlyphs" textLength="39" x="377" y="280.3936">URL url</text><text fill="#000000" font-family="sans-serif" font-size="11" lengthAdjust="spacingAndGlyphs" textLength="0" x="380" y="293.3486"/><line style="stroke: #A80036; stroke-width: 1.0; stroke-dasharray: 1.0,2.0;" x1="358" x2="471" y1="263.2813" y2="263.2813"/><text fill="#000000" font-family="sans-serif" font-size="11" lengthAdjust="spacingAndGlyphs" textLength="34" x="471" y="266.9385">(1 - 2)</text><line style="stroke: #A80036; stroke-width: 1.0; stroke-dasharray: 1.0,2.0;" x1="505" x2="618" y1="263.2813" y2="263.2813"/><line style="stroke: #A80036; stroke-width: 1.0;" x1="358" x2="448" y1="306.1465" y2="306.1465"/><text fill="#000000" font-family="sans-serif" font-size="11" lengthAdjust="spacingAndGlyphs" textLength="80" x="448" y="309.8037">Optional Fields</text><line style="stroke: #A80036; stroke-width: 1.0;" x1="528" x2="618" y1="306.1465" y2="306.1465"/><ellipse cx="368" cy="340.0342" fill="none" rx="3" ry="3" style="stroke: #038048; stroke-width: 1.0;"/><text fill="#000000" font-family="sans-serif" font-size="11" lengthAdjust="spacingAndGlyphs" textLength="236" x="377" y="342.6914">DatasManagementPlan dataManagementPlan</text><ellipse cx="368" cy="352.9893" fill="none" rx="3" ry="3" style="stroke: #038048; stroke-width: 1.0;"/><text fill="#000000" font-family="sans-serif" font-size="11" lengthAdjust="spacingAndGlyphs" textLength="71" x="377" y="355.6465">Date endDate</text><text fill="#000000" font-family="sans-serif" font-size="11" lengthAdjust="spacingAndGlyphs" textLength="0" x="380" y="368.6016"/><line style="stroke: #A80036; stroke-width: 1.0; stroke-dasharray: 1.0,2.0;" x1="358" x2="471" y1="325.5791" y2="325.5791"/><text fill="#000000" font-family="sans-serif" font-size="11" lengthAdjust="spacingAndGlyphs" textLength="34" x="471" y="329.2363">(0 - 1)</text><line style="stroke: #A80036; stroke-width: 1.0; stroke-dasharray: 1.0,2.0;" x1="505" x2="618" y1="325.5791" y2="325.5791"/><ellipse cx="368" cy="395.8545" fill="none" rx="3" ry="3" style="stroke: #038048; stroke-width: 1.0;"/><text fill="#000000" font-family="sans-serif" font-size="11" lengthAdjust="spacingAndGlyphs" textLength="103" x="377" y="398.5117">string[] publication</text><ellipse cx="368" cy="408.8096" fill="none" rx="3" ry="3" style="stroke: #038048; stroke-width: 1.0;"/><text fill="#000000" font-family="sans-serif" font-size="11" lengthAdjust="spacingAndGlyphs" textLength="70" x="377" y="411.4668">Grant[] grant</text><ellipse cx="368" cy="421.7646" fill="none" rx="3" ry="3" style="stroke: #038048; stroke-width: 1.0;"/><text fill="#000000" font-family="sans-serif" font-size="11" lengthAdjust="spacingAndGlyphs" textLength="112" x="377" y="424.4219">Text[] alternateName</text><line style="stroke: #A80036; stroke-width: 1.0; stroke-dasharray: 1.0,2.0;" x1="358" x2="471" y1="381.3994" y2="381.3994"/><text fill="#000000" font-family="sans-serif" font-size="11" lengthAdjust="spacingAndGlyphs" textLength="34" x="471" y="385.0566">(0 - n)</text><line style="stroke: #A80036; stroke-width: 1.0; stroke-dasharray: 1.0,2.0;" x1="505" x2="618" y1="381.3994" y2="381.3994"/><path d="M6,184 L6,209.3105 A0,0 0 0 0 6,209.3105 L241,209.3105 A0,0 0 0 0 241,209.3105 L241,202 L361,207.4609 L241,194 L241,194 L231,184 L6,184 A0,0 0 0 0 6,184 " fill="#FBFB77" filter="url(#f16c8tyvrz65xe)" style="stroke: #A80036; stroke-width: 1.0;"/><path d="M231,184 L231,194 L241,194 L231,184 " fill="#FBFB77" style="stroke: #A80036; stroke-width: 1.0;"/><text fill="#000000" font-family="sans-serif" font-size="13" lengthAdjust="spacingAndGlyphs" textLength="214" x="12" y="201.5684">how do we handle different types?</text><path d="M6,219.3105 L6,244.6211 A0,0 0 0 0 6,244.6211 L322,244.6211 A0,0 0 0 0 322,244.6211 L322,237.3105 L361,233.3711 L322,229.3105 L322,229.3105 L312,219.3105 L6,219.3105 A0,0 0 0 0 6,219.3105 " fill="#FBFB77" filter="url(#f16c8tyvrz65xe)" style="stroke: #A80036; stroke-width: 1.0;"/><path d="M312,219.3105 L312,229.3105 L322,229.3105 L312,219.3105 " fill="#FBFB77" style="stroke: #A80036; stroke-width: 1.0;"/><text fill="#000000" font-family="sans-serif" font-size="13" lengthAdjust="spacingAndGlyphs" textLength="295" x="12" y="236.8789">Does it make sense to have `Place` as a class?</text><!--class Dataset--><rect fill="#FEFECE" filter="url(#f16c8tyvrz65xe)" height="48" id="Dataset" style="stroke: #A80036; stroke-width: 1.5;" width="76" x="450" y="491"/><ellipse cx="465" cy="507" fill="#ADD1B2" rx="11" ry="11" style="stroke: #A80036; stroke-width: 1.0;"/><path d="M467.4731,513.1431 Q466.8921,513.4419 466.2529,513.5913 Q465.6138,513.7407 464.9082,513.7407 Q462.4014,513.7407 461.0815,512.0889 Q459.7617,510.437 459.7617,507.3159 Q459.7617,504.1865 461.0815,502.5347 Q462.4014,500.8828 464.9082,500.8828 Q465.6138,500.8828 466.2612,501.0322 Q466.9087,501.1816 467.4731,501.4805 L467.4731,504.2031 Q466.8423,503.6221 466.2488,503.3523 Q465.6553,503.0825 465.0244,503.0825 Q463.6797,503.0825 462.9949,504.1492 Q462.3101,505.2158 462.3101,507.3159 Q462.3101,509.4077 462.9949,510.4744 Q463.6797,511.541 465.0244,511.541 Q465.6553,511.541 466.2488,511.2712 Q466.8423,511.0015 467.4731,510.4204 Z "/><text fill="#000000" font-family="sans-serif" font-size="12" lengthAdjust="spacingAndGlyphs" textLength="44" x="479" y="511.5352">Dataset</text><line style="stroke: #A80036; stroke-width: 1.5;" x1="451" x2="525" y1="523" y2="523"/><line style="stroke: #A80036; stroke-width: 1.5;" x1="451" x2="525" y1="531" y2="531"/><!--link Project$$$LEFT to Project--><!--link Project to Dataset--><path d="M488,431.07 C488,452.26 488,471.25 488,485.69 " fill="none" id="Project-Dataset" style="stroke: #A80036; stroke-width: 1.0;"/><polygon fill="#A80036" points="488,490.8,492,481.8,488,485.8,484,481.8,488,490.8" style="stroke: #A80036; stroke-width: 1.0;"/><!--
@startuml Domain Entities

class Project {
  The Project.
  - - Required Fields - -
  .. (1) ..
  +string shortcode
  +string name
  +Text description
  +Date startDate

  .. (1 - n) ..
  +Dataset[] datasets
  +Text[] keywords
  +Text[]|URL discipline
  +Text[]|URL temporalCoverage
  +Place spatialCoverage

  .. (1 - 2) ..
  +URL url

  - - Optional Fields - -
  .. (0 - 1) ..
  +DatasManagementPlan dataManagementPlan
  +Date endDate

  .. (0 - n) ..
  +string[] publication
  +Grant[] grant
  +Text[] alternateName
}

note left of Project::discipline
  how do we handle different types?
end note

note left of Project::spatialCoverage
  Does it make sense to have `Place` as a class?
end note

Project - -> Dataset

@enduml

PlantUML version 1.2019.06(Fri May 24 19:10:25 CEST 2019)
(GPL source distribution)
Java Runtime: OpenJDK Runtime Environment
JVM: OpenJDK 64-Bit Server VM
Java Version: 11.0.10+9
Operating System: Mac OS X
OS Version: 10.15.7
Default Encoding: UTF-8
Language: en
Country: GB
--></g></svg>