<svg id="mermaid-1615802116969" width="683.328125" xmlns="http://www.w3.org/2000/svg" xmlns:xlink="http://www.w3.org/1999/xlink" height="183.625" viewBox="-20 -20 683.328125 183.625"><style>#mermaid-1615802116969{font-family:"trebuchet ms",verdana,arial;font-size:16px;fill:#333;}#mermaid-1615802116969 .error-icon{fill:#552222;}#mermaid-1615802116969 .error-text{fill:#552222;stroke:#552222;}#mermaid-1615802116969 .edge-thickness-normal{stroke-width:2px;}#mermaid-1615802116969 .edge-thickness-thick{stroke-width:3.5px;}#mermaid-1615802116969 .edge-pattern-solid{stroke-dasharray:0;}#mermaid-1615802116969 .edge-pattern-dashed{stroke-dasharray:3;}#mermaid-1615802116969 .edge-pattern-dotted{stroke-dasharray:2;}#mermaid-1615802116969 .marker{fill:#333333;}#mermaid-1615802116969 .marker.cross{stroke:#333333;}#mermaid-1615802116969 svg{font-family:"trebuchet ms",verdana,arial;font-size:16px;}#mermaid-1615802116969 g.classGroup text{fill:#9370DB;fill:#131300;stroke:none;font-family:"trebuchet ms",verdana,arial;font-size:10px;}#mermaid-1615802116969 g.classGroup text .title{font-weight:bolder;}#mermaid-1615802116969 .node rect,#mermaid-1615802116969 .node circle,#mermaid-1615802116969 .node ellipse,#mermaid-1615802116969 .node polygon,#mermaid-1615802116969 .node path{fill:#ECECFF;stroke:#9370DB;stroke-width:1px;}#mermaid-1615802116969 .divider{stroke:#9370DB;stroke:1;}#mermaid-1615802116969 g.clickable{cursor:pointer;}#mermaid-1615802116969 g.classGroup rect{fill:#ECECFF;stroke:#9370DB;}#mermaid-1615802116969 g.classGroup line{stroke:#9370DB;stroke-width:1;}#mermaid-1615802116969 .classLabel .box{stroke:none;stroke-width:0;fill:#ECECFF;opacity:0.5;}#mermaid-1615802116969 .classLabel .label{fill:#9370DB;font-size:10px;}#mermaid-1615802116969 .relation{stroke:#333333;stroke-width:1;fill:none;}#mermaid-1615802116969 .dashed-line{stroke-dasharray:3;}#mermaid-1615802116969 #compositionStart,#mermaid-1615802116969 .composition{fill:#333333 !important;stroke:#333333 !important;stroke-width:1;}#mermaid-1615802116969 #compositionEnd,#mermaid-1615802116969 .composition{fill:#333333 !important;stroke:#333333 !important;stroke-width:1;}#mermaid-1615802116969 #dependencyStart,#mermaid-1615802116969 .dependency{fill:#333333 !important;stroke:#333333 !important;stroke-width:1;}#mermaid-1615802116969 #dependencyStart,#mermaid-1615802116969 .dependency{fill:#333333 !important;stroke:#333333 !important;stroke-width:1;}#mermaid-1615802116969 #extensionStart,#mermaid-1615802116969 .extension{fill:#333333 !important;stroke:#333333 !important;stroke-width:1;}#mermaid-1615802116969 #extensionEnd,#mermaid-1615802116969 .extension{fill:#333333 !important;stroke:#333333 !important;stroke-width:1;}#mermaid-1615802116969 #aggregationStart,#mermaid-1615802116969 .aggregation{fill:#ECECFF !important;stroke:#333333 !important;stroke-width:1;}#mermaid-1615802116969 #aggregationEnd,#mermaid-1615802116969 .aggregation{fill:#ECECFF !important;stroke:#333333 !important;stroke-width:1;}#mermaid-1615802116969:root{--mermaid-font-family:"trebuchet ms",verdana,arial;}#mermaid-1615802116969 class{fill:apa;}</style><g/><defs><marker id="extensionStart" class="extension" refX="0" refY="7" markerWidth="190" markerHeight="240" orient="auto"><path d="M 1,7 L18,13 V 1 Z"/></marker></defs><defs><marker id="extensionEnd" refX="19" refY="7" markerWidth="20" markerHeight="28" orient="auto"><path d="M 1,1 V 13 L18,7 Z"/></marker></defs><defs><marker id="compositionStart" class="extension" refX="0" refY="7" markerWidth="190" markerHeight="240" orient="auto"><path d="M 18,7 L9,13 L1,7 L9,1 Z"/></marker></defs><defs><marker id="compositionEnd" refX="19" refY="7" markerWidth="20" markerHeight="28" orient="auto"><path d="M 18,7 L9,13 L1,7 L9,1 Z"/></marker></defs><defs><marker id="aggregationStart" class="extension" refX="0" refY="7" markerWidth="190" markerHeight="240" orient="auto"><path d="M 18,7 L9,13 L1,7 L9,1 Z"/></marker></defs><defs><marker id="aggregationEnd" refX="19" refY="7" markerWidth="20" markerHeight="28" orient="auto"><path d="M 18,7 L9,13 L1,7 L9,1 Z"/></marker></defs><defs><marker id="dependencyStart" class="extension" refX="0" refY="7" markerWidth="190" markerHeight="240" orient="auto"><path d="M 5,7 L9,13 L1,7 L9,1 Z"/></marker></defs><defs><marker id="dependencyEnd" refX="19" refY="7" markerWidth="20" markerHeight="28" orient="auto"><path d="M 18,7 L9,13 L14,7 L9,1 Z"/></marker></defs><g id="classid-Project-0" class="classGroup" transform="translate(0,0 )"><rect x="0" y="0" width="215.84375" height="62.5625" class=" "/><text y="15" x="0"><tspan class="title" x="90.7734375">Project</tspan></text><line x1="0" y1="21.5625" y2="21.5625" x2="215.84375"/><text x="5" y="31.5625" fill="white" class="classText"><tspan x="5">+dataManagementPlan DataManagementPlan</tspan><tspan x="5" dy="10">+publication Text</tspan><tspan x="5" dy="10">+name Text</tspan></text><line x1="0" y1="58.0625" y2="58.0625" x2="215.84375"/><text x="5" y="73.0625" fill="white" class="classText"/></g><g id="classid-Dataset-1" class="classGroup" transform="translate(21.59375,112.59375 )"><rect x="0" y="0" width="45.078125" height="31" class=" "/><text y="15" x="0"><tspan class="title" x="5">Dataset</tspan></text><line x1="0" y1="21.5" y2="21.5" x2="45.078125"/><text x="5" y="31.5" fill="white" class="classText"/><line x1="0" y1="26.5" y2="26.5" x2="45.078125"/><text x="5" y="41.5" fill="white" class="classText"/></g><g id="classid-DataManagementPlan-2" class="classGroup" transform="translate(116.671875,112.5625 )"><rect x="0" y="0" width="110.078125" height="31.0625" class=" "/><text y="15" x="0"><tspan class="title" x="5">DataManagementPlan</tspan></text><line x1="0" y1="21.5625" y2="21.5625" x2="110.078125"/><text x="5" y="31.5625" fill="white" class="classText"/><line x1="0" y1="26.5625" y2="26.5625" x2="110.078125"/><text x="5" y="41.5625" fill="white" class="classText"/></g><g id="classid-Person-3" class="classGroup" transform="translate(265.84375,15.78125 )"><rect x="0" y="0" width="41.765625" height="31" class=" "/><text y="15" x="0"><tspan class="title" x="5">Person</tspan></text><line x1="0" y1="21.5" y2="21.5" x2="41.765625"/><text x="5" y="31.5" fill="white" class="classText"/><line x1="0" y1="26.5" y2="26.5" x2="41.765625"/><text x="5" y="41.5" fill="white" class="classText"/></g><g id="classid-Organization-4" class="classGroup" transform="translate(357.609375,15.75 )"><rect x="0" y="0" width="69.671875" height="31.0625" class=" "/><text y="15" x="0"><tspan class="title" x="5">Organization</tspan></text><line x1="0" y1="21.5625" y2="21.5625" x2="69.671875"/><text x="5" y="31.5625" fill="white" class="classText"/><line x1="0" y1="26.5625" y2="26.5625" x2="69.671875"/><text x="5" y="41.5625" fill="white" class="classText"/></g><g id="classid-Grant-5" class="classGroup" transform="translate(477.28125,15.78125 )"><rect x="0" y="0" width="36.1875" height="31" class=" "/><text y="15" x="0"><tspan class="title" x="5">Grant</tspan></text><line x1="0" y1="21.5" y2="21.5" x2="36.1875"/><text x="5" y="31.5" fill="white" class="classText"/><line x1="0" y1="26.5" y2="26.5" x2="36.1875"/><text x="5" y="41.5" fill="white" class="classText"/></g><g id="classid-Text-6" class="classGroup" transform="translate(563.46875,10 )"><rect x="0" y="0" width="79.859375" height="42.5625" class=" "/><text y="15" x="0"><tspan class="title" x="29.25">Text</tspan></text><line x1="0" y1="21.5" y2="21.5" x2="79.859375"/><text x="5" y="31.5" fill="white" class="classText"><tspan x="5">+contents Map</tspan></text><line x1="0" y1="38.0625" y2="38.0625" x2="79.859375"/><text x="5" y="53.0625" fill="white" class="classText"/></g><path d="M72.46776530399778,62.5625L67.74527316999816,66.72916666666667C63.02278103599852,70.89583333333333,53.57779676799927,79.22916666666667,48.85530463399963,87.56770833333333C44.1328125,95.90625,44.1328125,104.25,44.1328125,108.421875L44.1328125,112.59375" id="edge0" class="relation" marker-end="url(#dependencyEnd)"/><g class="cardinality"><text class="type1" x="59.786555733723404" y="67.0832216055384" fill="black" font-size="6">1</text></g><g class="cardinality"><text class="type2" x="54.1328125" y="100.09375" fill="black" font-size="6">1..*</text></g><path d="M143.3759846960022,62.5625L148.09847683000183,66.72916666666667C152.82096896400148,70.89583333333333,162.26595323200073,79.22916666666667,166.98844536600038,87.5625C171.7109375,95.89583333333333,171.7109375,104.22916666666667,171.7109375,108.39583333333333L171.7109375,112.5625" id="edge1" class="relation" marker-end="url(#dependencyEnd)"/><g class="cardinality"><text class="type1" x="149.44119051893304" y="74.58178776282048" fill="black" font-size="6">1</text></g><g class="cardinality"><text class="type2" x="181.7109375" y="100.0625" fill="black" font-size="6">0..1</text></g></svg>