<?xml version="1.0" encoding="UTF-8" standalone="no"?><svg xmlns="http://www.w3.org/2000/svg" xmlns:xlink="http://www.w3.org/1999/xlink" contentScriptType="application/ecmascript" contentStyleType="text/css" height="892px" preserveAspectRatio="none" style="width:1222px;height:892px;" version="1.1" viewBox="0 0 1222 892" width="1222px" zoomAndPan="magnify"><defs><filter height="300%" id="f1m8dsrqdsik6s" width="300%" x="-1" y="-1"><feGaussianBlur result="blurOut" stdDeviation="2.0"/><feColorMatrix in="blurOut" result="blurOut2" type="matrix" values="0 0 0 0 0 0 0 0 0 0 0 0 0 0 0 0 0 0 .4 0"/><feOffset dx="4.0" dy="4.0" in="blurOut2" result="blurOut3"/><feBlend in="SourceGraphic" in2="blurOut3" mode="normal"/></filter></defs><g><!--cluster toplevel--><polygon fill="#FFFFFF" filter="url(#f1m8dsrqdsik6s)" points="22,24,86,24,93,46.4883,618,46.4883,618,873.5,22,873.5,22,24" style="stroke: #000000; stroke-width: 1.5;"/><line style="stroke: #000000; stroke-width: 1.5;" x1="22" x2="93" y1="46.4883" y2="46.4883"/><text fill="#000000" font-family="sans-serif" font-size="14" font-weight="bold" lengthAdjust="spacingAndGlyphs" textLength="58" x="26" y="39.5352">toplevel</text><!--cluster utility--><polygon fill="#FFFFFF" filter="url(#f1m8dsrqdsik6s)" points="642,187.5,692,187.5,699,209.9883,1200,209.9883,1200,880,642,880,642,187.5" style="stroke: #000000; stroke-width: 1.5;"/><line style="stroke: #000000; stroke-width: 1.5;" x1="642" x2="699" y1="209.9883" y2="209.9883"/><text fill="#000000" font-family="sans-serif" font-size="14" font-weight="bold" lengthAdjust="spacingAndGlyphs" textLength="44" x="646" y="203.0352">utility</text><!--class Project--><rect fill="#FEFECE" filter="url(#f1m8dsrqdsik6s)" height="422.7422" id="Project" style="stroke: #A80036; stroke-width: 1.5;" width="256" x="125" y="59"/><ellipse cx="228.75" cy="75" fill="#ADD1B2" rx="11" ry="11" style="stroke: #A80036; stroke-width: 1.0;"/><path d="M231.2231,81.1431 Q230.6421,81.4419 230.0029,81.5913 Q229.3638,81.7407 228.6582,81.7407 Q226.1514,81.7407 224.8315,80.0889 Q223.5117,78.437 223.5117,75.3159 Q223.5117,72.1865 224.8315,70.5347 Q226.1514,68.8828 228.6582,68.8828 Q229.3638,68.8828 230.0112,69.0322 Q230.6587,69.1816 231.2231,69.4805 L231.2231,72.2031 Q230.5923,71.6221 229.9988,71.3523 Q229.4053,71.0825 228.7744,71.0825 Q227.4297,71.0825 226.7449,72.1492 Q226.0601,73.2158 226.0601,75.3159 Q226.0601,77.4077 226.7449,78.4744 Q227.4297,79.541 228.7744,79.541 Q229.4053,79.541 229.9988,79.2712 Q230.5923,79.0015 231.2231,78.4204 Z "/><text fill="#000000" font-family="sans-serif" font-size="12" lengthAdjust="spacingAndGlyphs" textLength="40" x="249.25" y="79.5352">Project</text><line style="stroke: #A80036; stroke-width: 1.5;" x1="126" x2="380" y1="91" y2="91"/><text fill="#000000" font-family="sans-serif" font-size="11" lengthAdjust="spacingAndGlyphs" textLength="63" x="131" y="105.6348">The Project.</text><line style="stroke: #A80036; stroke-width: 1.0;" x1="126" x2="212" y1="118.4326" y2="118.4326"/><text fill="#000000" font-family="sans-serif" font-size="11" lengthAdjust="spacingAndGlyphs" textLength="82" x="212" y="122.0898">Required Fields</text><line style="stroke: #A80036; stroke-width: 1.0;" x1="294" x2="380" y1="118.4326" y2="118.4326"/><ellipse cx="136" cy="152.3203" fill="none" rx="3" ry="3" style="stroke: #038048; stroke-width: 1.0;"/><text fill="#000000" font-family="sans-serif" font-size="11" lengthAdjust="spacingAndGlyphs" textLength="122" x="145" y="154.9775">ValueObject shortcode</text><ellipse cx="136" cy="165.2754" fill="none" rx="3" ry="3" style="stroke: #038048; stroke-width: 1.0;"/><text fill="#000000" font-family="sans-serif" font-size="11" lengthAdjust="spacingAndGlyphs" textLength="96" x="145" y="167.9326">ValueObject name</text><ellipse cx="136" cy="178.2305" fill="none" rx="3" ry="3" style="stroke: #038048; stroke-width: 1.0;"/><text fill="#000000" font-family="sans-serif" font-size="11" lengthAdjust="spacingAndGlyphs" textLength="166" x="145" y="180.8877">MultiLanguageText description</text><ellipse cx="136" cy="191.1855" fill="none" rx="3" ry="3" style="stroke: #038048; stroke-width: 1.0;"/><text fill="#000000" font-family="sans-serif" font-size="11" lengthAdjust="spacingAndGlyphs" textLength="76" x="145" y="193.8428">Date startDate</text><text fill="#000000" font-family="sans-serif" font-size="11" lengthAdjust="spacingAndGlyphs" textLength="0" x="148" y="206.7979"/><line style="stroke: #A80036; stroke-width: 1.0; stroke-dasharray: 1.0,2.0;" x1="126" x2="245.5" y1="137.8652" y2="137.8652"/><text fill="#000000" font-family="sans-serif" font-size="11" lengthAdjust="spacingAndGlyphs" textLength="15" x="245.5" y="141.5225">(1)</text><line style="stroke: #A80036; stroke-width: 1.0; stroke-dasharray: 1.0,2.0;" x1="260.5" x2="380" y1="137.8652" y2="137.8652"/><ellipse cx="136" cy="234.0508" fill="none" rx="3" ry="3" style="stroke: #038048; stroke-width: 1.0;"/><text fill="#000000" font-family="sans-serif" font-size="11" lengthAdjust="spacingAndGlyphs" textLength="96" x="145" y="236.708">Dataset[] datasets</text><ellipse cx="136" cy="247.0059" fill="none" rx="3" ry="3" style="stroke: #038048; stroke-width: 1.0;"/><text fill="#000000" font-family="sans-serif" font-size="11" lengthAdjust="spacingAndGlyphs" textLength="164" x="145" y="249.6631">MultiLanguageText[] keywords</text><ellipse cx="136" cy="259.9609" fill="none" rx="3" ry="3" style="stroke: #038048; stroke-width: 1.0;"/><text fill="#000000" font-family="sans-serif" font-size="11" lengthAdjust="spacingAndGlyphs" textLength="168" x="145" y="262.6182">TextOrAuthorityRef[] discipline</text><ellipse cx="136" cy="272.916" fill="none" rx="3" ry="3" style="stroke: #038048; stroke-width: 1.0;"/><text fill="#000000" font-family="sans-serif" font-size="11" lengthAdjust="spacingAndGlyphs" textLength="216" x="145" y="275.5732">TextOrAuthorityRef[] temporalCoverage</text><ellipse cx="136" cy="285.8711" fill="none" rx="3" ry="3" style="stroke: #038048; stroke-width: 1.0;"/><text fill="#000000" font-family="sans-serif" font-size="11" lengthAdjust="spacingAndGlyphs" textLength="165" x="145" y="288.5283">AuthorityRef[] spatialCoverage</text><text fill="#000000" font-family="sans-serif" font-size="11" lengthAdjust="spacingAndGlyphs" textLength="0" x="148" y="301.4834"/><line style="stroke: #A80036; stroke-width: 1.0; stroke-dasharray: 1.0,2.0;" x1="126" x2="236" y1="219.5957" y2="219.5957"/><text fill="#000000" font-family="sans-serif" font-size="11" lengthAdjust="spacingAndGlyphs" textLength="34" x="236" y="223.2529">(1 - n)</text><line style="stroke: #A80036; stroke-width: 1.0; stroke-dasharray: 1.0,2.0;" x1="270" x2="380" y1="219.5957" y2="219.5957"/><ellipse cx="136" cy="328.7363" fill="none" rx="3" ry="3" style="stroke: #038048; stroke-width: 1.0;"/><text fill="#000000" font-family="sans-serif" font-size="11" lengthAdjust="spacingAndGlyphs" textLength="39" x="145" y="331.3936">URL url</text><text fill="#000000" font-family="sans-serif" font-size="11" lengthAdjust="spacingAndGlyphs" textLength="0" x="148" y="344.3486"/><line style="stroke: #A80036; stroke-width: 1.0; stroke-dasharray: 1.0,2.0;" x1="126" x2="236" y1="314.2813" y2="314.2813"/><text fill="#000000" font-family="sans-serif" font-size="11" lengthAdjust="spacingAndGlyphs" textLength="34" x="236" y="317.9385">(1 - 2)</text><line style="stroke: #A80036; stroke-width: 1.0; stroke-dasharray: 1.0,2.0;" x1="270" x2="380" y1="314.2813" y2="314.2813"/><line style="stroke: #A80036; stroke-width: 1.0;" x1="126" x2="213" y1="357.1465" y2="357.1465"/><text fill="#000000" font-family="sans-serif" font-size="11" lengthAdjust="spacingAndGlyphs" textLength="80" x="213" y="360.8037">Optional Fields</text><line style="stroke: #A80036; stroke-width: 1.0;" x1="293" x2="380" y1="357.1465" y2="357.1465"/><ellipse cx="136" cy="391.0342" fill="none" rx="3" ry="3" style="stroke: #038048; stroke-width: 1.0;"/><text fill="#000000" font-family="sans-serif" font-size="11" lengthAdjust="spacingAndGlyphs" textLength="230" x="145" y="393.6914">DataManagementPlan dataManagementPlan</text><ellipse cx="136" cy="403.9893" fill="none" rx="3" ry="3" style="stroke: #038048; stroke-width: 1.0;"/><text fill="#000000" font-family="sans-serif" font-size="11" lengthAdjust="spacingAndGlyphs" textLength="71" x="145" y="406.6465">Date endDate</text><text fill="#000000" font-family="sans-serif" font-size="11" lengthAdjust="spacingAndGlyphs" textLength="0" x="148" y="419.6016"/><line style="stroke: #A80036; stroke-width: 1.0; stroke-dasharray: 1.0,2.0;" x1="126" x2="236" y1="376.5791" y2="376.5791"/><text fill="#000000" font-family="sans-serif" font-size="11" lengthAdjust="spacingAndGlyphs" textLength="34" x="236" y="380.2363">(0 - 1)</text><line style="stroke: #A80036; stroke-width: 1.0; stroke-dasharray: 1.0,2.0;" x1="270" x2="380" y1="376.5791" y2="376.5791"/><ellipse cx="136" cy="446.8545" fill="none" rx="3" ry="3" style="stroke: #038048; stroke-width: 1.0;"/><text fill="#000000" font-family="sans-serif" font-size="11" lengthAdjust="spacingAndGlyphs" textLength="135" x="145" y="449.5117">ValueObject[] publication</text><ellipse cx="136" cy="459.8096" fill="none" rx="3" ry="3" style="stroke: #038048; stroke-width: 1.0;"/><text fill="#000000" font-family="sans-serif" font-size="11" lengthAdjust="spacingAndGlyphs" textLength="70" x="145" y="462.4668">Grant[] grant</text><ellipse cx="136" cy="472.7646" fill="none" rx="3" ry="3" style="stroke: #038048; stroke-width: 1.0;"/><text fill="#000000" font-family="sans-serif" font-size="11" lengthAdjust="spacingAndGlyphs" textLength="190" x="145" y="475.4219">MultiLanguageText[] alternateName</text><line style="stroke: #A80036; stroke-width: 1.0; stroke-dasharray: 1.0,2.0;" x1="126" x2="236" y1="432.3994" y2="432.3994"/><text fill="#000000" font-family="sans-serif" font-size="11" lengthAdjust="spacingAndGlyphs" textLength="34" x="236" y="436.0566">(0 - n)</text><line style="stroke: #A80036; stroke-width: 1.0; stroke-dasharray: 1.0,2.0;" x1="270" x2="380" y1="432.3994" y2="432.3994"/><!--class Dataset--><rect fill="#FEFECE" filter="url(#f1m8dsrqdsik6s)" height="200.9834" id="Dataset" style="stroke: #A80036; stroke-width: 1.5;" width="198" x="367" y="542"/><ellipse cx="439.75" cy="558" fill="#ADD1B2" rx="11" ry="11" style="stroke: #A80036; stroke-width: 1.0;"/><path d="M442.2231,564.1431 Q441.6421,564.4419 441.0029,564.5913 Q440.3638,564.7407 439.6582,564.7407 Q437.1514,564.7407 435.8315,563.0889 Q434.5117,561.437 434.5117,558.3159 Q434.5117,555.1865 435.8315,553.5347 Q437.1514,551.8828 439.6582,551.8828 Q440.3638,551.8828 441.0112,552.0322 Q441.6587,552.1816 442.2231,552.4805 L442.2231,555.2031 Q441.5923,554.6221 440.9988,554.3523 Q440.4053,554.0825 439.7744,554.0825 Q438.4297,554.0825 437.7449,555.1492 Q437.0601,556.2158 437.0601,558.3159 Q437.0601,560.4077 437.7449,561.4744 Q438.4297,562.541 439.7744,562.541 Q440.4053,562.541 440.9988,562.2712 Q441.5923,562.0015 442.2231,561.4204 Z "/><text fill="#000000" font-family="sans-serif" font-size="12" lengthAdjust="spacingAndGlyphs" textLength="44" x="460.25" y="562.5352">Dataset</text><line style="stroke: #A80036; stroke-width: 1.5;" x1="368" x2="564" y1="574" y2="574"/><text fill="#000000" font-family="sans-serif" font-size="11" lengthAdjust="spacingAndGlyphs" textLength="186" x="373" y="588.6348">A Dataset belonging to the project.</text><line style="stroke: #A80036; stroke-width: 1.0;" x1="368" x2="425" y1="601.4326" y2="601.4326"/><text fill="#000000" font-family="sans-serif" font-size="11" lengthAdjust="spacingAndGlyphs" textLength="82" x="425" y="605.0898">Required Fields</text><line style="stroke: #A80036; stroke-width: 1.0;" x1="507" x2="564" y1="601.4326" y2="601.4326"/><text fill="#000000" font-family="sans-serif" font-size="11" lengthAdjust="spacingAndGlyphs" textLength="0" x="376" y="637.9775"/><line style="stroke: #A80036; stroke-width: 1.0; stroke-dasharray: 1.0,2.0;" x1="368" x2="458.5" y1="620.8652" y2="620.8652"/><text fill="#000000" font-family="sans-serif" font-size="11" lengthAdjust="spacingAndGlyphs" textLength="15" x="458.5" y="624.5225">(1)</text><line style="stroke: #A80036; stroke-width: 1.0; stroke-dasharray: 1.0,2.0;" x1="473.5" x2="564" y1="620.8652" y2="620.8652"/><text fill="#000000" font-family="sans-serif" font-size="11" lengthAdjust="spacingAndGlyphs" textLength="0" x="376" y="667.8877"/><line style="stroke: #A80036; stroke-width: 1.0; stroke-dasharray: 1.0,2.0;" x1="368" x2="449" y1="650.7754" y2="650.7754"/><text fill="#000000" font-family="sans-serif" font-size="11" lengthAdjust="spacingAndGlyphs" textLength="34" x="449" y="654.4326">(1 - n)</text><line style="stroke: #A80036; stroke-width: 1.0; stroke-dasharray: 1.0,2.0;" x1="483" x2="564" y1="650.7754" y2="650.7754"/><line style="stroke: #A80036; stroke-width: 1.0;" x1="368" x2="426" y1="680.6855" y2="680.6855"/><text fill="#000000" font-family="sans-serif" font-size="11" lengthAdjust="spacingAndGlyphs" textLength="80" x="426" y="684.3428">Optional Fields</text><line style="stroke: #A80036; stroke-width: 1.0;" x1="506" x2="564" y1="680.6855" y2="680.6855"/><text fill="#000000" font-family="sans-serif" font-size="11" lengthAdjust="spacingAndGlyphs" textLength="0" x="376" y="717.2305"/><line style="stroke: #A80036; stroke-width: 1.0; stroke-dasharray: 1.0,2.0;" x1="368" x2="449" y1="700.1182" y2="700.1182"/><text fill="#000000" font-family="sans-serif" font-size="11" lengthAdjust="spacingAndGlyphs" textLength="34" x="449" y="703.7754">(0 - 1)</text><line style="stroke: #A80036; stroke-width: 1.0; stroke-dasharray: 1.0,2.0;" x1="483" x2="564" y1="700.1182" y2="700.1182"/><line style="stroke: #A80036; stroke-width: 1.0; stroke-dasharray: 1.0,2.0;" x1="368" x2="449" y1="730.0283" y2="730.0283"/><text fill="#000000" font-family="sans-serif" font-size="11" lengthAdjust="spacingAndGlyphs" textLength="34" x="449" y="733.6855">(0 - n)</text><line style="stroke: #A80036; stroke-width: 1.0; stroke-dasharray: 1.0,2.0;" x1="483" x2="564" y1="730.0283" y2="730.0283"/><!--class DataManagementPlan--><rect fill="#FEFECE" filter="url(#f1m8dsrqdsik6s)" height="82.8652" id="DataManagementPlan" style="stroke: #A80036; stroke-width: 1.5;" width="157" x="174.5" y="601"/><ellipse cx="189.5" cy="617" fill="#ADD1B2" rx="11" ry="11" style="stroke: #A80036; stroke-width: 1.0;"/><path d="M191.9731,623.1431 Q191.3921,623.4419 190.7529,623.5913 Q190.1138,623.7407 189.4082,623.7407 Q186.9014,623.7407 185.5815,622.0889 Q184.2617,620.437 184.2617,617.3159 Q184.2617,614.1865 185.5815,612.5347 Q186.9014,610.8828 189.4082,610.8828 Q190.1138,610.8828 190.7612,611.0322 Q191.4087,611.1816 191.9731,611.4805 L191.9731,614.2031 Q191.3423,613.6221 190.7488,613.3523 Q190.1553,613.0825 189.5244,613.0825 Q188.1797,613.0825 187.4949,614.1492 Q186.8101,615.2158 186.8101,617.3159 Q186.8101,619.4077 187.4949,620.4744 Q188.1797,621.541 189.5244,621.541 Q190.1553,621.541 190.7488,621.2712 Q191.3423,621.0015 191.9731,620.4204 Z "/><text fill="#000000" font-family="sans-serif" font-size="12" lengthAdjust="spacingAndGlyphs" textLength="125" x="203.5" y="621.5352">DataManagementPlan</text><line style="stroke: #A80036; stroke-width: 1.5;" x1="175.5" x2="330.5" y1="633" y2="633"/><ellipse cx="185.5" cy="661.9326" fill="none" rx="3" ry="3" style="stroke: #038048; stroke-width: 1.0;"/><text fill="#000000" font-family="sans-serif" font-size="11" lengthAdjust="spacingAndGlyphs" textLength="92" x="194.5" y="664.5898">boolean available</text><ellipse cx="185.5" cy="674.8877" fill="none" rx="3" ry="3" style="stroke: #038048; stroke-width: 1.0;"/><text fill="#000000" font-family="sans-serif" font-size="11" lengthAdjust="spacingAndGlyphs" textLength="39" x="194.5" y="677.5449">URL url</text><line style="stroke: #A80036; stroke-width: 1.0; stroke-dasharray: 1.0,2.0;" x1="175.5" x2="236" y1="647.4775" y2="647.4775"/><text fill="#000000" font-family="sans-serif" font-size="11" lengthAdjust="spacingAndGlyphs" textLength="34" x="236" y="651.1348">(0 - 1)</text><line style="stroke: #A80036; stroke-width: 1.0; stroke-dasharray: 1.0,2.0;" x1="270" x2="330.5" y1="647.4775" y2="647.4775"/><!--class Grant--><rect fill="#FEFECE" filter="url(#f1m8dsrqdsik6s)" height="48" id="Grant" style="stroke: #A80036; stroke-width: 1.5;" width="64" x="75" y="618.5"/><ellipse cx="90" cy="634.5" fill="#ADD1B2" rx="11" ry="11" style="stroke: #A80036; stroke-width: 1.0;"/><path d="M92.4731,640.6431 Q91.8921,640.9419 91.2529,641.0913 Q90.6138,641.2407 89.9082,641.2407 Q87.4014,641.2407 86.0815,639.5889 Q84.7617,637.937 84.7617,634.8159 Q84.7617,631.6865 86.0815,630.0347 Q87.4014,628.3828 89.9082,628.3828 Q90.6138,628.3828 91.2612,628.5322 Q91.9087,628.6816 92.4731,628.9805 L92.4731,631.7031 Q91.8423,631.1221 91.2488,630.8523 Q90.6553,630.5825 90.0244,630.5825 Q88.6797,630.5825 87.9949,631.6492 Q87.3101,632.7158 87.3101,634.8159 Q87.3101,636.9077 87.9949,637.9744 Q88.6797,639.041 90.0244,639.041 Q90.6553,639.041 91.2488,638.7712 Q91.8423,638.5015 92.4731,637.9204 Z "/><text fill="#000000" font-family="sans-serif" font-size="12" lengthAdjust="spacingAndGlyphs" textLength="32" x="104" y="639.0352">Grant</text><line style="stroke: #A80036; stroke-width: 1.5;" x1="76" x2="138" y1="650.5" y2="650.5"/><line style="stroke: #A80036; stroke-width: 1.5;" x1="76" x2="138" y1="658.5" y2="658.5"/><!--class Person--><rect fill="#FEFECE" filter="url(#f1m8dsrqdsik6s)" height="48" id="Person" style="stroke: #A80036; stroke-width: 1.5;" width="71" x="71.5" y="809.5"/><ellipse cx="86.5" cy="825.5" fill="#ADD1B2" rx="11" ry="11" style="stroke: #A80036; stroke-width: 1.0;"/><path d="M88.9731,831.6431 Q88.3921,831.9419 87.7529,832.0913 Q87.1138,832.2407 86.4082,832.2407 Q83.9014,832.2407 82.5815,830.5889 Q81.2617,828.937 81.2617,825.8159 Q81.2617,822.6865 82.5815,821.0347 Q83.9014,819.3828 86.4082,819.3828 Q87.1138,819.3828 87.7612,819.5322 Q88.4087,819.6816 88.9731,819.9805 L88.9731,822.7031 Q88.3423,822.1221 87.7488,821.8523 Q87.1553,821.5825 86.5244,821.5825 Q85.1797,821.5825 84.4949,822.6492 Q83.8101,823.7158 83.8101,825.8159 Q83.8101,827.9077 84.4949,828.9744 Q85.1797,830.041 86.5244,830.041 Q87.1553,830.041 87.7488,829.7712 Q88.3423,829.5015 88.9731,828.9204 Z "/><text fill="#000000" font-family="sans-serif" font-size="12" lengthAdjust="spacingAndGlyphs" textLength="39" x="100.5" y="830.0352">Person</text><line style="stroke: #A80036; stroke-width: 1.5;" x1="72.5" x2="141.5" y1="841.5" y2="841.5"/><line style="stroke: #A80036; stroke-width: 1.5;" x1="72.5" x2="141.5" y1="849.5" y2="849.5"/><!--class Organization--><rect fill="#FEFECE" filter="url(#f1m8dsrqdsik6s)" height="48" id="Organization" style="stroke: #A80036; stroke-width: 1.5;" width="105" x="413.5" y="809.5"/><ellipse cx="428.5" cy="825.5" fill="#ADD1B2" rx="11" ry="11" style="stroke: #A80036; stroke-width: 1.0;"/><path d="M430.9731,831.6431 Q430.3921,831.9419 429.7529,832.0913 Q429.1138,832.2407 428.4082,832.2407 Q425.9014,832.2407 424.5815,830.5889 Q423.2617,828.937 423.2617,825.8159 Q423.2617,822.6865 424.5815,821.0347 Q425.9014,819.3828 428.4082,819.3828 Q429.1138,819.3828 429.7612,819.5322 Q430.4087,819.6816 430.9731,819.9805 L430.9731,822.7031 Q430.3423,822.1221 429.7488,821.8523 Q429.1553,821.5825 428.5244,821.5825 Q427.1797,821.5825 426.4949,822.6492 Q425.8101,823.7158 425.8101,825.8159 Q425.8101,827.9077 426.4949,828.9744 Q427.1797,830.041 428.5244,830.041 Q429.1553,830.041 429.7488,829.7712 Q430.3423,829.5015 430.9731,828.9204 Z "/><text fill="#000000" font-family="sans-serif" font-size="12" lengthAdjust="spacingAndGlyphs" textLength="73" x="442.5" y="830.0352">Organization</text><line style="stroke: #A80036; stroke-width: 1.5;" x1="414.5" x2="517.5" y1="841.5" y2="841.5"/><line style="stroke: #A80036; stroke-width: 1.5;" x1="414.5" x2="517.5" y1="849.5" y2="849.5"/><!--class TextOrAuthorityRef--><rect fill="#FEFECE" filter="url(#f1m8dsrqdsik6s)" height="95.8203" id="TextOrAuthorityRef" style="stroke: #A80036; stroke-width: 1.5;" width="489" x="676.5" y="222.5"/><ellipse cx="861.75" cy="238.5" fill="#ADD1B2" rx="11" ry="11" style="stroke: #A80036; stroke-width: 1.0;"/><path d="M864.2231,244.6431 Q863.6421,244.9419 863.0029,245.0913 Q862.3638,245.2407 861.6582,245.2407 Q859.1514,245.2407 857.8315,243.5889 Q856.5117,241.937 856.5117,238.8159 Q856.5117,235.6865 857.8315,234.0347 Q859.1514,232.3828 861.6582,232.3828 Q862.3638,232.3828 863.0112,232.5322 Q863.6587,232.6816 864.2231,232.9805 L864.2231,235.7031 Q863.5923,235.1221 862.9988,234.8523 Q862.4053,234.5825 861.7744,234.5825 Q860.4297,234.5825 859.7449,235.6492 Q859.0601,236.7158 859.0601,238.8159 Q859.0601,240.9077 859.7449,241.9744 Q860.4297,243.041 861.7744,243.041 Q862.4053,243.041 862.9988,242.7712 Q863.5923,242.5015 864.2231,241.9204 Z "/><text fill="#000000" font-family="sans-serif" font-size="12" lengthAdjust="spacingAndGlyphs" textLength="110" x="882.25" y="243.0352">TextOrAuthorityRef</text><line style="stroke: #A80036; stroke-width: 1.5;" x1="677.5" x2="1164.5" y1="254.5" y2="254.5"/><text fill="#000000" font-family="sans-serif" font-size="11" lengthAdjust="spacingAndGlyphs" textLength="477" x="682.5" y="269.1348">Struct ensuring the object to be either a multi language text or an authority file reference.</text><ellipse cx="687.5" cy="296.3877" fill="none" rx="3" ry="3" style="stroke: #038048; stroke-width: 1.0;"/><text fill="#000000" font-family="sans-serif" font-size="11" lengthAdjust="spacingAndGlyphs" textLength="137" x="696.5" y="299.0449">AuthorityRef authorityRef</text><ellipse cx="687.5" cy="309.3428" fill="none" rx="3" ry="3" style="stroke: #038048; stroke-width: 1.0;"/><text fill="#000000" font-family="sans-serif" font-size="11" lengthAdjust="spacingAndGlyphs" textLength="126" x="696.5" y="312">MultiLanguageText text</text><line style="stroke: #A80036; stroke-width: 1.0;" x1="677.5" x2="876.5" y1="281.9326" y2="281.9326"/><text fill="#000000" font-family="sans-serif" font-size="11" lengthAdjust="spacingAndGlyphs" textLength="89" x="876.5" y="285.5898">Required: OneOf</text><line style="stroke: #A80036; stroke-width: 1.0;" x1="965.5" x2="1164.5" y1="281.9326" y2="281.9326"/><!--class AuthorityRef--><rect fill="#FEFECE" filter="url(#f1m8dsrqdsik6s)" height="95.8203" id="AuthorityRef" style="stroke: #A80036; stroke-width: 1.5;" width="209" x="658.5" y="594.5"/><ellipse cx="723.75" cy="610.5" fill="#ADD1B2" rx="11" ry="11" style="stroke: #A80036; stroke-width: 1.0;"/><path d="M726.2231,616.6431 Q725.6421,616.9419 725.0029,617.0913 Q724.3638,617.2407 723.6582,617.2407 Q721.1514,617.2407 719.8315,615.5889 Q718.5117,613.937 718.5117,610.8159 Q718.5117,607.6865 719.8315,606.0347 Q721.1514,604.3828 723.6582,604.3828 Q724.3638,604.3828 725.0112,604.5322 Q725.6587,604.6816 726.2231,604.9805 L726.2231,607.7031 Q725.5923,607.1221 724.9988,606.8523 Q724.4053,606.5825 723.7744,606.5825 Q722.4297,606.5825 721.7449,607.6492 Q721.0601,608.7158 721.0601,610.8159 Q721.0601,612.9077 721.7449,613.9744 Q722.4297,615.041 723.7744,615.041 Q724.4053,615.041 724.9988,614.7712 Q725.5923,614.5015 726.2231,613.9204 Z "/><text fill="#000000" font-family="sans-serif" font-size="12" lengthAdjust="spacingAndGlyphs" textLength="70" x="744.25" y="615.0352">AuthorityRef</text><line style="stroke: #A80036; stroke-width: 1.5;" x1="659.5" x2="866.5" y1="626.5" y2="626.5"/><text fill="#000000" font-family="sans-serif" font-size="11" lengthAdjust="spacingAndGlyphs" textLength="197" x="664.5" y="641.1348">Reference to an external autority file.</text><ellipse cx="669.5" cy="668.3877" fill="none" rx="3" ry="3" style="stroke: #038048; stroke-width: 1.0;"/><text fill="#000000" font-family="sans-serif" font-size="11" lengthAdjust="spacingAndGlyphs" textLength="82" x="678.5" y="671.0449">ValueObject url</text><ellipse cx="669.5" cy="681.3428" fill="none" rx="3" ry="3" style="stroke: #038048; stroke-width: 1.0;"/><text fill="#000000" font-family="sans-serif" font-size="11" lengthAdjust="spacingAndGlyphs" textLength="116" x="678.5" y="684">ValueObject authority</text><line style="stroke: #A80036; stroke-width: 1.0;" x1="659.5" x2="722" y1="653.9326" y2="653.9326"/><text fill="#000000" font-family="sans-serif" font-size="11" lengthAdjust="spacingAndGlyphs" textLength="82" x="722" y="657.5898">Required Fields</text><line style="stroke: #A80036; stroke-width: 1.0;" x1="804" x2="866.5" y1="653.9326" y2="653.9326"/><!--class MultiLanguageText--><rect fill="#FEFECE" filter="url(#f1m8dsrqdsik6s)" height="82.8652" id="MultiLanguageText" style="stroke: #A80036; stroke-width: 1.5;" width="281" x="902.5" y="601"/><ellipse cx="984.75" cy="617" fill="#ADD1B2" rx="11" ry="11" style="stroke: #A80036; stroke-width: 1.0;"/><path d="M987.2231,623.1431 Q986.6421,623.4419 986.0029,623.5913 Q985.3638,623.7407 984.6582,623.7407 Q982.1514,623.7407 980.8315,622.0889 Q979.5117,620.437 979.5117,617.3159 Q979.5117,614.1865 980.8315,612.5347 Q982.1514,610.8828 984.6582,610.8828 Q985.3638,610.8828 986.0112,611.0322 Q986.6587,611.1816 987.2231,611.4805 L987.2231,614.2031 Q986.5923,613.6221 985.9988,613.3523 Q985.4053,613.0825 984.7744,613.0825 Q983.4297,613.0825 982.7449,614.1492 Q982.0601,615.2158 982.0601,617.3159 Q982.0601,619.4077 982.7449,620.4744 Q983.4297,621.541 984.7744,621.541 Q985.4053,621.541 985.9988,621.2712 Q986.5923,621.0015 987.2231,620.4204 Z "/><text fill="#000000" font-family="sans-serif" font-size="12" lengthAdjust="spacingAndGlyphs" textLength="108" x="1005.25" y="621.5352">MultiLanguageText</text><line style="stroke: #A80036; stroke-width: 1.5;" x1="903.5" x2="1182.5" y1="633" y2="633"/><text fill="#000000" font-family="sans-serif" font-size="11" lengthAdjust="spacingAndGlyphs" textLength="269" x="908.5" y="647.6348">Struct holding text in multiple different languages.</text><ellipse cx="913.5" cy="674.8877" fill="none" rx="3" ry="3" style="stroke: #038048; stroke-width: 1.0;"/><text fill="#000000" font-family="sans-serif" font-size="11" lengthAdjust="spacingAndGlyphs" textLength="185" x="922.5" y="677.5449">Map[ValueObject,ValueObject] text</text><line style="stroke: #A80036; stroke-width: 1.0;" x1="903.5" x2="1002" y1="660.4326" y2="660.4326"/><text fill="#000000" font-family="sans-serif" font-size="11" lengthAdjust="spacingAndGlyphs" textLength="82" x="1002" y="664.0898">Required Fields</text><line style="stroke: #A80036; stroke-width: 1.0;" x1="1084" x2="1182.5" y1="660.4326" y2="660.4326"/><!--class ValueObject--><rect fill="#FEFECE" filter="url(#f1m8dsrqdsik6s)" height="60.9551" id="ValueObject" style="stroke: #A80036; stroke-width: 1.5;" width="186" x="810" y="803"/><ellipse cx="863.75" cy="819" fill="#ADD1B2" rx="11" ry="11" style="stroke: #A80036; stroke-width: 1.0;"/><path d="M866.2231,825.1431 Q865.6421,825.4419 865.0029,825.5913 Q864.3638,825.7407 863.6582,825.7407 Q861.1514,825.7407 859.8315,824.0889 Q858.5117,822.437 858.5117,819.3159 Q858.5117,816.1865 859.8315,814.5347 Q861.1514,812.8828 863.6582,812.8828 Q864.3638,812.8828 865.0112,813.0322 Q865.6587,813.1816 866.2231,813.4805 L866.2231,816.2031 Q865.5923,815.6221 864.9988,815.3523 Q864.4053,815.0825 863.7744,815.0825 Q862.4297,815.0825 861.7449,816.1492 Q861.0601,817.2158 861.0601,819.3159 Q861.0601,821.4077 861.7449,822.4744 Q862.4297,823.541 863.7744,823.541 Q864.4053,823.541 864.9988,823.2712 Q865.5923,823.0015 866.2231,822.4204 Z "/><text fill="#000000" font-family="sans-serif" font-size="12" lengthAdjust="spacingAndGlyphs" textLength="70" x="884.25" y="823.5352">ValueObject</text><line style="stroke: #A80036; stroke-width: 1.5;" x1="811" x2="995" y1="835" y2="835"/><text fill="#000000" font-family="sans-serif" font-size="11" lengthAdjust="spacingAndGlyphs" textLength="174" x="816" y="849.6348">Struct holding exactly one value.</text><line style="stroke: #A80036; stroke-width: 1.5;" x1="811" x2="995" y1="855.9551" y2="855.9551"/><!--link Project to Dataset--><path d="M374.28,482.17 C385.23,501.2 395.97,519.85 406.02,537.31 " fill="none" id="Project-Dataset" style="stroke: #A80036; stroke-width: 1.0;"/><polygon fill="#A80036" points="408.56,541.72,407.5469,531.9234,406.0701,537.3841,400.6094,535.9073,408.56,541.72" style="stroke: #A80036; stroke-width: 1.0;"/><!--link Project to DataManagementPlan--><path d="M253,482.17 C253,525.03 253,566.01 253,595.68 " fill="none" id="Project-DataManagementPlan" style="stroke: #A80036; stroke-width: 1.0;"/><polygon fill="#A80036" points="253,600.71,257,591.71,253,595.71,249,591.71,253,600.71" style="stroke: #A80036; stroke-width: 1.0;"/><!--link Project to Grant--><path d="M169.87,482.17 C149.26,534.4 129.75,583.84 118.08,613.41 " fill="none" id="Project-Grant" style="stroke: #A80036; stroke-width: 1.0;"/><polygon fill="#A80036" points="116.14,618.34,123.1598,611.4319,117.9722,613.6878,115.7163,608.5003,116.14,618.34" style="stroke: #A80036; stroke-width: 1.0;"/><!--link Project to Person--><path d="M124.77,413.82 C97.05,452.75 71.67,496.76 57,542 C29.45,626.98 34.49,656.55 57,743 C62.83,765.39 75.63,788.12 86.82,805.07 " fill="none" id="Project-Person" style="stroke: #A80036; stroke-width: 1.0;"/><polygon fill="#A80036" points="89.62,809.25,87.9174,799.5494,86.83,805.1008,81.2787,804.0134,89.62,809.25" style="stroke: #A80036; stroke-width: 1.0;"/><!--link Project to Organization--><path d="M381.28,338.82 C454.79,385.11 540.47,454.08 582,542 C620.16,622.77 621.4,662.83 582,743 C568.53,770.4 542.19,791.78 518.01,806.76 " fill="none" id="Project-Organization" style="stroke: #A80036; stroke-width: 1.0;"/><polygon fill="#A80036" points="513.53,809.49,523.2976,808.2273,517.801,806.8903,519.138,801.3937,513.53,809.49" style="stroke: #A80036; stroke-width: 1.0;"/><!--link Dataset to Person--><path d="M366.86,731.65 C360.96,735.68 354.98,739.5 349,743 C283.03,781.61 197.48,808.51 147.77,822.16 " fill="none" id="Dataset-Person" style="stroke: #A80036; stroke-width: 1.0;"/><polygon fill="#A80036" points="142.78,823.52,152.5146,825.0159,147.6045,822.2068,150.4135,817.2967,142.78,823.52" style="stroke: #A80036; stroke-width: 1.0;"/><!--link Dataset to Organization--><path d="M466,743.26 C466,765.58 466,787.51 466,804.05 " fill="none" id="Dataset-Organization" style="stroke: #A80036; stroke-width: 1.0;"/><polygon fill="#A80036" points="466,809.44,470,800.44,466,804.44,462,800.44,466,809.44" style="stroke: #A80036; stroke-width: 1.0;"/><!--link Grant to Person--><path d="M107,666.68 C107,701.34 107,766.63 107,804.11 " fill="none" id="Grant-Person" style="stroke: #A80036; stroke-width: 1.0;"/><polygon fill="#A80036" points="107,809.43,111,800.43,107,804.43,103,800.43,107,809.43" style="stroke: #A80036; stroke-width: 1.0;"/><!--link Grant to Organization--><path d="M112.79,666.64 C119.63,689.3 133.21,723.23 157,743 C229.52,803.29 340.8,822.98 408.16,829.4 " fill="none" id="Grant-Organization" style="stroke: #A80036; stroke-width: 1.0;"/><polygon fill="#A80036" points="413.34,829.88,404.7428,825.0749,408.3609,829.4235,404.0124,833.0415,413.34,829.88" style="stroke: #A80036; stroke-width: 1.0;"/><!--link TextOrAuthorityRef to MultiLanguageText--><path d="M936.58,318.74 C960.16,390.27 1004.65,525.21 1027.94,595.81 " fill="none" id="TextOrAuthorityRef-MultiLanguageText" style="stroke: #A80036; stroke-width: 1.0;"/><polygon fill="#A80036" points="1029.57,600.78,1030.563,590.9813,1028.0103,596.0295,1022.9622,593.4768,1029.57,600.78" style="stroke: #A80036; stroke-width: 1.0;"/><!--link TextOrAuthorityRef to AuthorityRef--><path d="M900.83,318.74 C871.16,388.22 815.94,517.53 785.17,589.59 " fill="none" id="TextOrAuthorityRef-AuthorityRef" style="stroke: #A80036; stroke-width: 1.0;"/><polygon fill="#A80036" points="783.18,594.25,790.3842,587.5344,785.1375,589.6491,783.0228,584.4024,783.18,594.25" style="stroke: #A80036; stroke-width: 1.0;"/><!--link AuthorityRef to ValueObject--><path d="M797.97,690.71 C822.82,724.26 855.62,768.54 877.91,798.62 " fill="none" id="AuthorityRef-ValueObject" style="stroke: #A80036; stroke-width: 1.0;"/><polygon fill="#A80036" points="881.12,802.96,878.9968,793.3427,878.1521,798.9362,872.5586,798.0914,881.12,802.96" style="stroke: #A80036; stroke-width: 1.0;"/><!--link MultiLanguageText to ValueObject--><path d="M1012.97,684.05 C987.67,718.2 951.9,766.49 928.1,798.61 " fill="none" id="MultiLanguageText-ValueObject" style="stroke: #A80036; stroke-width: 1.0;"/><polygon fill="#A80036" points="924.97,802.84,933.5396,797.986,927.9448,798.8212,927.1095,793.2263,924.97,802.84" style="stroke: #A80036; stroke-width: 1.0;"/><!--
@startuml Domain Entities
package toplevel {

  class Project {
    The Project.
    - - Required Fields - -
    .. (1) ..
    +ValueObject shortcode
    +ValueObject name
    +MultiLanguageText description
    +Date startDate

    .. (1 - n) ..
    +Dataset[] datasets
    +MultiLanguageText[] keywords
    +TextOrAuthorityRef[] discipline
    +TextOrAuthorityRef[] temporalCoverage
    +AuthorityRef[] spatialCoverage

    .. (1 - 2) ..
    +URL url

    - - Optional Fields - -
    .. (0 - 1) ..
    +DataManagementPlan dataManagementPlan
    +Date endDate

    .. (0 - n) ..
    +ValueObject[] publication
    +Grant[] grant
    +MultiLanguageText[] alternateName
  }

  class Dataset {
    A Dataset belonging to the project.
    - - Required Fields - -
    .. (1) ..

    .. (1 - n) ..

    - - Optional Fields - -
    .. (0 - 1) ..

    .. (0 - n) ..
  }

  class DataManagementPlan {
    .. (0 - 1) ..
    +boolean available
    +URL url
  }

  class Grant {
  }

  class Person {
  }

  class Organization {
  }

}

package utility {

  class TextOrAuthorityRef {
    Struct ensuring the object to be either a multi language text or an authority file reference.
    - - Required: OneOf - -
    +AuthorityRef authorityRef
    +MultiLanguageText text
  }

  class AuthorityRef {
    Reference to an external autority file.
    - - Required Fields - -
    +ValueObject url
    +ValueObject authority
  }

  class MultiLanguageText {
    Struct holding text in multiple different languages.
    - - Required Fields - -
    +Map[ValueObject,ValueObject] text
  }

  class ValueObject {
    Struct holding exactly one value.
  }

}


Project - -> Dataset
Project - -> DataManagementPlan
Project - -> Grant
Project - -> Person
Project - -> Organization
Dataset - -> Person
Dataset - -> Organization
Grant - -> Person
Grant - -> Organization
TextOrAuthorityRef - -> MultiLanguageText
TextOrAuthorityRef - -> AuthorityRef
AuthorityRef - -> ValueObject
MultiLanguageText - -> ValueObject

@enduml

PlantUML version 1.2019.06(Fri May 24 19:10:25 CEST 2019)
(GPL source distribution)
Java Runtime: OpenJDK Runtime Environment
JVM: OpenJDK 64-Bit Server VM
Java Version: 11.0.10+9
Operating System: Mac OS X
OS Version: 10.15.7
Default Encoding: UTF-8
Language: en
Country: GB
--></g></svg>