<?xml version="1.0" encoding="UTF-8" standalone="no"?><svg xmlns="http://www.w3.org/2000/svg" xmlns:xlink="http://www.w3.org/1999/xlink" contentScriptType="application/ecmascript" contentStyleType="text/css" height="869px" preserveAspectRatio="none" style="width:1211px;height:869px;" version="1.1" viewBox="0 0 1211 869" width="1211px" zoomAndPan="magnify"><defs><filter height="300%" id="f1m8dsrqdsik6s" width="300%" x="-1" y="-1"><feGaussianBlur result="blurOut" stdDeviation="2.0"/><feColorMatrix in="blurOut" result="blurOut2" type="matrix" values="0 0 0 0 0 0 0 0 0 0 0 0 0 0 0 0 0 0 .4 0"/><feOffset dx="4.0" dy="4.0" in="blurOut2" result="blurOut3"/><feBlend in="SourceGraphic" in2="blurOut3" mode="normal"/></filter></defs><g><!--MD5=[cd1c5c8b139613283095fe5958db9626]
cluster toplevel--><polygon fill="#FFFFFF" filter="url(#f1m8dsrqdsik6s)" points="16,6,80,6,87,28.4883,612,28.4883,612,855.5,16,855.5,16,6" style="stroke:#000000;stroke-width:1.5;"/><line style="stroke:#000000;stroke-width:1.5;" x1="16" x2="87" y1="28.4883" y2="28.4883"/><text fill="#000000" font-family="sans-serif" font-size="14" font-weight="bold" lengthAdjust="spacing" textLength="58" x="20" y="21.5352">toplevel</text><!--MD5=[4a68d685fa81080d9c072179c56eee45]
cluster utility--><polygon fill="#FFFFFF" filter="url(#f1m8dsrqdsik6s)" points="636,169.5,686,169.5,693,191.9883,1194,191.9883,1194,862,636,862,636,169.5" style="stroke:#000000;stroke-width:1.5;"/><line style="stroke:#000000;stroke-width:1.5;" x1="636" x2="693" y1="191.9883" y2="191.9883"/><text fill="#000000" font-family="sans-serif" font-size="14" font-weight="bold" lengthAdjust="spacing" textLength="44" x="640" y="185.0352">utility</text><!--MD5=[79d378210367c0c6ec62ef762ddfbd1b]
class Project--><rect codeLine="3" fill="#FEFECE" filter="url(#f1m8dsrqdsik6s)" height="422.7422" id="Project" style="stroke:#A80036;stroke-width:1.5;" width="256" x="119" y="41"/><ellipse cx="222.75" cy="57" fill="#ADD1B2" rx="11" ry="11" style="stroke:#A80036;stroke-width:1.0;"/><path d="M225.2231,63.1431 Q224.6421,63.4419 224.0029,63.5913 Q223.3638,63.7407 222.6582,63.7407 Q220.1514,63.7407 218.8315,62.0889 Q217.5117,60.437 217.5117,57.3159 Q217.5117,54.1865 218.8315,52.5347 Q220.1514,50.8828 222.6582,50.8828 Q223.3638,50.8828 224.0112,51.0322 Q224.6587,51.1816 225.2231,51.4805 L225.2231,54.2031 Q224.5923,53.6221 223.9988,53.3523 Q223.4053,53.0825 222.7744,53.0825 Q221.4297,53.0825 220.7449,54.1492 Q220.0601,55.2158 220.0601,57.3159 Q220.0601,59.4077 220.7449,60.4744 Q221.4297,61.541 222.7744,61.541 Q223.4053,61.541 223.9988,61.2712 Q224.5923,61.0015 225.2231,60.4204 Z " fill="#000000"/><text fill="#000000" font-family="sans-serif" font-size="12" lengthAdjust="spacing" textLength="40" x="243.25" y="61.5352">Project</text><line style="stroke:#A80036;stroke-width:1.5;" x1="120" x2="374" y1="73" y2="73"/><text fill="#000000" font-family="sans-serif" font-size="11" lengthAdjust="spacing" textLength="63" x="125" y="87.6348">The Project.</text><line style="stroke:#A80036;stroke-width:1.0;" x1="120" x2="206" y1="100.4326" y2="100.4326"/><text fill="#000000" font-family="sans-serif" font-size="11" lengthAdjust="spacing" textLength="82" x="206" y="104.0898">Required Fields</text><line style="stroke:#A80036;stroke-width:1.0;" x1="288" x2="374" y1="100.4326" y2="100.4326"/><ellipse cx="130" cy="133.3428" rx="3" ry="3" style="stroke:#038048;stroke-width:1.0;fill:none;"/><text fill="#000000" font-family="sans-serif" font-size="11" lengthAdjust="spacing" textLength="122" x="139" y="136.9775">ValueObject shortcode</text><ellipse cx="130" cy="146.2979" rx="3" ry="3" style="stroke:#038048;stroke-width:1.0;fill:none;"/><text fill="#000000" font-family="sans-serif" font-size="11" lengthAdjust="spacing" textLength="96" x="139" y="149.9326">ValueObject name</text><ellipse cx="130" cy="159.2529" rx="3" ry="3" style="stroke:#038048;stroke-width:1.0;fill:none;"/><text fill="#000000" font-family="sans-serif" font-size="11" lengthAdjust="spacing" textLength="166" x="139" y="162.8877">MultiLanguageText description</text><ellipse cx="130" cy="172.208" rx="3" ry="3" style="stroke:#038048;stroke-width:1.0;fill:none;"/><text fill="#000000" font-family="sans-serif" font-size="11" lengthAdjust="spacing" textLength="76" x="139" y="175.8428">Date startDate</text><text fill="#000000" font-family="sans-serif" font-size="11" lengthAdjust="spacing" textLength="0" x="142" y="188.7979"/><line style="stroke:#A80036;stroke-width:1.0;stroke-dasharray:1.0,2.0;" x1="120" x2="239.5" y1="119.8652" y2="119.8652"/><text fill="#000000" font-family="sans-serif" font-size="11" lengthAdjust="spacing" textLength="15" x="239.5" y="123.5225">(1)</text><line style="stroke:#A80036;stroke-width:1.0;stroke-dasharray:1.0,2.0;" x1="254.5" x2="374" y1="119.8652" y2="119.8652"/><ellipse cx="130" cy="215.0732" rx="3" ry="3" style="stroke:#038048;stroke-width:1.0;fill:none;"/><text fill="#000000" font-family="sans-serif" font-size="11" lengthAdjust="spacing" textLength="96" x="139" y="218.708">Dataset[] datasets</text><ellipse cx="130" cy="228.0283" rx="3" ry="3" style="stroke:#038048;stroke-width:1.0;fill:none;"/><text fill="#000000" font-family="sans-serif" font-size="11" lengthAdjust="spacing" textLength="164" x="139" y="231.6631">MultiLanguageText[] keywords</text><ellipse cx="130" cy="240.9834" rx="3" ry="3" style="stroke:#038048;stroke-width:1.0;fill:none;"/><text fill="#000000" font-family="sans-serif" font-size="11" lengthAdjust="spacing" textLength="168" x="139" y="244.6182">TextOrAuthorityRef[] discipline</text><ellipse cx="130" cy="253.9385" rx="3" ry="3" style="stroke:#038048;stroke-width:1.0;fill:none;"/><text fill="#000000" font-family="sans-serif" font-size="11" lengthAdjust="spacing" textLength="216" x="139" y="257.5732">TextOrAuthorityRef[] temporalCoverage</text><ellipse cx="130" cy="266.8936" rx="3" ry="3" style="stroke:#038048;stroke-width:1.0;fill:none;"/><text fill="#000000" font-family="sans-serif" font-size="11" lengthAdjust="spacing" textLength="165" x="139" y="270.5283">AuthorityRef[] spatialCoverage</text><text fill="#000000" font-family="sans-serif" font-size="11" lengthAdjust="spacing" textLength="0" x="142" y="283.4834"/><line style="stroke:#A80036;stroke-width:1.0;stroke-dasharray:1.0,2.0;" x1="120" x2="230" y1="201.5957" y2="201.5957"/><text fill="#000000" font-family="sans-serif" font-size="11" lengthAdjust="spacing" textLength="34" x="230" y="205.2529">(1 - n)</text><line style="stroke:#A80036;stroke-width:1.0;stroke-dasharray:1.0,2.0;" x1="264" x2="374" y1="201.5957" y2="201.5957"/><ellipse cx="130" cy="309.7588" rx="3" ry="3" style="stroke:#038048;stroke-width:1.0;fill:none;"/><text fill="#000000" font-family="sans-serif" font-size="11" lengthAdjust="spacing" textLength="39" x="139" y="313.3936">URL url</text><text fill="#000000" font-family="sans-serif" font-size="11" lengthAdjust="spacing" textLength="0" x="142" y="326.3486"/><line style="stroke:#A80036;stroke-width:1.0;stroke-dasharray:1.0,2.0;" x1="120" x2="230" y1="296.2813" y2="296.2813"/><text fill="#000000" font-family="sans-serif" font-size="11" lengthAdjust="spacing" textLength="34" x="230" y="299.9385">(1 - 2)</text><line style="stroke:#A80036;stroke-width:1.0;stroke-dasharray:1.0,2.0;" x1="264" x2="374" y1="296.2813" y2="296.2813"/><line style="stroke:#A80036;stroke-width:1.0;" x1="120" x2="207" y1="339.1465" y2="339.1465"/><text fill="#000000" font-family="sans-serif" font-size="11" lengthAdjust="spacing" textLength="80" x="207" y="342.8037">Optional Fields</text><line style="stroke:#A80036;stroke-width:1.0;" x1="287" x2="374" y1="339.1465" y2="339.1465"/><ellipse cx="130" cy="372.0566" rx="3" ry="3" style="stroke:#038048;stroke-width:1.0;fill:none;"/><text fill="#000000" font-family="sans-serif" font-size="11" lengthAdjust="spacing" textLength="230" x="139" y="375.6914">DataManagementPlan dataManagementPlan</text><ellipse cx="130" cy="385.0117" rx="3" ry="3" style="stroke:#038048;stroke-width:1.0;fill:none;"/><text fill="#000000" font-family="sans-serif" font-size="11" lengthAdjust="spacing" textLength="71" x="139" y="388.6465">Date endDate</text><text fill="#000000" font-family="sans-serif" font-size="11" lengthAdjust="spacing" textLength="0" x="142" y="401.6016"/><line style="stroke:#A80036;stroke-width:1.0;stroke-dasharray:1.0,2.0;" x1="120" x2="230" y1="358.5791" y2="358.5791"/><text fill="#000000" font-family="sans-serif" font-size="11" lengthAdjust="spacing" textLength="34" x="230" y="362.2363">(0 - 1)</text><line style="stroke:#A80036;stroke-width:1.0;stroke-dasharray:1.0,2.0;" x1="264" x2="374" y1="358.5791" y2="358.5791"/><ellipse cx="130" cy="427.877" rx="3" ry="3" style="stroke:#038048;stroke-width:1.0;fill:none;"/><text fill="#000000" font-family="sans-serif" font-size="11" lengthAdjust="spacing" textLength="135" x="139" y="431.5117">ValueObject[] publication</text><ellipse cx="130" cy="440.832" rx="3" ry="3" style="stroke:#038048;stroke-width:1.0;fill:none;"/><text fill="#000000" font-family="sans-serif" font-size="11" lengthAdjust="spacing" textLength="70" x="139" y="444.4668">Grant[] grant</text><ellipse cx="130" cy="453.7871" rx="3" ry="3" style="stroke:#038048;stroke-width:1.0;fill:none;"/><text fill="#000000" font-family="sans-serif" font-size="11" lengthAdjust="spacing" textLength="190" x="139" y="457.4219">MultiLanguageText[] alternateName</text><line style="stroke:#A80036;stroke-width:1.0;stroke-dasharray:1.0,2.0;" x1="120" x2="230" y1="414.3994" y2="414.3994"/><text fill="#000000" font-family="sans-serif" font-size="11" lengthAdjust="spacing" textLength="34" x="230" y="418.0566">(0 - n)</text><line style="stroke:#A80036;stroke-width:1.0;stroke-dasharray:1.0,2.0;" x1="264" x2="374" y1="414.3994" y2="414.3994"/><!--MD5=[8b82677223ea9eb28a50de16faa90dcd]
class Dataset--><rect codeLine="33" fill="#FEFECE" filter="url(#f1m8dsrqdsik6s)" height="200.9834" id="Dataset" style="stroke:#A80036;stroke-width:1.5;" width="198" x="361" y="524"/><ellipse cx="433.75" cy="540" fill="#ADD1B2" rx="11" ry="11" style="stroke:#A80036;stroke-width:1.0;"/><path d="M436.2231,546.1431 Q435.6421,546.4419 435.0029,546.5913 Q434.3638,546.7407 433.6582,546.7407 Q431.1514,546.7407 429.8315,545.0889 Q428.5117,543.437 428.5117,540.3159 Q428.5117,537.1865 429.8315,535.5347 Q431.1514,533.8828 433.6582,533.8828 Q434.3638,533.8828 435.0112,534.0322 Q435.6587,534.1816 436.2231,534.4805 L436.2231,537.2031 Q435.5923,536.6221 434.9988,536.3523 Q434.4053,536.0825 433.7744,536.0825 Q432.4297,536.0825 431.7449,537.1492 Q431.0601,538.2158 431.0601,540.3159 Q431.0601,542.4077 431.7449,543.4744 Q432.4297,544.541 433.7744,544.541 Q434.4053,544.541 434.9988,544.2712 Q435.5923,544.0015 436.2231,543.4204 Z " fill="#000000"/><text fill="#000000" font-family="sans-serif" font-size="12" lengthAdjust="spacing" textLength="44" x="454.25" y="544.5352">Dataset</text><line style="stroke:#A80036;stroke-width:1.5;" x1="362" x2="558" y1="556" y2="556"/><text fill="#000000" font-family="sans-serif" font-size="11" lengthAdjust="spacing" textLength="186" x="367" y="570.6348">A Dataset belonging to the project.</text><line style="stroke:#A80036;stroke-width:1.0;" x1="362" x2="419" y1="583.4326" y2="583.4326"/><text fill="#000000" font-family="sans-serif" font-size="11" lengthAdjust="spacing" textLength="82" x="419" y="587.0898">Required Fields</text><line style="stroke:#A80036;stroke-width:1.0;" x1="501" x2="558" y1="583.4326" y2="583.4326"/><text fill="#000000" font-family="sans-serif" font-size="11" lengthAdjust="spacing" textLength="0" x="370" y="619.9775"/><line style="stroke:#A80036;stroke-width:1.0;stroke-dasharray:1.0,2.0;" x1="362" x2="452.5" y1="602.8652" y2="602.8652"/><text fill="#000000" font-family="sans-serif" font-size="11" lengthAdjust="spacing" textLength="15" x="452.5" y="606.5225">(1)</text><line style="stroke:#A80036;stroke-width:1.0;stroke-dasharray:1.0,2.0;" x1="467.5" x2="558" y1="602.8652" y2="602.8652"/><text fill="#000000" font-family="sans-serif" font-size="11" lengthAdjust="spacing" textLength="0" x="370" y="649.8877"/><line style="stroke:#A80036;stroke-width:1.0;stroke-dasharray:1.0,2.0;" x1="362" x2="443" y1="632.7754" y2="632.7754"/><text fill="#000000" font-family="sans-serif" font-size="11" lengthAdjust="spacing" textLength="34" x="443" y="636.4326">(1 - n)</text><line style="stroke:#A80036;stroke-width:1.0;stroke-dasharray:1.0,2.0;" x1="477" x2="558" y1="632.7754" y2="632.7754"/><line style="stroke:#A80036;stroke-width:1.0;" x1="362" x2="420" y1="662.6855" y2="662.6855"/><text fill="#000000" font-family="sans-serif" font-size="11" lengthAdjust="spacing" textLength="80" x="420" y="666.3428">Optional Fields</text><line style="stroke:#A80036;stroke-width:1.0;" x1="500" x2="558" y1="662.6855" y2="662.6855"/><text fill="#000000" font-family="sans-serif" font-size="11" lengthAdjust="spacing" textLength="0" x="370" y="699.2305"/><line style="stroke:#A80036;stroke-width:1.0;stroke-dasharray:1.0,2.0;" x1="362" x2="443" y1="682.1182" y2="682.1182"/><text fill="#000000" font-family="sans-serif" font-size="11" lengthAdjust="spacing" textLength="34" x="443" y="685.7754">(0 - 1)</text><line style="stroke:#A80036;stroke-width:1.0;stroke-dasharray:1.0,2.0;" x1="477" x2="558" y1="682.1182" y2="682.1182"/><line style="stroke:#A80036;stroke-width:1.0;stroke-dasharray:1.0,2.0;" x1="362" x2="443" y1="712.0283" y2="712.0283"/><text fill="#000000" font-family="sans-serif" font-size="11" lengthAdjust="spacing" textLength="34" x="443" y="715.6855">(0 - n)</text><line style="stroke:#A80036;stroke-width:1.0;stroke-dasharray:1.0,2.0;" x1="477" x2="558" y1="712.0283" y2="712.0283"/><!--MD5=[0ddc649268d713a1b738888d52ffc109]
class DataManagementPlan--><rect codeLine="47" fill="#FEFECE" filter="url(#f1m8dsrqdsik6s)" height="82.8652" id="DataManagementPlan" style="stroke:#A80036;stroke-width:1.5;" width="157" x="168.5" y="583"/><ellipse cx="183.5" cy="599" fill="#ADD1B2" rx="11" ry="11" style="stroke:#A80036;stroke-width:1.0;"/><path d="M185.9731,605.1431 Q185.3921,605.4419 184.7529,605.5913 Q184.1138,605.7407 183.4082,605.7407 Q180.9014,605.7407 179.5815,604.0889 Q178.2617,602.437 178.2617,599.3159 Q178.2617,596.1865 179.5815,594.5347 Q180.9014,592.8828 183.4082,592.8828 Q184.1138,592.8828 184.7612,593.0322 Q185.4087,593.1816 185.9731,593.4805 L185.9731,596.2031 Q185.3423,595.6221 184.7488,595.3523 Q184.1553,595.0825 183.5244,595.0825 Q182.1797,595.0825 181.4949,596.1492 Q180.8101,597.2158 180.8101,599.3159 Q180.8101,601.4077 181.4949,602.4744 Q182.1797,603.541 183.5244,603.541 Q184.1553,603.541 184.7488,603.2712 Q185.3423,603.0015 185.9731,602.4204 Z " fill="#000000"/><text fill="#000000" font-family="sans-serif" font-size="12" lengthAdjust="spacing" textLength="125" x="197.5" y="603.5352">DataManagementPlan</text><line style="stroke:#A80036;stroke-width:1.5;" x1="169.5" x2="324.5" y1="615" y2="615"/><ellipse cx="179.5" cy="642.9551" rx="3" ry="3" style="stroke:#038048;stroke-width:1.0;fill:none;"/><text fill="#000000" font-family="sans-serif" font-size="11" lengthAdjust="spacing" textLength="92" x="188.5" y="646.5898">boolean available</text><ellipse cx="179.5" cy="655.9102" rx="3" ry="3" style="stroke:#038048;stroke-width:1.0;fill:none;"/><text fill="#000000" font-family="sans-serif" font-size="11" lengthAdjust="spacing" textLength="39" x="188.5" y="659.5449">URL url</text><line style="stroke:#A80036;stroke-width:1.0;stroke-dasharray:1.0,2.0;" x1="169.5" x2="230" y1="629.4775" y2="629.4775"/><text fill="#000000" font-family="sans-serif" font-size="11" lengthAdjust="spacing" textLength="34" x="230" y="633.1348">(0 - 1)</text><line style="stroke:#A80036;stroke-width:1.0;stroke-dasharray:1.0,2.0;" x1="264" x2="324.5" y1="629.4775" y2="629.4775"/><!--MD5=[c433c0453beae252ec142f87216236a3]
class Grant--><rect codeLine="53" fill="#FEFECE" filter="url(#f1m8dsrqdsik6s)" height="48" id="Grant" style="stroke:#A80036;stroke-width:1.5;" width="64" x="69" y="600.5"/><ellipse cx="84" cy="616.5" fill="#ADD1B2" rx="11" ry="11" style="stroke:#A80036;stroke-width:1.0;"/><path d="M86.4731,622.6431 Q85.8921,622.9419 85.2529,623.0913 Q84.6138,623.2407 83.9082,623.2407 Q81.4014,623.2407 80.0815,621.5889 Q78.7617,619.937 78.7617,616.8159 Q78.7617,613.6865 80.0815,612.0347 Q81.4014,610.3828 83.9082,610.3828 Q84.6138,610.3828 85.2612,610.5322 Q85.9087,610.6816 86.4731,610.9805 L86.4731,613.7031 Q85.8423,613.1221 85.2488,612.8523 Q84.6553,612.5825 84.0244,612.5825 Q82.6797,612.5825 81.9949,613.6492 Q81.3101,614.7158 81.3101,616.8159 Q81.3101,618.9077 81.9949,619.9744 Q82.6797,621.041 84.0244,621.041 Q84.6553,621.041 85.2488,620.7712 Q85.8423,620.5015 86.4731,619.9204 Z " fill="#000000"/><text fill="#000000" font-family="sans-serif" font-size="12" lengthAdjust="spacing" textLength="32" x="98" y="621.0352">Grant</text><line style="stroke:#A80036;stroke-width:1.5;" x1="70" x2="132" y1="632.5" y2="632.5"/><line style="stroke:#A80036;stroke-width:1.5;" x1="70" x2="132" y1="640.5" y2="640.5"/><!--MD5=[09ce52be0ee7de43c61b6e2d59bf108b]
class Person--><rect codeLine="57" fill="#FEFECE" filter="url(#f1m8dsrqdsik6s)" height="48" id="Person" style="stroke:#A80036;stroke-width:1.5;" width="71" x="65.5" y="791.5"/><ellipse cx="80.5" cy="807.5" fill="#ADD1B2" rx="11" ry="11" style="stroke:#A80036;stroke-width:1.0;"/><path d="M82.9731,813.6431 Q82.3921,813.9419 81.7529,814.0913 Q81.1138,814.2407 80.4082,814.2407 Q77.9014,814.2407 76.5815,812.5889 Q75.2617,810.937 75.2617,807.8159 Q75.2617,804.6865 76.5815,803.0347 Q77.9014,801.3828 80.4082,801.3828 Q81.1138,801.3828 81.7612,801.5322 Q82.4087,801.6816 82.9731,801.9805 L82.9731,804.7031 Q82.3423,804.1221 81.7488,803.8523 Q81.1553,803.5825 80.5244,803.5825 Q79.1797,803.5825 78.4949,804.6492 Q77.8101,805.7158 77.8101,807.8159 Q77.8101,809.9077 78.4949,810.9744 Q79.1797,812.041 80.5244,812.041 Q81.1553,812.041 81.7488,811.7712 Q82.3423,811.5015 82.9731,810.9204 Z " fill="#000000"/><text fill="#000000" font-family="sans-serif" font-size="12" lengthAdjust="spacing" textLength="39" x="94.5" y="812.0352">Person</text><line style="stroke:#A80036;stroke-width:1.5;" x1="66.5" x2="135.5" y1="823.5" y2="823.5"/><line style="stroke:#A80036;stroke-width:1.5;" x1="66.5" x2="135.5" y1="831.5" y2="831.5"/><!--MD5=[86c7c362de55a38b660185a1328fe18d]
class Organization--><rect codeLine="61" fill="#FEFECE" filter="url(#f1m8dsrqdsik6s)" height="48" id="Organization" style="stroke:#A80036;stroke-width:1.5;" width="105" x="407.5" y="791.5"/><ellipse cx="422.5" cy="807.5" fill="#ADD1B2" rx="11" ry="11" style="stroke:#A80036;stroke-width:1.0;"/><path d="M424.9731,813.6431 Q424.3921,813.9419 423.7529,814.0913 Q423.1138,814.2407 422.4082,814.2407 Q419.9014,814.2407 418.5815,812.5889 Q417.2617,810.937 417.2617,807.8159 Q417.2617,804.6865 418.5815,803.0347 Q419.9014,801.3828 422.4082,801.3828 Q423.1138,801.3828 423.7612,801.5322 Q424.4087,801.6816 424.9731,801.9805 L424.9731,804.7031 Q424.3423,804.1221 423.7488,803.8523 Q423.1553,803.5825 422.5244,803.5825 Q421.1797,803.5825 420.4949,804.6492 Q419.8101,805.7158 419.8101,807.8159 Q419.8101,809.9077 420.4949,810.9744 Q421.1797,812.041 422.5244,812.041 Q423.1553,812.041 423.7488,811.7712 Q424.3423,811.5015 424.9731,810.9204 Z " fill="#000000"/><text fill="#000000" font-family="sans-serif" font-size="12" lengthAdjust="spacing" textLength="73" x="436.5" y="812.0352">Organization</text><line style="stroke:#A80036;stroke-width:1.5;" x1="408.5" x2="511.5" y1="823.5" y2="823.5"/><line style="stroke:#A80036;stroke-width:1.5;" x1="408.5" x2="511.5" y1="831.5" y2="831.5"/><!--MD5=[adadd6c5bebc7530419dd4adeb67efa6]
class TextOrAuthorityRef--><rect codeLine="69" fill="#FEFECE" filter="url(#f1m8dsrqdsik6s)" height="95.8203" id="TextOrAuthorityRef" style="stroke:#A80036;stroke-width:1.5;" width="489" x="670.5" y="204.5"/><ellipse cx="855.75" cy="220.5" fill="#ADD1B2" rx="11" ry="11" style="stroke:#A80036;stroke-width:1.0;"/><path d="M858.2231,226.6431 Q857.6421,226.9419 857.0029,227.0913 Q856.3638,227.2407 855.6582,227.2407 Q853.1514,227.2407 851.8315,225.5889 Q850.5117,223.937 850.5117,220.8159 Q850.5117,217.6865 851.8315,216.0347 Q853.1514,214.3828 855.6582,214.3828 Q856.3638,214.3828 857.0112,214.5322 Q857.6587,214.6816 858.2231,214.9805 L858.2231,217.7031 Q857.5923,217.1221 856.9988,216.8523 Q856.4053,216.5825 855.7744,216.5825 Q854.4297,216.5825 853.7449,217.6492 Q853.0601,218.7158 853.0601,220.8159 Q853.0601,222.9077 853.7449,223.9744 Q854.4297,225.041 855.7744,225.041 Q856.4053,225.041 856.9988,224.7712 Q857.5923,224.5015 858.2231,223.9204 Z " fill="#000000"/><text fill="#000000" font-family="sans-serif" font-size="12" lengthAdjust="spacing" textLength="110" x="876.25" y="225.0352">TextOrAuthorityRef</text><line style="stroke:#A80036;stroke-width:1.5;" x1="671.5" x2="1158.5" y1="236.5" y2="236.5"/><text fill="#000000" font-family="sans-serif" font-size="11" lengthAdjust="spacing" textLength="477" x="676.5" y="251.1348">Struct ensuring the object to be either a multi language text or an authority file reference.</text><ellipse cx="681.5" cy="277.4102" rx="3" ry="3" style="stroke:#038048;stroke-width:1.0;fill:none;"/><text fill="#000000" font-family="sans-serif" font-size="11" lengthAdjust="spacing" textLength="137" x="690.5" y="281.0449">AuthorityRef authorityRef</text><ellipse cx="681.5" cy="290.3652" rx="3" ry="3" style="stroke:#038048;stroke-width:1.0;fill:none;"/><text fill="#000000" font-family="sans-serif" font-size="11" lengthAdjust="spacing" textLength="126" x="690.5" y="294">MultiLanguageText text</text><line style="stroke:#A80036;stroke-width:1.0;" x1="671.5" x2="870.5" y1="263.9326" y2="263.9326"/><text fill="#000000" font-family="sans-serif" font-size="11" lengthAdjust="spacing" textLength="89" x="870.5" y="267.5898">Required: OneOf</text><line style="stroke:#A80036;stroke-width:1.0;" x1="959.5" x2="1158.5" y1="263.9326" y2="263.9326"/><!--MD5=[46f0ec804dda31b97cf8414ea6996638]
class AuthorityRef--><rect codeLine="77" fill="#FEFECE" filter="url(#f1m8dsrqdsik6s)" height="95.8203" id="AuthorityRef" style="stroke:#A80036;stroke-width:1.5;" width="209" x="652.5" y="576.5"/><ellipse cx="717.75" cy="592.5" fill="#ADD1B2" rx="11" ry="11" style="stroke:#A80036;stroke-width:1.0;"/><path d="M720.2231,598.6431 Q719.6421,598.9419 719.0029,599.0913 Q718.3638,599.2407 717.6582,599.2407 Q715.1514,599.2407 713.8315,597.5889 Q712.5117,595.937 712.5117,592.8159 Q712.5117,589.6865 713.8315,588.0347 Q715.1514,586.3828 717.6582,586.3828 Q718.3638,586.3828 719.0112,586.5322 Q719.6587,586.6816 720.2231,586.9805 L720.2231,589.7031 Q719.5923,589.1221 718.9988,588.8523 Q718.4053,588.5825 717.7744,588.5825 Q716.4297,588.5825 715.7449,589.6492 Q715.0601,590.7158 715.0601,592.8159 Q715.0601,594.9077 715.7449,595.9744 Q716.4297,597.041 717.7744,597.041 Q718.4053,597.041 718.9988,596.7712 Q719.5923,596.5015 720.2231,595.9204 Z " fill="#000000"/><text fill="#000000" font-family="sans-serif" font-size="12" lengthAdjust="spacing" textLength="70" x="738.25" y="597.0352">AuthorityRef</text><line style="stroke:#A80036;stroke-width:1.5;" x1="653.5" x2="860.5" y1="608.5" y2="608.5"/><text fill="#000000" font-family="sans-serif" font-size="11" lengthAdjust="spacing" textLength="197" x="658.5" y="623.1348">Reference to an external autority file.</text><ellipse cx="663.5" cy="649.4102" rx="3" ry="3" style="stroke:#038048;stroke-width:1.0;fill:none;"/><text fill="#000000" font-family="sans-serif" font-size="11" lengthAdjust="spacing" textLength="82" x="672.5" y="653.0449">ValueObject url</text><ellipse cx="663.5" cy="662.3652" rx="3" ry="3" style="stroke:#038048;stroke-width:1.0;fill:none;"/><text fill="#000000" font-family="sans-serif" font-size="11" lengthAdjust="spacing" textLength="116" x="672.5" y="666">ValueObject authority</text><line style="stroke:#A80036;stroke-width:1.0;" x1="653.5" x2="716" y1="635.9326" y2="635.9326"/><text fill="#000000" font-family="sans-serif" font-size="11" lengthAdjust="spacing" textLength="82" x="716" y="639.5898">Required Fields</text><line style="stroke:#A80036;stroke-width:1.0;" x1="798" x2="860.5" y1="635.9326" y2="635.9326"/><!--MD5=[7ffe94767bb1d3f95d8b3d3e7cee0173]
class MultiLanguageText--><rect codeLine="84" fill="#FEFECE" filter="url(#f1m8dsrqdsik6s)" height="82.8652" id="MultiLanguageText" style="stroke:#A80036;stroke-width:1.5;" width="281" x="896.5" y="583"/><ellipse cx="978.75" cy="599" fill="#ADD1B2" rx="11" ry="11" style="stroke:#A80036;stroke-width:1.0;"/><path d="M981.2231,605.1431 Q980.6421,605.4419 980.0029,605.5913 Q979.3638,605.7407 978.6582,605.7407 Q976.1514,605.7407 974.8315,604.0889 Q973.5117,602.437 973.5117,599.3159 Q973.5117,596.1865 974.8315,594.5347 Q976.1514,592.8828 978.6582,592.8828 Q979.3638,592.8828 980.0112,593.0322 Q980.6587,593.1816 981.2231,593.4805 L981.2231,596.2031 Q980.5923,595.6221 979.9988,595.3523 Q979.4053,595.0825 978.7744,595.0825 Q977.4297,595.0825 976.7449,596.1492 Q976.0601,597.2158 976.0601,599.3159 Q976.0601,601.4077 976.7449,602.4744 Q977.4297,603.541 978.7744,603.541 Q979.4053,603.541 979.9988,603.2712 Q980.5923,603.0015 981.2231,602.4204 Z " fill="#000000"/><text fill="#000000" font-family="sans-serif" font-size="12" lengthAdjust="spacing" textLength="108" x="999.25" y="603.5352">MultiLanguageText</text><line style="stroke:#A80036;stroke-width:1.5;" x1="897.5" x2="1176.5" y1="615" y2="615"/><text fill="#000000" font-family="sans-serif" font-size="11" lengthAdjust="spacing" textLength="269" x="902.5" y="629.6348">Struct holding text in multiple different languages.</text><ellipse cx="907.5" cy="655.9102" rx="3" ry="3" style="stroke:#038048;stroke-width:1.0;fill:none;"/><text fill="#000000" font-family="sans-serif" font-size="11" lengthAdjust="spacing" textLength="185" x="916.5" y="659.5449">Map[ValueObject,ValueObject] text</text><line style="stroke:#A80036;stroke-width:1.0;" x1="897.5" x2="996" y1="642.4326" y2="642.4326"/><text fill="#000000" font-family="sans-serif" font-size="11" lengthAdjust="spacing" textLength="82" x="996" y="646.0898">Required Fields</text><line style="stroke:#A80036;stroke-width:1.0;" x1="1078" x2="1176.5" y1="642.4326" y2="642.4326"/><!--MD5=[4827804e05157d3fd1630e9a95b5d355]
class ValueObject--><rect codeLine="90" fill="#FEFECE" filter="url(#f1m8dsrqdsik6s)" height="60.9551" id="ValueObject" style="stroke:#A80036;stroke-width:1.5;" width="186" x="804" y="785"/><ellipse cx="857.75" cy="801" fill="#ADD1B2" rx="11" ry="11" style="stroke:#A80036;stroke-width:1.0;"/><path d="M860.2231,807.1431 Q859.6421,807.4419 859.0029,807.5913 Q858.3638,807.7407 857.6582,807.7407 Q855.1514,807.7407 853.8315,806.0889 Q852.5117,804.437 852.5117,801.3159 Q852.5117,798.1865 853.8315,796.5347 Q855.1514,794.8828 857.6582,794.8828 Q858.3638,794.8828 859.0112,795.0322 Q859.6587,795.1816 860.2231,795.4805 L860.2231,798.2031 Q859.5923,797.6221 858.9988,797.3523 Q858.4053,797.0825 857.7744,797.0825 Q856.4297,797.0825 855.7449,798.1492 Q855.0601,799.2158 855.0601,801.3159 Q855.0601,803.4077 855.7449,804.4744 Q856.4297,805.541 857.7744,805.541 Q858.4053,805.541 858.9988,805.2712 Q859.5923,805.0015 860.2231,804.4204 Z " fill="#000000"/><text fill="#000000" font-family="sans-serif" font-size="12" lengthAdjust="spacing" textLength="70" x="878.25" y="805.5352">ValueObject</text><line style="stroke:#A80036;stroke-width:1.5;" x1="805" x2="989" y1="817" y2="817"/><text fill="#000000" font-family="sans-serif" font-size="11" lengthAdjust="spacing" textLength="174" x="810" y="831.6348">Struct holding exactly one value.</text><line style="stroke:#A80036;stroke-width:1.5;" x1="805" x2="989" y1="837.9551" y2="837.9551"/><!--MD5=[7cc23f800c7cf7cbea6671929283644f]
link Project to Dataset--><path codeLine="97" d="M368.28,464.17 C379.23,483.2 389.97,501.85 400.02,519.31 " fill="none" id="Project-to-Dataset" style="stroke:#A80036;stroke-width:1.0;"/><polygon fill="#A80036" points="402.56,523.72,401.5469,513.9234,400.0701,519.3841,394.6094,517.9073,402.56,523.72" style="stroke:#A80036;stroke-width:1.0;"/><!--MD5=[9e0de1e6fcaac003c54228e98567a7ec]
link Project to DataManagementPlan--><path codeLine="98" d="M247,464.17 C247,507.03 247,548.01 247,577.68 " fill="none" id="Project-to-DataManagementPlan" style="stroke:#A80036;stroke-width:1.0;"/><polygon fill="#A80036" points="247,582.71,251,573.71,247,577.71,243,573.71,247,582.71" style="stroke:#A80036;stroke-width:1.0;"/><!--MD5=[61d276bd89f99db6a941fef8b4e58c0d]
link Project to Grant--><path codeLine="99" d="M163.87,464.17 C143.26,516.4 123.75,565.84 112.08,595.41 " fill="none" id="Project-to-Grant" style="stroke:#A80036;stroke-width:1.0;"/><polygon fill="#A80036" points="110.14,600.34,117.1598,593.4319,111.9722,595.6878,109.7163,590.5003,110.14,600.34" style="stroke:#A80036;stroke-width:1.0;"/><!--MD5=[aaddca4ff91041b164782d23ee668597]
link Project to Person--><path codeLine="100" d="M118.77,395.82 C91.05,434.75 65.67,478.76 51,524 C23.45,608.98 28.49,638.55 51,725 C56.83,747.39 69.63,770.12 80.82,787.07 " fill="none" id="Project-to-Person" style="stroke:#A80036;stroke-width:1.0;"/><polygon fill="#A80036" points="83.62,791.25,81.9174,781.5494,80.83,787.1008,75.2787,786.0134,83.62,791.25" style="stroke:#A80036;stroke-width:1.0;"/><!--MD5=[390fd4fa9717532b24eac3ad36e7793a]
link Project to Organization--><path codeLine="101" d="M375.24,320.47 C449.06,366.72 535.24,435.78 577,524 C615.22,604.75 616.57,644.91 577,725 C563.46,752.41 537.04,773.74 512.74,788.69 " fill="none" id="Project-to-Organization" style="stroke:#A80036;stroke-width:1.0;"/><polygon fill="#A80036" points="508.23,791.41,518.0054,790.2095,512.5175,788.8375,513.8895,783.3496,508.23,791.41" style="stroke:#A80036;stroke-width:1.0;"/><!--MD5=[8793ca0df4a3fbb5ca7b7c0d214208d3]
link Dataset to Person--><path codeLine="102" d="M360.86,713.65 C354.96,717.68 348.98,721.5 343,725 C277.03,763.61 191.48,790.51 141.77,804.16 " fill="none" id="Dataset-to-Person" style="stroke:#A80036;stroke-width:1.0;"/><polygon fill="#A80036" points="136.78,805.52,146.5146,807.0159,141.6045,804.2068,144.4135,799.2967,136.78,805.52" style="stroke:#A80036;stroke-width:1.0;"/><!--MD5=[b539f4f1e2fe78a6bcf7a64e714cb415]
link Dataset to Organization--><path codeLine="103" d="M460,725.26 C460,747.58 460,769.51 460,786.05 " fill="none" id="Dataset-to-Organization" style="stroke:#A80036;stroke-width:1.0;"/><polygon fill="#A80036" points="460,791.44,464,782.44,460,786.44,456,782.44,460,791.44" style="stroke:#A80036;stroke-width:1.0;"/><!--MD5=[1e4f44a132affc5ab79b136e2a0b1c6c]
link Grant to Person--><path codeLine="104" d="M101,648.68 C101,683.34 101,748.63 101,786.11 " fill="none" id="Grant-to-Person" style="stroke:#A80036;stroke-width:1.0;"/><polygon fill="#A80036" points="101,791.43,105,782.43,101,786.43,97,782.43,101,791.43" style="stroke:#A80036;stroke-width:1.0;"/><!--MD5=[1f691a9a168ba0eacd18ea31de3017c3]
link Grant to Organization--><path codeLine="105" d="M106.79,648.64 C113.63,671.3 127.21,705.23 151,725 C223.52,785.29 334.8,804.98 402.16,811.4 " fill="none" id="Grant-to-Organization" style="stroke:#A80036;stroke-width:1.0;"/><polygon fill="#A80036" points="407.34,811.88,398.7428,807.0749,402.3609,811.4235,398.0124,815.0415,407.34,811.88" style="stroke:#A80036;stroke-width:1.0;"/><!--MD5=[25d4f70c1e220ec770220307e518325c]
link TextOrAuthorityRef to MultiLanguageText--><path codeLine="106" d="M930.58,300.74 C954.16,372.27 998.65,507.21 1021.94,577.81 " fill="none" id="TextOrAuthorityRef-to-MultiLanguageText" style="stroke:#A80036;stroke-width:1.0;"/><polygon fill="#A80036" points="1023.57,582.78,1024.563,572.9813,1022.0103,578.0295,1016.9622,575.4768,1023.57,582.78" style="stroke:#A80036;stroke-width:1.0;"/><!--MD5=[dd5d9e60a69852e7b424f6f7cf5f0720]
link TextOrAuthorityRef to AuthorityRef--><path codeLine="107" d="M894.83,300.74 C865.16,370.22 809.94,499.53 779.17,571.59 " fill="none" id="TextOrAuthorityRef-to-AuthorityRef" style="stroke:#A80036;stroke-width:1.0;"/><polygon fill="#A80036" points="777.18,576.25,784.3842,569.5344,779.1375,571.6491,777.0228,566.4024,777.18,576.25" style="stroke:#A80036;stroke-width:1.0;"/><!--MD5=[54ba07cf6a640a2eeafb3781fdcfd2d4]
link AuthorityRef to ValueObject--><path codeLine="108" d="M791.97,672.71 C816.82,706.26 849.62,750.54 871.91,780.62 " fill="none" id="AuthorityRef-to-ValueObject" style="stroke:#A80036;stroke-width:1.0;"/><polygon fill="#A80036" points="875.12,784.96,872.9968,775.3427,872.1521,780.9362,866.5586,780.0914,875.12,784.96" style="stroke:#A80036;stroke-width:1.0;"/><!--MD5=[14f1ee49aedc46d4dbeba995b6bff149]
link MultiLanguageText to ValueObject--><path codeLine="109" d="M1006.97,666.05 C981.67,700.2 945.9,748.49 922.1,780.61 " fill="none" id="MultiLanguageText-to-ValueObject" style="stroke:#A80036;stroke-width:1.0;"/><polygon fill="#A80036" points="918.97,784.84,927.5396,779.986,921.9448,780.8212,921.1095,775.2263,918.97,784.84" style="stroke:#A80036;stroke-width:1.0;"/><!--MD5=[e353e99e5372ba4163f14256cc83f66c]
@startuml Domain Entities
package toplevel {

  class Project {
    The Project.
    - - Required Fields - -
    .. (1) ..
    +ValueObject shortcode
    +ValueObject name
    +MultiLanguageText description
    +Date startDate

    .. (1 - n) ..
    +Dataset[] datasets
    +MultiLanguageText[] keywords
    +TextOrAuthorityRef[] discipline
    +TextOrAuthorityRef[] temporalCoverage
    +AuthorityRef[] spatialCoverage

    .. (1 - 2) ..
    +URL url

    - - Optional Fields - -
    .. (0 - 1) ..
    +DataManagementPlan dataManagementPlan
    +Date endDate

    .. (0 - n) ..
    +ValueObject[] publication
    +Grant[] grant
    +MultiLanguageText[] alternateName
  }

  class Dataset {
    A Dataset belonging to the project.
    ' TODO
    - - Required Fields - -
    .. (1) ..

    .. (1 - n) ..

    - - Optional Fields - -
    .. (0 - 1) ..

    .. (0 - n) ..
  }

  class DataManagementPlan {
    .. (0 - 1) ..
    +boolean available
    +URL url
  }

  class Grant {
    ' TODO
  }

  class Person {
    ' TODO
  }

  class Organization {
    ' TODO
  }

}

package utility {

  class TextOrAuthorityRef {
    ' TODO: find better name
    Struct ensuring the object to be either a multi language text or an authority file reference.
    - - Required: OneOf - -
    +AuthorityRef authorityRef
    +MultiLanguageText text
  }

  class AuthorityRef {
    Reference to an external autority file.
    - - Required Fields - -
    +ValueObject url
    +ValueObject authority
  }

  class MultiLanguageText {
    Struct holding text in multiple different languages.
    - - Required Fields - -
    +Map[ValueObject,ValueObject] text
  }

  class ValueObject {
    Struct holding exactly one value.
  }

}


Project - -> Dataset
Project - -> DataManagementPlan
Project - -> Grant
Project - -> Person
Project - -> Organization
Dataset - -> Person
Dataset - -> Organization
Grant - -> Person
Grant - -> Organization
TextOrAuthorityRef - -> MultiLanguageText
TextOrAuthorityRef - -> AuthorityRef
AuthorityRef - -> ValueObject
MultiLanguageText - -> ValueObject

@enduml

@startuml Domain Entities
package toplevel {

  class Project {
    The Project.
    - - Required Fields - -
    .. (1) ..
    +ValueObject shortcode
    +ValueObject name
    +MultiLanguageText description
    +Date startDate

    .. (1 - n) ..
    +Dataset[] datasets
    +MultiLanguageText[] keywords
    +TextOrAuthorityRef[] discipline
    +TextOrAuthorityRef[] temporalCoverage
    +AuthorityRef[] spatialCoverage

    .. (1 - 2) ..
    +URL url

    - - Optional Fields - -
    .. (0 - 1) ..
    +DataManagementPlan dataManagementPlan
    +Date endDate

    .. (0 - n) ..
    +ValueObject[] publication
    +Grant[] grant
    +MultiLanguageText[] alternateName
  }

  class Dataset {
    A Dataset belonging to the project.
    - - Required Fields - -
    .. (1) ..

    .. (1 - n) ..

    - - Optional Fields - -
    .. (0 - 1) ..

    .. (0 - n) ..
  }

  class DataManagementPlan {
    .. (0 - 1) ..
    +boolean available
    +URL url
  }

  class Grant {
  }

  class Person {
  }

  class Organization {
  }

}

package utility {

  class TextOrAuthorityRef {
    Struct ensuring the object to be either a multi language text or an authority file reference.
    - - Required: OneOf - -
    +AuthorityRef authorityRef
    +MultiLanguageText text
  }

  class AuthorityRef {
    Reference to an external autority file.
    - - Required Fields - -
    +ValueObject url
    +ValueObject authority
  }

  class MultiLanguageText {
    Struct holding text in multiple different languages.
    - - Required Fields - -
    +Map[ValueObject,ValueObject] text
  }

  class ValueObject {
    Struct holding exactly one value.
  }

}


Project - -> Dataset
Project - -> DataManagementPlan
Project - -> Grant
Project - -> Person
Project - -> Organization
Dataset - -> Person
Dataset - -> Organization
Grant - -> Person
Grant - -> Organization
TextOrAuthorityRef - -> MultiLanguageText
TextOrAuthorityRef - -> AuthorityRef
AuthorityRef - -> ValueObject
MultiLanguageText - -> ValueObject

@enduml

PlantUML version 1.2021.2(Sun Mar 07 12:10:27 CET 2021)
(GPL source distribution)
Java Runtime: OpenJDK Runtime Environment
JVM: OpenJDK 64-Bit Server VM
Default Encoding: UTF-8
Language: en
Country: GB
--></g></svg>