<?xml version="1.0" encoding="UTF-8" standalone="no"?><svg xmlns="http://www.w3.org/2000/svg" xmlns:xlink="http://www.w3.org/1999/xlink" contentScriptType="application/ecmascript" contentStyleType="text/css" height="811px" preserveAspectRatio="none" style="width:858px;height:811px;" version="1.1" viewBox="0 0 858 811" width="858px" zoomAndPan="magnify"><defs><filter height="300%" id="f15sls17mpk53u" width="300%" x="-1" y="-1"><feGaussianBlur result="blurOut" stdDeviation="2.0"/><feColorMatrix in="blurOut" result="blurOut2" type="matrix" values="0 0 0 0 0 0 0 0 0 0 0 0 0 0 0 0 0 0 .4 0"/><feOffset dx="4.0" dy="4.0" in="blurOut2" result="blurOut3"/><feBlend in="SourceGraphic" in2="blurOut3" mode="normal"/></filter></defs><g><!--class Project--><rect fill="#FEFECE" filter="url(#f15sls17mpk53u)" height="422.7422" id="Project" style="stroke: #A80036; stroke-width: 1.5;" width="256" x="357" y="8"/><ellipse cx="460.75" cy="24" fill="#ADD1B2" rx="11" ry="11" style="stroke: #A80036; stroke-width: 1.0;"/><path d="M463.2231,30.1431 Q462.6421,30.4419 462.0029,30.5913 Q461.3638,30.7407 460.6582,30.7407 Q458.1514,30.7407 456.8315,29.0889 Q455.5117,27.437 455.5117,24.3159 Q455.5117,21.1865 456.8315,19.5347 Q458.1514,17.8828 460.6582,17.8828 Q461.3638,17.8828 462.0112,18.0322 Q462.6587,18.1816 463.2231,18.4805 L463.2231,21.2031 Q462.5923,20.6221 461.9988,20.3523 Q461.4053,20.0825 460.7744,20.0825 Q459.4297,20.0825 458.7449,21.1492 Q458.0601,22.2158 458.0601,24.3159 Q458.0601,26.4077 458.7449,27.4744 Q459.4297,28.541 460.7744,28.541 Q461.4053,28.541 461.9988,28.2712 Q462.5923,28.0015 463.2231,27.4204 Z "/><text fill="#000000" font-family="sans-serif" font-size="12" lengthAdjust="spacingAndGlyphs" textLength="40" x="481.25" y="28.5352">Project</text><line style="stroke: #A80036; stroke-width: 1.5;" x1="358" x2="612" y1="40" y2="40"/><text fill="#000000" font-family="sans-serif" font-size="11" lengthAdjust="spacingAndGlyphs" textLength="63" x="363" y="54.6348">The Project.</text><line style="stroke: #A80036; stroke-width: 1.0;" x1="358" x2="444" y1="67.4326" y2="67.4326"/><text fill="#000000" font-family="sans-serif" font-size="11" lengthAdjust="spacingAndGlyphs" textLength="82" x="444" y="71.0898">Required Fields</text><line style="stroke: #A80036; stroke-width: 1.0;" x1="526" x2="612" y1="67.4326" y2="67.4326"/><ellipse cx="368" cy="101.3203" fill="none" rx="3" ry="3" style="stroke: #038048; stroke-width: 1.0;"/><text fill="#000000" font-family="sans-serif" font-size="11" lengthAdjust="spacingAndGlyphs" textLength="90" x="377" y="103.9775">string shortcode</text><ellipse cx="368" cy="114.2754" fill="none" rx="3" ry="3" style="stroke: #038048; stroke-width: 1.0;"/><text fill="#000000" font-family="sans-serif" font-size="11" lengthAdjust="spacingAndGlyphs" textLength="64" x="377" y="116.9326">string name</text><ellipse cx="368" cy="127.2305" fill="none" rx="3" ry="3" style="stroke: #038048; stroke-width: 1.0;"/><text fill="#000000" font-family="sans-serif" font-size="11" lengthAdjust="spacingAndGlyphs" textLength="88" x="377" y="129.8877">Text description</text><ellipse cx="368" cy="140.1855" fill="none" rx="3" ry="3" style="stroke: #038048; stroke-width: 1.0;"/><text fill="#000000" font-family="sans-serif" font-size="11" lengthAdjust="spacingAndGlyphs" textLength="76" x="377" y="142.8428">Date startDate</text><text fill="#000000" font-family="sans-serif" font-size="11" lengthAdjust="spacingAndGlyphs" textLength="0" x="380" y="155.7979"/><line style="stroke: #A80036; stroke-width: 1.0; stroke-dasharray: 1.0,2.0;" x1="358" x2="477.5" y1="86.8652" y2="86.8652"/><text fill="#000000" font-family="sans-serif" font-size="11" lengthAdjust="spacingAndGlyphs" textLength="15" x="477.5" y="90.5225">(1)</text><line style="stroke: #A80036; stroke-width: 1.0; stroke-dasharray: 1.0,2.0;" x1="492.5" x2="612" y1="86.8652" y2="86.8652"/><ellipse cx="368" cy="183.0508" fill="none" rx="3" ry="3" style="stroke: #038048; stroke-width: 1.0;"/><text fill="#000000" font-family="sans-serif" font-size="11" lengthAdjust="spacingAndGlyphs" textLength="96" x="377" y="185.708">Dataset[] datasets</text><ellipse cx="368" cy="196.0059" fill="none" rx="3" ry="3" style="stroke: #038048; stroke-width: 1.0;"/><text fill="#000000" font-family="sans-serif" font-size="11" lengthAdjust="spacingAndGlyphs" textLength="86" x="377" y="198.6631">Text[] keywords</text><ellipse cx="368" cy="208.9609" fill="none" rx="3" ry="3" style="stroke: #038048; stroke-width: 1.0;"/><text fill="#000000" font-family="sans-serif" font-size="11" lengthAdjust="spacingAndGlyphs" textLength="111" x="377" y="211.6182">Text[]|URL discipline</text><ellipse cx="368" cy="221.916" fill="none" rx="3" ry="3" style="stroke: #038048; stroke-width: 1.0;"/><text fill="#000000" font-family="sans-serif" font-size="11" lengthAdjust="spacingAndGlyphs" textLength="159" x="377" y="224.5732">Text[]|URL temporalCoverage</text><ellipse cx="368" cy="234.8711" fill="none" rx="3" ry="3" style="stroke: #038048; stroke-width: 1.0;"/><text fill="#000000" font-family="sans-serif" font-size="11" lengthAdjust="spacingAndGlyphs" textLength="116" x="377" y="237.5283">Place spatialCoverage</text><text fill="#000000" font-family="sans-serif" font-size="11" lengthAdjust="spacingAndGlyphs" textLength="0" x="380" y="250.4834"/><line style="stroke: #A80036; stroke-width: 1.0; stroke-dasharray: 1.0,2.0;" x1="358" x2="468" y1="168.5957" y2="168.5957"/><text fill="#000000" font-family="sans-serif" font-size="11" lengthAdjust="spacingAndGlyphs" textLength="34" x="468" y="172.2529">(1 - n)</text><line style="stroke: #A80036; stroke-width: 1.0; stroke-dasharray: 1.0,2.0;" x1="502" x2="612" y1="168.5957" y2="168.5957"/><ellipse cx="368" cy="277.7363" fill="none" rx="3" ry="3" style="stroke: #038048; stroke-width: 1.0;"/><text fill="#000000" font-family="sans-serif" font-size="11" lengthAdjust="spacingAndGlyphs" textLength="39" x="377" y="280.3936">URL url</text><text fill="#000000" font-family="sans-serif" font-size="11" lengthAdjust="spacingAndGlyphs" textLength="0" x="380" y="293.3486"/><line style="stroke: #A80036; stroke-width: 1.0; stroke-dasharray: 1.0,2.0;" x1="358" x2="468" y1="263.2813" y2="263.2813"/><text fill="#000000" font-family="sans-serif" font-size="11" lengthAdjust="spacingAndGlyphs" textLength="34" x="468" y="266.9385">(1 - 2)</text><line style="stroke: #A80036; stroke-width: 1.0; stroke-dasharray: 1.0,2.0;" x1="502" x2="612" y1="263.2813" y2="263.2813"/><line style="stroke: #A80036; stroke-width: 1.0;" x1="358" x2="445" y1="306.1465" y2="306.1465"/><text fill="#000000" font-family="sans-serif" font-size="11" lengthAdjust="spacingAndGlyphs" textLength="80" x="445" y="309.8037">Optional Fields</text><line style="stroke: #A80036; stroke-width: 1.0;" x1="525" x2="612" y1="306.1465" y2="306.1465"/><ellipse cx="368" cy="340.0342" fill="none" rx="3" ry="3" style="stroke: #038048; stroke-width: 1.0;"/><text fill="#000000" font-family="sans-serif" font-size="11" lengthAdjust="spacingAndGlyphs" textLength="230" x="377" y="342.6914">DataManagementPlan dataManagementPlan</text><ellipse cx="368" cy="352.9893" fill="none" rx="3" ry="3" style="stroke: #038048; stroke-width: 1.0;"/><text fill="#000000" font-family="sans-serif" font-size="11" lengthAdjust="spacingAndGlyphs" textLength="71" x="377" y="355.6465">Date endDate</text><text fill="#000000" font-family="sans-serif" font-size="11" lengthAdjust="spacingAndGlyphs" textLength="0" x="380" y="368.6016"/><line style="stroke: #A80036; stroke-width: 1.0; stroke-dasharray: 1.0,2.0;" x1="358" x2="468" y1="325.5791" y2="325.5791"/><text fill="#000000" font-family="sans-serif" font-size="11" lengthAdjust="spacingAndGlyphs" textLength="34" x="468" y="329.2363">(0 - 1)</text><line style="stroke: #A80036; stroke-width: 1.0; stroke-dasharray: 1.0,2.0;" x1="502" x2="612" y1="325.5791" y2="325.5791"/><ellipse cx="368" cy="395.8545" fill="none" rx="3" ry="3" style="stroke: #038048; stroke-width: 1.0;"/><text fill="#000000" font-family="sans-serif" font-size="11" lengthAdjust="spacingAndGlyphs" textLength="103" x="377" y="398.5117">string[] publication</text><ellipse cx="368" cy="408.8096" fill="none" rx="3" ry="3" style="stroke: #038048; stroke-width: 1.0;"/><text fill="#000000" font-family="sans-serif" font-size="11" lengthAdjust="spacingAndGlyphs" textLength="70" x="377" y="411.4668">Grant[] grant</text><ellipse cx="368" cy="421.7646" fill="none" rx="3" ry="3" style="stroke: #038048; stroke-width: 1.0;"/><text fill="#000000" font-family="sans-serif" font-size="11" lengthAdjust="spacingAndGlyphs" textLength="112" x="377" y="424.4219">Text[] alternateName</text><line style="stroke: #A80036; stroke-width: 1.0; stroke-dasharray: 1.0,2.0;" x1="358" x2="468" y1="381.3994" y2="381.3994"/><text fill="#000000" font-family="sans-serif" font-size="11" lengthAdjust="spacingAndGlyphs" textLength="34" x="468" y="385.0566">(0 - n)</text><line style="stroke: #A80036; stroke-width: 1.0; stroke-dasharray: 1.0,2.0;" x1="502" x2="612" y1="381.3994" y2="381.3994"/><path d="M6,184 L6,209.3105 A0,0 0 0 0 6,209.3105 L241,209.3105 A0,0 0 0 0 241,209.3105 L241,202 L361,207.4609 L241,194 L241,194 L231,184 L6,184 A0,0 0 0 0 6,184 " fill="#FBFB77" filter="url(#f15sls17mpk53u)" style="stroke: #A80036; stroke-width: 1.0;"/><path d="M231,184 L231,194 L241,194 L231,184 " fill="#FBFB77" style="stroke: #A80036; stroke-width: 1.0;"/><text fill="#000000" font-family="sans-serif" font-size="13" lengthAdjust="spacingAndGlyphs" textLength="214" x="12" y="201.5684">how do we handle different types?</text><path d="M6,219.3105 L6,244.6211 A0,0 0 0 0 6,244.6211 L322,244.6211 A0,0 0 0 0 322,244.6211 L322,237.3105 L361,233.3711 L322,229.3105 L322,229.3105 L312,219.3105 L6,219.3105 A0,0 0 0 0 6,219.3105 " fill="#FBFB77" filter="url(#f15sls17mpk53u)" style="stroke: #A80036; stroke-width: 1.0;"/><path d="M312,219.3105 L312,229.3105 L322,229.3105 L312,219.3105 " fill="#FBFB77" style="stroke: #A80036; stroke-width: 1.0;"/><text fill="#000000" font-family="sans-serif" font-size="13" lengthAdjust="spacingAndGlyphs" textLength="295" x="12" y="236.8789">Does it make sense to have `Place` as a class?</text><!--class Dataset--><rect fill="#FEFECE" filter="url(#f15sls17mpk53u)" height="200.9834" id="Dataset" style="stroke: #A80036; stroke-width: 1.5;" width="198" x="386" y="491"/><ellipse cx="458.75" cy="507" fill="#ADD1B2" rx="11" ry="11" style="stroke: #A80036; stroke-width: 1.0;"/><path d="M461.2231,513.1431 Q460.6421,513.4419 460.0029,513.5913 Q459.3638,513.7407 458.6582,513.7407 Q456.1514,513.7407 454.8315,512.0889 Q453.5117,510.437 453.5117,507.3159 Q453.5117,504.1865 454.8315,502.5347 Q456.1514,500.8828 458.6582,500.8828 Q459.3638,500.8828 460.0112,501.0322 Q460.6587,501.1816 461.2231,501.4805 L461.2231,504.2031 Q460.5923,503.6221 459.9988,503.3523 Q459.4053,503.0825 458.7744,503.0825 Q457.4297,503.0825 456.7449,504.1492 Q456.0601,505.2158 456.0601,507.3159 Q456.0601,509.4077 456.7449,510.4744 Q457.4297,511.541 458.7744,511.541 Q459.4053,511.541 459.9988,511.2712 Q460.5923,511.0015 461.2231,510.4204 Z "/><text fill="#000000" font-family="sans-serif" font-size="12" lengthAdjust="spacingAndGlyphs" textLength="44" x="479.25" y="511.5352">Dataset</text><line style="stroke: #A80036; stroke-width: 1.5;" x1="387" x2="583" y1="523" y2="523"/><text fill="#000000" font-family="sans-serif" font-size="11" lengthAdjust="spacingAndGlyphs" textLength="186" x="392" y="537.6348">A Dataset belonging to the project.</text><line style="stroke: #A80036; stroke-width: 1.0;" x1="387" x2="444" y1="550.4326" y2="550.4326"/><text fill="#000000" font-family="sans-serif" font-size="11" lengthAdjust="spacingAndGlyphs" textLength="82" x="444" y="554.0898">Required Fields</text><line style="stroke: #A80036; stroke-width: 1.0;" x1="526" x2="583" y1="550.4326" y2="550.4326"/><text fill="#000000" font-family="sans-serif" font-size="11" lengthAdjust="spacingAndGlyphs" textLength="0" x="395" y="586.9775"/><line style="stroke: #A80036; stroke-width: 1.0; stroke-dasharray: 1.0,2.0;" x1="387" x2="477.5" y1="569.8652" y2="569.8652"/><text fill="#000000" font-family="sans-serif" font-size="11" lengthAdjust="spacingAndGlyphs" textLength="15" x="477.5" y="573.5225">(1)</text><line style="stroke: #A80036; stroke-width: 1.0; stroke-dasharray: 1.0,2.0;" x1="492.5" x2="583" y1="569.8652" y2="569.8652"/><text fill="#000000" font-family="sans-serif" font-size="11" lengthAdjust="spacingAndGlyphs" textLength="0" x="395" y="616.8877"/><line style="stroke: #A80036; stroke-width: 1.0; stroke-dasharray: 1.0,2.0;" x1="387" x2="468" y1="599.7754" y2="599.7754"/><text fill="#000000" font-family="sans-serif" font-size="11" lengthAdjust="spacingAndGlyphs" textLength="34" x="468" y="603.4326">(1 - n)</text><line style="stroke: #A80036; stroke-width: 1.0; stroke-dasharray: 1.0,2.0;" x1="502" x2="583" y1="599.7754" y2="599.7754"/><line style="stroke: #A80036; stroke-width: 1.0;" x1="387" x2="445" y1="629.6855" y2="629.6855"/><text fill="#000000" font-family="sans-serif" font-size="11" lengthAdjust="spacingAndGlyphs" textLength="80" x="445" y="633.3428">Optional Fields</text><line style="stroke: #A80036; stroke-width: 1.0;" x1="525" x2="583" y1="629.6855" y2="629.6855"/><text fill="#000000" font-family="sans-serif" font-size="11" lengthAdjust="spacingAndGlyphs" textLength="0" x="395" y="666.2305"/><line style="stroke: #A80036; stroke-width: 1.0; stroke-dasharray: 1.0,2.0;" x1="387" x2="468" y1="649.1182" y2="649.1182"/><text fill="#000000" font-family="sans-serif" font-size="11" lengthAdjust="spacingAndGlyphs" textLength="34" x="468" y="652.7754">(0 - 1)</text><line style="stroke: #A80036; stroke-width: 1.0; stroke-dasharray: 1.0,2.0;" x1="502" x2="583" y1="649.1182" y2="649.1182"/><line style="stroke: #A80036; stroke-width: 1.0; stroke-dasharray: 1.0,2.0;" x1="387" x2="468" y1="679.0283" y2="679.0283"/><text fill="#000000" font-family="sans-serif" font-size="11" lengthAdjust="spacingAndGlyphs" textLength="34" x="468" y="682.6855">(0 - n)</text><line style="stroke: #A80036; stroke-width: 1.0; stroke-dasharray: 1.0,2.0;" x1="502" x2="583" y1="679.0283" y2="679.0283"/><!--class DataManagementPlan--><rect fill="#FEFECE" filter="url(#f15sls17mpk53u)" height="82.8652" id="DataManagementPlan" style="stroke: #A80036; stroke-width: 1.5;" width="157" x="690.5" y="550"/><ellipse cx="705.5" cy="566" fill="#ADD1B2" rx="11" ry="11" style="stroke: #A80036; stroke-width: 1.0;"/><path d="M707.9731,572.1431 Q707.3921,572.4419 706.7529,572.5913 Q706.1138,572.7407 705.4082,572.7407 Q702.9014,572.7407 701.5815,571.0889 Q700.2617,569.437 700.2617,566.3159 Q700.2617,563.1865 701.5815,561.5347 Q702.9014,559.8828 705.4082,559.8828 Q706.1138,559.8828 706.7612,560.0322 Q707.4087,560.1816 707.9731,560.4805 L707.9731,563.2031 Q707.3423,562.6221 706.7488,562.3523 Q706.1553,562.0825 705.5244,562.0825 Q704.1797,562.0825 703.4949,563.1492 Q702.8101,564.2158 702.8101,566.3159 Q702.8101,568.4077 703.4949,569.4744 Q704.1797,570.541 705.5244,570.541 Q706.1553,570.541 706.7488,570.2712 Q707.3423,570.0015 707.9731,569.4204 Z "/><text fill="#000000" font-family="sans-serif" font-size="12" lengthAdjust="spacingAndGlyphs" textLength="125" x="719.5" y="570.5352">DataManagementPlan</text><line style="stroke: #A80036; stroke-width: 1.5;" x1="691.5" x2="846.5" y1="582" y2="582"/><ellipse cx="701.5" cy="610.9326" fill="none" rx="3" ry="3" style="stroke: #038048; stroke-width: 1.0;"/><text fill="#000000" font-family="sans-serif" font-size="11" lengthAdjust="spacingAndGlyphs" textLength="92" x="710.5" y="613.5898">boolean available</text><ellipse cx="701.5" cy="623.8877" fill="none" rx="3" ry="3" style="stroke: #038048; stroke-width: 1.0;"/><text fill="#000000" font-family="sans-serif" font-size="11" lengthAdjust="spacingAndGlyphs" textLength="39" x="710.5" y="626.5449">URL url</text><line style="stroke: #A80036; stroke-width: 1.0; stroke-dasharray: 1.0,2.0;" x1="691.5" x2="752" y1="596.4775" y2="596.4775"/><text fill="#000000" font-family="sans-serif" font-size="11" lengthAdjust="spacingAndGlyphs" textLength="34" x="752" y="600.1348">(0 - 1)</text><line style="stroke: #A80036; stroke-width: 1.0; stroke-dasharray: 1.0,2.0;" x1="786" x2="846.5" y1="596.4775" y2="596.4775"/><!--class Grant--><rect fill="#FEFECE" filter="url(#f15sls17mpk53u)" height="48" id="Grant" style="stroke: #A80036; stroke-width: 1.5;" width="64" x="287" y="567.5"/><ellipse cx="302" cy="583.5" fill="#ADD1B2" rx="11" ry="11" style="stroke: #A80036; stroke-width: 1.0;"/><path d="M304.4731,589.6431 Q303.8921,589.9419 303.2529,590.0913 Q302.6138,590.2407 301.9082,590.2407 Q299.4014,590.2407 298.0815,588.5889 Q296.7617,586.937 296.7617,583.8159 Q296.7617,580.6865 298.0815,579.0347 Q299.4014,577.3828 301.9082,577.3828 Q302.6138,577.3828 303.2612,577.5322 Q303.9087,577.6816 304.4731,577.9805 L304.4731,580.7031 Q303.8423,580.1221 303.2488,579.8523 Q302.6553,579.5825 302.0244,579.5825 Q300.6797,579.5825 299.9949,580.6492 Q299.3101,581.7158 299.3101,583.8159 Q299.3101,585.9077 299.9949,586.9744 Q300.6797,588.041 302.0244,588.041 Q302.6553,588.041 303.2488,587.7712 Q303.8423,587.5015 304.4731,586.9204 Z "/><text fill="#000000" font-family="sans-serif" font-size="12" lengthAdjust="spacingAndGlyphs" textLength="32" x="316" y="588.0352">Grant</text><line style="stroke: #A80036; stroke-width: 1.5;" x1="288" x2="350" y1="599.5" y2="599.5"/><line style="stroke: #A80036; stroke-width: 1.5;" x1="288" x2="350" y1="607.5" y2="607.5"/><!--class Person--><rect fill="#FEFECE" filter="url(#f15sls17mpk53u)" height="48" id="Person" style="stroke: #A80036; stroke-width: 1.5;" width="71" x="283.5" y="752"/><ellipse cx="298.5" cy="768" fill="#ADD1B2" rx="11" ry="11" style="stroke: #A80036; stroke-width: 1.0;"/><path d="M300.9731,774.1431 Q300.3921,774.4419 299.7529,774.5913 Q299.1138,774.7407 298.4082,774.7407 Q295.9014,774.7407 294.5815,773.0889 Q293.2617,771.437 293.2617,768.3159 Q293.2617,765.1865 294.5815,763.5347 Q295.9014,761.8828 298.4082,761.8828 Q299.1138,761.8828 299.7612,762.0322 Q300.4087,762.1816 300.9731,762.4805 L300.9731,765.2031 Q300.3423,764.6221 299.7488,764.3523 Q299.1553,764.0825 298.5244,764.0825 Q297.1797,764.0825 296.4949,765.1492 Q295.8101,766.2158 295.8101,768.3159 Q295.8101,770.4077 296.4949,771.4744 Q297.1797,772.541 298.5244,772.541 Q299.1553,772.541 299.7488,772.2712 Q300.3423,772.0015 300.9731,771.4204 Z "/><text fill="#000000" font-family="sans-serif" font-size="12" lengthAdjust="spacingAndGlyphs" textLength="39" x="312.5" y="772.5352">Person</text><line style="stroke: #A80036; stroke-width: 1.5;" x1="284.5" x2="353.5" y1="784" y2="784"/><line style="stroke: #A80036; stroke-width: 1.5;" x1="284.5" x2="353.5" y1="792" y2="792"/><!--class Organization--><rect fill="#FEFECE" filter="url(#f15sls17mpk53u)" height="48" id="Organization" style="stroke: #A80036; stroke-width: 1.5;" width="105" x="432.5" y="752"/><ellipse cx="447.5" cy="768" fill="#ADD1B2" rx="11" ry="11" style="stroke: #A80036; stroke-width: 1.0;"/><path d="M449.9731,774.1431 Q449.3921,774.4419 448.7529,774.5913 Q448.1138,774.7407 447.4082,774.7407 Q444.9014,774.7407 443.5815,773.0889 Q442.2617,771.437 442.2617,768.3159 Q442.2617,765.1865 443.5815,763.5347 Q444.9014,761.8828 447.4082,761.8828 Q448.1138,761.8828 448.7612,762.0322 Q449.4087,762.1816 449.9731,762.4805 L449.9731,765.2031 Q449.3423,764.6221 448.7488,764.3523 Q448.1553,764.0825 447.5244,764.0825 Q446.1797,764.0825 445.4949,765.1492 Q444.8101,766.2158 444.8101,768.3159 Q444.8101,770.4077 445.4949,771.4744 Q446.1797,772.541 447.5244,772.541 Q448.1553,772.541 448.7488,772.2712 Q449.3423,772.0015 449.9731,771.4204 Z "/><text fill="#000000" font-family="sans-serif" font-size="12" lengthAdjust="spacingAndGlyphs" textLength="73" x="461.5" y="772.5352">Organization</text><line style="stroke: #A80036; stroke-width: 1.5;" x1="433.5" x2="536.5" y1="784" y2="784"/><line style="stroke: #A80036; stroke-width: 1.5;" x1="433.5" x2="536.5" y1="792" y2="792"/><!--link Project$$$LEFT to Project--><!--link Project to Dataset--><path d="M485,431.17 C485,449.87 485,468.22 485,485.42 " fill="none" id="Project-Dataset" style="stroke: #A80036; stroke-width: 1.0;"/><polygon fill="#A80036" points="485,490.72,489,481.72,485,485.72,481,481.72,485,490.72" style="stroke: #A80036; stroke-width: 1.0;"/><!--link Project to DataManagementPlan--><path d="M613.08,387.37 C657.65,445.43 704.07,505.91 734.54,545.61 " fill="none" id="Project-DataManagementPlan" style="stroke: #A80036; stroke-width: 1.0;"/><polygon fill="#A80036" points="737.81,549.86,735.5114,540.2831,734.769,545.891,729.1611,545.1487,737.81,549.86" style="stroke: #A80036; stroke-width: 1.0;"/><!--link Project to Grant--><path d="M390.48,431.17 C366.95,483.61 344.69,533.25 331.44,562.78 " fill="none" id="Project-Grant" style="stroke: #A80036; stroke-width: 1.0;"/><polygon fill="#A80036" points="329.39,567.34,336.7387,560.7828,331.4472,562.7828,329.4471,557.4913,329.39,567.34" style="stroke: #A80036; stroke-width: 1.0;"/><!--link Project to Person--><path d="M356.95,410.25 C351.03,417.37 345.03,424.31 339,431 C311.54,461.42 286.12,453.77 269,491 C231.67,572.16 245.08,605.93 269,692 C274.6,712.15 286.55,732.3 297.37,747.7 " fill="none" id="Project-Person" style="stroke: #A80036; stroke-width: 1.0;"/><polygon fill="#A80036" points="300.38,751.92,298.3781,742.2767,297.463,747.8591,291.8807,746.9439,300.38,751.92" style="stroke: #A80036; stroke-width: 1.0;"/><!--link Project to Organization--><path d="M585.71,431.2 C592.29,451.09 597.9,471.21 602,491 C620.11,578.48 643.01,612.63 602,692 C589.19,716.79 565.19,735.78 542.24,749.29 " fill="none" id="Project-Organization" style="stroke: #A80036; stroke-width: 1.0;"/><polygon fill="#A80036" points="537.67,751.92,547.468,750.9208,542.0095,749.4362,543.494,743.9777,537.67,751.92" style="stroke: #A80036; stroke-width: 1.0;"/><!--link Dataset to Person--><path d="M394.47,692.03 C375.73,712.63 357.5,732.67 343.65,747.9 " fill="none" id="Dataset-Person" style="stroke: #A80036; stroke-width: 1.0;"/><polygon fill="#A80036" points="340.23,751.66,349.2484,747.7016,343.5976,747.9642,343.3351,742.3134,340.23,751.66" style="stroke: #A80036; stroke-width: 1.0;"/><!--link Dataset to Organization--><path d="M485,692.03 C485,711.94 485,731.31 485,746.33 " fill="none" id="Dataset-Organization" style="stroke: #A80036; stroke-width: 1.0;"/><polygon fill="#A80036" points="485,751.66,489,742.66,485,746.66,481,742.66,485,751.66" style="stroke: #A80036; stroke-width: 1.0;"/><!--link Grant to Person--><path d="M319,615.61 C319,648.98 319,710.59 319,746.66 " fill="none" id="Grant-Person" style="stroke: #A80036; stroke-width: 1.0;"/><polygon fill="#A80036" points="319,751.79,323,742.79,319,746.79,315,742.79,319,751.79" style="stroke: #A80036; stroke-width: 1.0;"/><!--link Grant to Organization--><path d="M326.67,615.72 C334.58,637.19 348.52,669.14 368,692 C387.54,714.93 414.74,734.72 437.99,749.22 " fill="none" id="Grant-Organization" style="stroke: #A80036; stroke-width: 1.0;"/><polygon fill="#A80036" points="442.29,751.87,436.7336,743.7382,438.0356,749.2431,432.5307,750.5452,442.29,751.87" style="stroke: #A80036; stroke-width: 1.0;"/><!--
@startuml Domain Entities

class Project {
  The Project.
  - - Required Fields - -
  .. (1) ..
  +string shortcode
  +string name
  +Text description
  +Date startDate

  .. (1 - n) ..
  +Dataset[] datasets
  +Text[] keywords
  +Text[]|URL discipline
  +Text[]|URL temporalCoverage
  +Place spatialCoverage

  .. (1 - 2) ..
  +URL url

  - - Optional Fields - -
  .. (0 - 1) ..
  +DataManagementPlan dataManagementPlan
  +Date endDate

  .. (0 - n) ..
  +string[] publication
  +Grant[] grant
  +Text[] alternateName
}

note left of Project::discipline
  how do we handle different types?
end note

note left of Project::spatialCoverage
  Does it make sense to have `Place` as a class?
end note

class Dataset {
  A Dataset belonging to the project.
  - - Required Fields - -
  .. (1) ..

  .. (1 - n) ..

  - - Optional Fields - -
  .. (0 - 1) ..

  .. (0 - n) ..
}

class DataManagementPlan {
  .. (0 - 1) ..
  +boolean available
  +URL url
}



Project - -> Dataset
Project - -> DataManagementPlan
Project - -> Grant
Project - -> Person
Project - -> Organization
Dataset - -> Person
Dataset - -> Organization
Grant - -> Person
Grant - -> Organization

@enduml

PlantUML version 1.2019.06(Fri May 24 19:10:25 CEST 2019)
(GPL source distribution)
Java Runtime: OpenJDK Runtime Environment
JVM: OpenJDK 64-Bit Server VM
Java Version: 11.0.10+9
Operating System: Mac OS X
OS Version: 10.15.7
Default Encoding: UTF-8
Language: en
Country: GB
--></g></svg>